<?xml version="1.0" encoding="UTF-8" standalone="no"?>
<!DOCTYPE svg PUBLIC "-//W3C//DTD SVG 1.1//EN"
 "http://www.w3.org/Graphics/SVG/1.1/DTD/svg11.dtd">
<!-- Generated by graphviz version 14.1.5 (20260411.2331)
 -->
<!-- Title: RTR Engine Architecture Pages: 1 -->
<svg width="1649pt" height="733pt"
 viewBox="0.00 0.00 1649.00 733.00" xmlns="http://www.w3.org/2000/svg" xmlns:xlink="http://www.w3.org/1999/xlink">
<g id="graph0" class="graph" transform="scale(1 1) rotate(0) translate(4 729)">
<title>RTR Engine Architecture</title>
<polygon fill="white" stroke="none" points="-4,4 -4,-729 1645.16,-729 1645.16,4 -4,4"/>
<g id="clust1" class="cluster">
<title>clusterLegend</title>
<polygon fill="none" stroke="black" points="8,-8 8,-274 606.24,-274 606.24,-8 8,-8"/>
<text xml:space="preserve" text-anchor="middle" x="307.12" y="-256.7" font-family="Segoe UI" font-size="14.00">Legend</text>
</g>
<!-- legendNode0 -->
<g id="node1" class="node">
<title>legendNode0</title>
<polygon fill="none" stroke="black" points="76.34,-113.05 79.73,-113.15 83.07,-113.3 86.37,-113.49 89.61,-113.74 92.78,-114.03 95.85,-114.36 98.83,-114.75 101.69,-115.18 104.44,-115.65 107.05,-116.16 109.52,-116.71 111.85,-117.31 114.01,-117.94 116.02,-118.61 117.86,-119.31 119.52,-120.04 121.01,-120.8 122.32,-121.59 123.45,-122.41 124.4,-123.25 125.17,-124.11 125.75,-124.99 126.16,-125.89 126.4,-126.8 126.46,-127.72 126.36,-128.65 126.09,-129.59 125.67,-130.53 125.09,-131.47 124.37,-132.41 123.51,-133.35 122.52,-134.28 121.4,-135.2 120.17,-136.11 118.83,-137.01 117.38,-137.89 115.84,-138.75 114.22,-139.59 112.51,-140.41 110.73,-141.2 108.89,-141.96 106.98,-142.69 105.02,-143.39 103.02,-144.06 100.97,-144.69 98.89,-145.29 96.77,-145.84 94.63,-146.35 92.46,-146.82 90.27,-147.25 88.07,-147.64 85.85,-147.97 83.62,-148.26 81.38,-148.51 79.13,-148.7 76.88,-148.85 74.62,-148.95 72.36,-149 70.1,-149 67.84,-148.95 65.59,-148.85 63.33,-148.7 61.09,-148.51 58.85,-148.26 56.61,-147.97 54.4,-147.64 52.19,-147.25 50,-146.82 47.83,-146.35 45.69,-145.84 43.57,-145.29 41.49,-144.69 39.44,-144.06 37.44,-143.39 35.48,-142.69 33.58,-141.96 31.73,-141.2 29.95,-140.41 28.25,-139.59 26.62,-138.75 25.08,-137.89 23.64,-137.01 22.29,-136.11 21.06,-135.2 19.95,-134.28 18.95,-133.35 18.09,-132.41 17.37,-131.47 16.8,-130.53 16.37,-129.59 16.1,-128.65 16,-127.72 16.06,-126.8 16.3,-125.89 16.71,-124.99 17.3,-124.11 18.06,-123.25 19.01,-122.41 20.14,-121.59 21.45,-120.8 22.94,-120.04 24.61,-119.31 26.44,-118.61 28.45,-117.94 30.62,-117.31 32.94,-116.71 35.41,-116.16 38.03,-115.65 40.77,-115.18 43.63,-114.75 46.61,-114.36 49.69,-114.03 52.85,-113.74 56.09,-113.49 59.39,-113.3 62.74,-113.15 66.12,-113.05 69.53,-113 72.94,-113 76.34,-113.05"/>
<text xml:space="preserve" text-anchor="middle" x="71.23" y="-125.95" font-family="Times New Roman,serif" font-size="14.00">Executable</text>
</g>
<!-- legendNode1 -->
<g id="node2" class="node">
<title>legendNode1</title>
<polygon fill="none" stroke="black" points="314.76,-150.54 314.76,-165.46 275.38,-176 219.7,-176 180.33,-165.46 180.33,-150.54 219.7,-140 275.38,-140 314.76,-150.54"/>
<text xml:space="preserve" text-anchor="middle" x="247.54" y="-152.95" font-family="Times New Roman,serif" font-size="14.00">Static Library</text>
</g>
<!-- legendNode0&#45;&gt;legendNode1 -->
<g id="edge1" class="edge">
<title>legendNode0&#45;&gt;legendNode1</title>
<path fill="none" stroke="black" d="M117.57,-138.02C135.03,-140.73 155.42,-143.89 174.76,-146.88"/>
<polygon fill="black" stroke="black" points="174.09,-150.32 184.5,-148.39 175.16,-143.4 174.09,-150.32"/>
</g>
<!-- legendNode2 -->
<g id="node3" class="node">
<title>legendNode2</title>
<polygon fill="none" stroke="black" points="319.74,-208.54 319.74,-223.46 277.45,-234 217.63,-234 175.34,-223.46 175.34,-208.54 217.63,-198 277.45,-198 319.74,-208.54"/>
<polygon fill="none" stroke="black" points="323.74,-205.42 323.74,-226.58 277.94,-238 217.14,-238 171.34,-226.58 171.34,-205.42 217.14,-194 277.94,-194 323.74,-205.42"/>
<text xml:space="preserve" text-anchor="middle" x="247.54" y="-210.95" font-family="Times New Roman,serif" font-size="14.00">Shared Library</text>
</g>
<!-- legendNode0&#45;&gt;legendNode2 -->
<g id="edge2" class="edge">
<title>legendNode0&#45;&gt;legendNode2</title>
<path fill="none" stroke="black" d="M95.61,-146.4C113.67,-157.91 139.55,-173.57 163.46,-185 170.54,-188.38 178.1,-191.65 185.66,-194.71"/>
<polygon fill="black" stroke="black" points="184.3,-197.94 194.89,-198.34 186.86,-191.42 184.3,-197.94"/>
</g>
<!-- legendNode3 -->
<g id="node4" class="node">
<title>legendNode3</title>
<polygon fill="none" stroke="black" points="323.62,-34.54 323.62,-49.46 279.05,-60 216.03,-60 171.46,-49.46 171.46,-34.54 216.03,-24 279.05,-24 323.62,-34.54"/>
<polygon fill="none" stroke="black" points="327.62,-31.38 327.62,-52.62 279.52,-64 215.56,-64 167.46,-52.62 167.46,-31.38 215.56,-20 279.52,-20 327.62,-31.38"/>
<polygon fill="none" stroke="black" points="331.62,-28.22 331.62,-55.78 279.99,-68 215.09,-68 163.46,-55.78 163.46,-28.22 215.09,-16 279.99,-16 331.62,-28.22"/>
<text xml:space="preserve" text-anchor="middle" x="247.54" y="-36.95" font-family="Times New Roman,serif" font-size="14.00">Module Library</text>
</g>
<!-- legendNode0&#45;&gt;legendNode3 -->
<!-- legendNode7 -->
<g id="node8" class="node">
<title>legendNode7</title>
<polygon fill="none" stroke="black" points="295.67,-122 199.42,-122 199.42,-86 295.67,-86 295.67,-122"/>
<text xml:space="preserve" text-anchor="middle" x="247.54" y="-98.95" font-family="Times New Roman,serif" font-size="14.00">Custom Target</text>
</g>
<!-- legendNode0&#45;&gt;legendNode7 -->
<!-- legendNode4 -->
<g id="node5" class="node">
<title>legendNode4</title>
<polygon fill="none" stroke="black" points="598.24,-163.56 506.93,-176 415.62,-163.56 450.5,-143.44 563.36,-143.44 598.24,-163.56"/>
<text xml:space="preserve" text-anchor="middle" x="506.93" y="-152.95" font-family="Times New Roman,serif" font-size="14.00">Interface Library</text>
</g>
<!-- legendNode1&#45;&gt;legendNode4 -->
<g id="edge4" class="edge">
<title>legendNode1&#45;&gt;legendNode4</title>
<path fill="none" stroke="black" stroke-dasharray="5,2" d="M315.16,-158C345.01,-158 380.71,-158 413.12,-158"/>
<polygon fill="black" stroke="black" points="412.91,-161.5 422.91,-158 412.91,-154.5 412.91,-161.5"/>
<text xml:space="preserve" text-anchor="middle" x="373.62" y="-161.2" font-family="Times New Roman,serif" font-size="14.00">Interface</text>
</g>
<!-- legendNode5 -->
<g id="node6" class="node">
<title>legendNode5</title>
<polygon fill="none" stroke="black" points="582.77,-216 544.85,-234 469.01,-234 431.09,-216 469.01,-198 544.85,-198 582.77,-216"/>
<text xml:space="preserve" text-anchor="middle" x="506.93" y="-210.95" font-family="Times New Roman,serif" font-size="14.00">Object Library</text>
</g>
<!-- legendNode2&#45;&gt;legendNode5 -->
<g id="edge5" class="edge">
<title>legendNode2&#45;&gt;legendNode5</title>
<path fill="none" stroke="black" stroke-dasharray="1,5" d="M324.03,-216C353.75,-216 388.07,-216 418.84,-216"/>
<polygon fill="black" stroke="black" points="418.49,-219.5 428.49,-216 418.49,-212.5 418.49,-219.5"/>
<text xml:space="preserve" text-anchor="middle" x="373.62" y="-219.2" font-family="Times New Roman,serif" font-size="14.00">Private</text>
</g>
<!-- legendNode6 -->
<g id="node7" class="node">
<title>legendNode6</title>
<polygon fill="none" stroke="black" points="592.9,-37.99 575.87,-53.22 506.93,-60 437.99,-53.22 420.96,-37.99 468.67,-25.78 545.19,-25.78 592.9,-37.99"/>
<text xml:space="preserve" text-anchor="middle" x="506.93" y="-36.95" font-family="Times New Roman,serif" font-size="14.00">Unknown Library</text>
</g>
<!-- legendNode3&#45;&gt;legendNode6 -->
<g id="edge6" class="edge">
<title>legendNode3&#45;&gt;legendNode6</title>
<path fill="none" stroke="black" d="M332.11,-42C358.18,-42 387.08,-42 413.72,-42"/>
<polygon fill="black" stroke="black" points="413.46,-45.5 423.46,-42 413.46,-38.5 413.46,-45.5"/>
</g>
<!-- node0 -->
<g id="node9" class="node">
<title>node0</title>
<polygon fill="none" stroke="black" points="75.48,-536.05 78.3,-536.15 81.09,-536.3 83.83,-536.49 86.53,-536.74 89.16,-537.03 91.72,-537.36 94.2,-537.75 96.58,-538.18 98.87,-538.65 101.04,-539.16 103.1,-539.71 105.03,-540.31 106.84,-540.94 108.5,-541.61 110.03,-542.31 111.42,-543.04 112.66,-543.8 113.75,-544.59 114.69,-545.41 115.48,-546.25 116.12,-547.11 116.61,-547.99 116.95,-548.89 117.14,-549.8 117.2,-550.72 117.11,-551.65 116.89,-552.59 116.53,-553.53 116.05,-554.47 115.45,-555.41 114.74,-556.35 113.91,-557.28 112.98,-558.2 111.96,-559.11 110.84,-560.01 109.64,-560.89 108.36,-561.75 107,-562.59 105.58,-563.41 104.1,-564.2 102.57,-564.96 100.98,-565.69 99.35,-566.39 97.69,-567.06 95.98,-567.69 94.25,-568.29 92.49,-568.84 90.7,-569.35 88.9,-569.82 87.08,-570.25 85.24,-570.64 83.4,-570.97 81.54,-571.26 79.67,-571.51 77.8,-571.7 75.93,-571.85 74.05,-571.95 72.17,-572 70.29,-572 68.41,-571.95 66.53,-571.85 64.66,-571.7 62.79,-571.51 60.92,-571.26 59.07,-570.97 57.22,-570.64 55.38,-570.25 53.56,-569.82 51.76,-569.35 49.98,-568.84 48.21,-568.29 46.48,-567.69 44.78,-567.06 43.11,-566.39 41.48,-565.69 39.89,-564.96 38.36,-564.2 36.88,-563.41 35.46,-562.59 34.1,-561.75 32.82,-560.89 31.62,-560.01 30.5,-559.11 29.48,-558.2 28.55,-557.28 27.72,-556.35 27.01,-555.41 26.41,-554.47 25.93,-553.53 25.57,-552.59 25.35,-551.65 25.27,-550.72 25.32,-549.8 25.51,-548.89 25.86,-547.99 26.34,-547.11 26.98,-546.25 27.77,-545.41 28.71,-544.59 29.8,-543.8 31.04,-543.04 32.43,-542.31 33.96,-541.61 35.63,-540.94 37.43,-540.31 39.36,-539.71 41.42,-539.16 43.6,-538.65 45.88,-538.18 48.26,-537.75 50.74,-537.36 53.3,-537.03 55.93,-536.74 58.63,-536.49 61.37,-536.3 64.16,-536.15 66.98,-536.05 69.81,-536 72.65,-536 75.48,-536.05"/>
<text xml:space="preserve" text-anchor="middle" x="71.23" y="-548.95" font-family="Times New Roman,serif" font-size="14.00">Sandbox</text>
</g>
<!-- node0&#45;&gt;node0 -->
<g id="edge8" class="edge">
<title>node0&#45;&gt;node0</title>
<path fill="none" stroke="black" d="M58.17,-571.04C55.5,-580.86 59.85,-590 71.23,-590 77.81,-590 82.04,-586.94 83.92,-582.47"/>
<polygon fill="black" stroke="black" points="87.42,-582.66 84.25,-572.55 80.42,-582.43 87.42,-582.66"/>
</g>
<!-- node1 -->
<g id="node10" class="node">
<title>node1</title>
<polygon fill="none" stroke="black" points="329.36,-559.56 247.54,-572 165.72,-559.56 196.97,-539.44 298.11,-539.44 329.36,-559.56"/>
<text xml:space="preserve" text-anchor="middle" x="247.54" y="-548.95" font-family="Times New Roman,serif" font-size="14.00">rtr_engine_full</text>
</g>
<!-- node0&#45;&gt;node1 -->
<g id="edge47" class="edge">
<title>node0&#45;&gt;node1</title>
<path fill="none" stroke="black" stroke-dasharray="1,5" d="M116.67,-554C130.63,-554 146.53,-554 162.31,-554"/>
<polygon fill="black" stroke="black" points="162.23,-557.5 172.23,-554 162.23,-550.5 162.23,-557.5"/>
</g>
<!-- node2 -->
<g id="node11" class="node">
<title>node2</title>
<polygon fill="none" stroke="black" points="583.56,-644.54 583.56,-659.46 538.67,-670 475.19,-670 430.3,-659.46 430.3,-644.54 475.19,-634 538.67,-634 583.56,-644.54"/>
<text xml:space="preserve" text-anchor="middle" x="506.93" y="-646.95" font-family="Times New Roman,serif" font-size="14.00">rtr_assets_client</text>
</g>
<!-- node1&#45;&gt;node2 -->
<g id="edge16" class="edge">
<title>node1&#45;&gt;node2</title>
<path fill="none" stroke="black" stroke-dasharray="5,2" d="M282.99,-567.12C326.85,-583.82 403.06,-612.83 453.99,-632.22"/>
<polygon fill="black" stroke="black" points="452.45,-635.38 463.04,-635.67 454.94,-628.84 452.45,-635.38"/>
</g>
<!-- node9 -->
<g id="node18" class="node">
<title>node9</title>
<polygon fill="none" stroke="black" points="592.55,-499.56 506.93,-512 421.31,-499.56 454.02,-479.44 559.84,-479.44 592.55,-499.56"/>
<text xml:space="preserve" text-anchor="middle" x="506.93" y="-488.95" font-family="Times New Roman,serif" font-size="14.00">rtr_engine_core</text>
</g>
<!-- node1&#45;&gt;node9 -->
<g id="edge42" class="edge">
<title>node1&#45;&gt;node9</title>
<path fill="none" stroke="black" stroke-dasharray="5,2" d="M302.19,-541.5C344.34,-531.67 403,-517.99 446.56,-507.84"/>
<polygon fill="black" stroke="black" points="447.15,-511.3 456.09,-505.62 445.56,-504.48 447.15,-511.3"/>
</g>
<!-- node11 -->
<g id="node20" class="node">
<title>node11</title>
<polygon fill="none" stroke="black" points="926.7,-268.54 926.7,-283.46 897.39,-294 855.93,-294 826.62,-283.46 826.62,-268.54 855.93,-258 897.39,-258 926.7,-268.54"/>
<text xml:space="preserve" text-anchor="middle" x="876.66" y="-270.95" font-family="Times New Roman,serif" font-size="14.00">rtr_imgui</text>
</g>
<!-- node1&#45;&gt;node11 -->
<g id="edge43" class="edge">
<title>node1&#45;&gt;node11</title>
<path fill="none" stroke="black" stroke-dasharray="5,2" d="M269.23,-539.16C325.33,-499.62 486.13,-390.69 635.24,-332 694.43,-308.7 765.81,-293.59 815.35,-285.01"/>
<polygon fill="black" stroke="black" points="815.74,-288.49 825.01,-283.38 814.57,-281.59 815.74,-288.49"/>
</g>
<!-- node23 -->
<g id="node32" class="node">
<title>node23</title>
<polygon fill="none" stroke="black" points="936.12,-569.54 936.12,-584.46 901.29,-595 852.03,-595 817.2,-584.46 817.2,-569.54 852.03,-559 901.29,-559 936.12,-569.54"/>
<text xml:space="preserve" text-anchor="middle" x="876.66" y="-571.95" font-family="Times New Roman,serif" font-size="14.00">rtr_renderer</text>
</g>
<!-- node1&#45;&gt;node23 -->
<g id="edge46" class="edge">
<title>node1&#45;&gt;node23</title>
<path fill="none" stroke="black" stroke-dasharray="5,2" d="M325.75,-556.83C448.69,-561.34 687.08,-570.08 805.45,-574.43"/>
<polygon fill="black" stroke="black" points="805.24,-577.92 815.36,-574.79 805.49,-570.92 805.24,-577.92"/>
</g>
<!-- node3 -->
<g id="node12" class="node">
<title>node3</title>
<polygon fill="none" stroke="black" points="778.54,-607.54 778.54,-622.46 736.57,-633 677.21,-633 635.24,-622.46 635.24,-607.54 677.21,-597 736.57,-597 778.54,-607.54"/>
<text xml:space="preserve" text-anchor="middle" x="706.89" y="-609.95" font-family="Times New Roman,serif" font-size="14.00">rtr_assets_core</text>
</g>
<!-- node2&#45;&gt;node3 -->
<g id="edge13" class="edge">
<title>node2&#45;&gt;node3</title>
<path fill="none" stroke="black" d="M568.94,-640.6C590.22,-636.62 614.27,-632.13 636.2,-628.03"/>
<polygon fill="black" stroke="black" points="636.78,-631.48 645.96,-626.2 635.49,-624.6 636.78,-631.48"/>
</g>
<!-- node4 -->
<g id="node13" class="node">
<title>node4</title>
<polygon fill="none" stroke="black" points="1106.44,-511.54 1106.44,-526.46 1081.02,-537 1045.07,-537 1019.65,-526.46 1019.65,-511.54 1045.07,-501 1081.02,-501 1106.44,-511.54"/>
<text xml:space="preserve" text-anchor="middle" x="1063.05" y="-513.95" font-family="Times New Roman,serif" font-size="14.00">rtr_core</text>
</g>
<!-- node2&#45;&gt;node4 -->
<g id="edge14" class="edge">
<title>node2&#45;&gt;node4</title>
<path fill="none" stroke="black" d="M575.56,-661.75C663.05,-671.38 818.39,-678.14 937.78,-627 979.62,-609.08 1017.48,-571.67 1040.13,-545.95"/>
<polygon fill="black" stroke="black" points="1042.64,-548.4 1046.51,-538.54 1037.33,-543.84 1042.64,-548.4"/>
</g>
<!-- node8 -->
<g id="node17" class="node">
<title>node8</title>
<polygon fill="none" stroke="black" points="733.89,-699.54 733.89,-714.46 718.07,-725 695.7,-725 679.89,-714.46 679.89,-699.54 695.7,-689 718.07,-689 733.89,-699.54"/>
<text xml:space="preserve" text-anchor="middle" x="706.89" y="-701.95" font-family="Times New Roman,serif" font-size="14.00">stb</text>
</g>
<!-- node2&#45;&gt;node8 -->
<g id="edge15" class="edge">
<title>node2&#45;&gt;node8</title>
<path fill="none" stroke="black" stroke-dasharray="1,5" d="M557.88,-665.88C592.36,-675.46 637.46,-687.99 668.77,-696.69"/>
<polygon fill="black" stroke="black" points="667.61,-700 678.18,-699.3 669.48,-693.25 667.61,-700"/>
</g>
<!-- node3&#45;&gt;node4 -->
<g id="edge12" class="edge">
<title>node3&#45;&gt;node4</title>
<path fill="none" stroke="black" d="M778.88,-621.45C825.28,-623.29 886.55,-621.2 937.78,-604 975.13,-591.46 1011.58,-564.22 1035.24,-543.93"/>
<polygon fill="black" stroke="black" points="1037.32,-546.77 1042.52,-537.54 1032.7,-541.51 1037.32,-546.77"/>
</g>
<!-- node5 -->
<g id="node14" class="node">
<title>node5</title>
<polygon fill="none" stroke="black" points="1373.57,-511.54 1373.57,-526.46 1332.25,-537 1273.81,-537 1232.49,-526.46 1232.49,-511.54 1273.81,-501 1332.25,-501 1373.57,-511.54"/>
<polygon fill="none" stroke="black" points="1377.57,-508.44 1377.57,-529.56 1332.75,-541 1273.31,-541 1228.49,-529.56 1228.49,-508.44 1273.31,-497 1332.75,-497 1377.57,-508.44"/>
<text xml:space="preserve" text-anchor="middle" x="1303.03" y="-513.95" font-family="Times New Roman,serif" font-size="14.00">spdlog::spdlog</text>
</g>
<!-- node4&#45;&gt;node5 -->
<g id="edge11" class="edge">
<title>node4&#45;&gt;node5</title>
<path fill="none" stroke="black" d="M1106.87,-519C1137.43,-519 1179.56,-519 1216.85,-519"/>
<polygon fill="black" stroke="black" points="1216.74,-522.5 1226.74,-519 1216.74,-515.5 1216.74,-522.5"/>
</g>
<!-- node6 -->
<g id="node15" class="node">
<title>node6</title>
<polygon fill="none" stroke="black" points="1641.16,-553.56 1547.96,-566 1454.75,-553.56 1490.35,-533.44 1605.56,-533.44 1641.16,-553.56"/>
<text xml:space="preserve" text-anchor="middle" x="1547.96" y="-542.95" font-family="Times New Roman,serif" font-size="14.00">Threads::Threads</text>
</g>
<!-- node5&#45;&gt;node6 -->
<g id="edge9" class="edge">
<title>node5&#45;&gt;node6</title>
<path fill="none" stroke="black" stroke-dasharray="5,2" d="M1377.91,-527.82C1406.13,-531.19 1438.42,-535.04 1467.16,-538.47"/>
<polygon fill="black" stroke="black" points="1466.56,-541.93 1476.9,-539.64 1467.39,-534.98 1466.56,-541.93"/>
</g>
<!-- node7 -->
<g id="node16" class="node">
<title>node7</title>
<polygon fill="none" stroke="black" points="1594.12,-482.54 1594.12,-497.46 1567.08,-508 1528.83,-508 1501.79,-497.46 1501.79,-482.54 1528.83,-472 1567.08,-472 1594.12,-482.54"/>
<polygon fill="none" stroke="black" points="1598.12,-479.81 1598.12,-500.19 1567.83,-512 1528.08,-512 1497.79,-500.19 1497.79,-479.81 1528.08,-468 1567.83,-468 1598.12,-479.81"/>
<text xml:space="preserve" text-anchor="middle" x="1547.96" y="-484.95" font-family="Times New Roman,serif" font-size="14.00">fmt::fmt</text>
</g>
<!-- node5&#45;&gt;node7 -->
<g id="edge10" class="edge">
<title>node5&#45;&gt;node7</title>
<path fill="none" stroke="black" stroke-dasharray="5,2" d="M1377.91,-510.18C1412.62,-506.04 1453.49,-501.16 1486.35,-497.23"/>
<polygon fill="black" stroke="black" points="1486.6,-500.73 1496.11,-496.07 1485.77,-493.78 1486.6,-500.73"/>
</g>
<!-- node9&#45;&gt;node3 -->
<g id="edge34" class="edge">
<title>node9&#45;&gt;node3</title>
<path fill="none" stroke="black" stroke-dasharray="5,2" d="M531.81,-508.6C565.18,-528.99 626.17,-566.28 666.38,-590.85"/>
<polygon fill="black" stroke="black" points="664.47,-593.78 674.83,-596.01 668.12,-587.81 664.47,-593.78"/>
</g>
<!-- node10 -->
<g id="node19" class="node">
<title>node10</title>
<polygon fill="none" stroke="black" points="777.43,-351.54 777.43,-366.46 736.11,-377 677.67,-377 636.35,-366.46 636.35,-351.54 677.67,-341 736.11,-341 777.43,-351.54"/>
<text xml:space="preserve" text-anchor="middle" x="706.89" y="-353.95" font-family="Times New Roman,serif" font-size="14.00">rtr_application</text>
</g>
<!-- node9&#45;&gt;node10 -->
<g id="edge33" class="edge">
<title>node9&#45;&gt;node10</title>
<path fill="none" stroke="black" stroke-dasharray="5,2" d="M520.57,-479.25C539.5,-457.94 577.18,-418.43 616.24,-394 626.65,-387.49 638.48,-381.83 650.04,-377.07"/>
<polygon fill="black" stroke="black" points="651.1,-380.42 659.13,-373.51 648.55,-373.9 651.1,-380.42"/>
</g>
<!-- node17 -->
<g id="node26" class="node">
<title>node17</title>
<polygon fill="none" stroke="black" points="937.78,-349.54 937.78,-364.46 901.98,-375 851.34,-375 815.54,-364.46 815.54,-349.54 851.34,-339 901.98,-339 937.78,-349.54"/>
<text xml:space="preserve" text-anchor="middle" x="876.66" y="-351.95" font-family="Times New Roman,serif" font-size="14.00">rtr_platform</text>
</g>
<!-- node9&#45;&gt;node17 -->
<g id="edge35" class="edge">
<title>node9&#45;&gt;node17</title>
<path fill="none" stroke="black" stroke-dasharray="5,2" d="M548.34,-478.95C616.3,-453.62 753.26,-402.6 826.62,-375.27"/>
<polygon fill="black" stroke="black" points="827.83,-378.55 835.98,-371.78 825.39,-371.99 827.83,-378.55"/>
</g>
<!-- node20 -->
<g id="node29" class="node">
<title>node20</title>
<polygon fill="none" stroke="black" points="925.04,-477.54 925.04,-492.46 896.7,-503 856.62,-503 828.28,-492.46 828.28,-477.54 856.62,-467 896.7,-467 925.04,-477.54"/>
<text xml:space="preserve" text-anchor="middle" x="876.66" y="-479.95" font-family="Times New Roman,serif" font-size="14.00">rtr_scene</text>
</g>
<!-- node9&#45;&gt;node20 -->
<g id="edge38" class="edge">
<title>node9&#45;&gt;node20</title>
<path fill="none" stroke="black" stroke-dasharray="5,2" d="M581.46,-492.2C650.52,-490.51 752.54,-488.01 816.49,-486.45"/>
<polygon fill="black" stroke="black" points="816.55,-489.95 826.46,-486.2 816.37,-482.95 816.55,-489.95"/>
</g>
<!-- node22 -->
<g id="node31" class="node">
<title>node22</title>
<polygon fill="none" stroke="black" points="757.48,-515.54 757.48,-530.46 727.85,-541 685.93,-541 656.29,-530.46 656.29,-515.54 685.93,-505 727.85,-505 757.48,-515.54"/>
<text xml:space="preserve" text-anchor="middle" x="706.89" y="-517.95" font-family="Times New Roman,serif" font-size="14.00">rtr_server</text>
</g>
<!-- node9&#45;&gt;node22 -->
<g id="edge41" class="edge">
<title>node9&#45;&gt;node22</title>
<path fill="none" stroke="black" stroke-dasharray="5,2" d="M570.84,-503.22C594.48,-506.68 621.3,-510.61 644.78,-514.05"/>
<polygon fill="black" stroke="black" points="644.11,-517.49 654.51,-515.47 645.12,-510.56 644.11,-517.49"/>
</g>
<!-- node10&#45;&gt;node4 -->
<g id="edge17" class="edge">
<title>node10&#45;&gt;node4</title>
<path fill="none" stroke="black" d="M746.38,-374.89C792.25,-393.98 871.07,-427.29 937.78,-458 967.2,-471.54 1000.08,-487.73 1024.62,-500.03"/>
<polygon fill="black" stroke="black" points="1022.74,-503 1033.24,-504.36 1025.88,-496.74 1022.74,-503"/>
</g>
<!-- node10&#45;&gt;node11 -->
<g id="edge26" class="edge">
<title>node10&#45;&gt;node11</title>
<path fill="none" stroke="black" d="M741.84,-342.2C768.96,-328.79 807.02,-309.96 835.62,-295.81"/>
<polygon fill="black" stroke="black" points="836.93,-299.07 844.34,-291.49 833.82,-292.79 836.93,-299.07"/>
</g>
<!-- node10&#45;&gt;node17 -->
<g id="edge32" class="edge">
<title>node10&#45;&gt;node17</title>
<path fill="none" stroke="black" d="M777.58,-358.17C786.28,-358.07 795.19,-357.96 803.92,-357.86"/>
<polygon fill="black" stroke="black" points="803.79,-361.36 813.75,-357.74 803.71,-354.36 803.79,-361.36"/>
</g>
<!-- node11&#45;&gt;node4 -->
<g id="edge21" class="edge">
<title>node11&#45;&gt;node4</title>
<path fill="none" stroke="black" d="M902.07,-292.74C914.39,-302.33 928.63,-315.37 937.78,-330 969.42,-380.56 939.93,-410.59 974.78,-459 987.17,-476.21 1006.12,-490.1 1023.19,-500.16"/>
<polygon fill="black" stroke="black" points="1021.21,-503.06 1031.64,-504.89 1024.63,-496.95 1021.21,-503.06"/>
</g>
<!-- node12 -->
<g id="node21" class="node">
<title>node12</title>
<polygon fill="none" stroke="black" points="1338.67,-194.54 1338.67,-209.46 1317.79,-220 1288.27,-220 1267.39,-209.46 1267.39,-194.54 1288.27,-184 1317.79,-184 1338.67,-194.54"/>
<text xml:space="preserve" text-anchor="middle" x="1303.03" y="-196.95" font-family="Times New Roman,serif" font-size="14.00">imgui</text>
</g>
<!-- node11&#45;&gt;node12 -->
<g id="edge18" class="edge">
<title>node11&#45;&gt;node12</title>
<path fill="none" stroke="black" d="M900.63,-258.96C919.49,-245.99 947.46,-229.05 974.78,-221 1071.65,-192.45 1191.47,-194.35 1255.87,-198.2"/>
<polygon fill="black" stroke="black" points="1255.52,-201.69 1265.73,-198.84 1255.97,-194.7 1255.52,-201.69"/>
</g>
<!-- node13 -->
<g id="node22" class="node">
<title>node13</title>
<polygon fill="none" stroke="black" points="1101.46,-148.54 1101.46,-163.46 1078.96,-174 1047.14,-174 1024.64,-163.46 1024.64,-148.54 1047.14,-138 1078.96,-138 1101.46,-148.54"/>
<text xml:space="preserve" text-anchor="middle" x="1063.05" y="-150.95" font-family="Times New Roman,serif" font-size="14.00">implot</text>
</g>
<!-- node11&#45;&gt;node13 -->
<g id="edge20" class="edge">
<title>node11&#45;&gt;node13</title>
<path fill="none" stroke="black" d="M889.24,-257.79C902.84,-237.84 927.2,-206.26 955.78,-188 973,-176.99 994.2,-169.61 1013.12,-164.75"/>
<polygon fill="black" stroke="black" points="1013.86,-168.17 1022.78,-162.45 1012.24,-161.36 1013.86,-168.17"/>
</g>
<!-- node14 -->
<g id="node23" class="node">
<title>node14</title>
<polygon fill="none" stroke="black" points="1151.31,-240.54 1151.31,-255.46 1099.61,-266 1026.49,-266 974.78,-255.46 974.78,-240.54 1026.49,-230 1099.61,-230 1151.31,-240.54"/>
<text xml:space="preserve" text-anchor="middle" x="1063.05" y="-242.95" font-family="Times New Roman,serif" font-size="14.00">rtr_imgui_backend</text>
</g>
<!-- node11&#45;&gt;node14 -->
<g id="edge25" class="edge">
<title>node11&#45;&gt;node14</title>
<path fill="none" stroke="black" stroke-dasharray="1,5" d="M927.07,-268.5C942.99,-266.08 961.08,-263.33 978.75,-260.65"/>
<polygon fill="black" stroke="black" points="979.1,-264.14 988.46,-259.17 978.05,-257.22 979.1,-264.14"/>
</g>
<!-- node13&#45;&gt;node12 -->
<g id="edge19" class="edge">
<title>node13&#45;&gt;node12</title>
<path fill="none" stroke="black" d="M1101.76,-163.29C1143.59,-171.38 1211.11,-184.43 1256.02,-193.11"/>
<polygon fill="black" stroke="black" points="1255.24,-196.52 1265.72,-194.98 1256.57,-189.65 1255.24,-196.52"/>
</g>
<!-- node14&#45;&gt;node12 -->
<g id="edge24" class="edge">
<title>node14&#45;&gt;node12</title>
<path fill="none" stroke="black" d="M1128.76,-235.49C1169,-227.71 1219.78,-217.9 1255.95,-210.91"/>
<polygon fill="black" stroke="black" points="1256.5,-214.37 1265.66,-209.03 1255.17,-207.49 1256.5,-214.37"/>
</g>
<!-- node15 -->
<g id="node24" class="node">
<title>node15</title>
<polygon fill="none" stroke="black" points="1332.02,-250.54 1332.02,-265.46 1315.04,-276 1291.02,-276 1274.04,-265.46 1274.04,-250.54 1291.02,-240 1315.04,-240 1332.02,-250.54"/>
<text xml:space="preserve" text-anchor="middle" x="1303.03" y="-252.95" font-family="Times New Roman,serif" font-size="14.00">glad</text>
</g>
<!-- node14&#45;&gt;node15 -->
<g id="edge22" class="edge">
<title>node14&#45;&gt;node15</title>
<path fill="none" stroke="black" stroke-dasharray="1,5" d="M1151.65,-251.68C1189.68,-253.28 1232.31,-255.07 1262.44,-256.34"/>
<polygon fill="black" stroke="black" points="1262.09,-259.82 1272.23,-256.75 1262.38,-252.83 1262.09,-259.82"/>
</g>
<!-- node16 -->
<g id="node25" class="node">
<title>node16</title>
<polygon fill="none" stroke="black" points="1333.13,-310.54 1333.13,-325.46 1315.5,-336 1290.56,-336 1272.93,-325.46 1272.93,-310.54 1290.56,-300 1315.5,-300 1333.13,-310.54"/>
<polygon fill="none" stroke="black" points="1337.13,-308.28 1337.13,-327.72 1316.6,-340 1289.46,-340 1268.93,-327.72 1268.93,-308.28 1289.46,-296 1316.6,-296 1337.13,-308.28"/>
<text xml:space="preserve" text-anchor="middle" x="1303.03" y="-312.95" font-family="Times New Roman,serif" font-size="14.00">glfw</text>
</g>
<!-- node14&#45;&gt;node16 -->
<g id="edge23" class="edge">
<title>node14&#45;&gt;node16</title>
<path fill="none" stroke="black" stroke-dasharray="1,5" d="M1115.11,-263.29C1137.56,-269.99 1164.23,-277.92 1188.31,-285 1211.22,-291.73 1236.74,-299.15 1257.8,-305.24"/>
<polygon fill="black" stroke="black" points="1256.64,-308.55 1267.22,-307.97 1258.59,-301.83 1256.64,-308.55"/>
</g>
<!-- node17&#45;&gt;node4 -->
<g id="edge31" class="edge">
<title>node17&#45;&gt;node4</title>
<path fill="none" stroke="black" d="M893.12,-375.42C911.46,-396.75 943.52,-432.34 974.78,-459 991.39,-473.16 1011.36,-487.09 1028,-497.96"/>
<polygon fill="black" stroke="black" points="1025.78,-500.7 1036.09,-503.16 1029.57,-494.81 1025.78,-500.7"/>
</g>
<!-- node17&#45;&gt;node15 -->
<g id="edge27" class="edge">
<title>node17&#45;&gt;node15</title>
<path fill="none" stroke="black" stroke-dasharray="1,5" d="M919.52,-343.71C936.58,-338.5 956.54,-332.67 974.78,-328 1077.89,-301.62 1201.01,-277.15 1262.7,-265.36"/>
<polygon fill="black" stroke="black" points="1263.18,-268.84 1272.35,-263.53 1261.87,-261.96 1263.18,-268.84"/>
</g>
<!-- node17&#45;&gt;node16 -->
<g id="edge28" class="edge">
<title>node17&#45;&gt;node16</title>
<path fill="none" stroke="black" stroke-dasharray="1,5" d="M938.01,-351.45C1024.31,-343.52 1180.98,-329.12 1257.53,-322.09"/>
<polygon fill="black" stroke="black" points="1257.52,-325.61 1267.16,-321.2 1256.88,-318.63 1257.52,-325.61"/>
</g>
<!-- node18 -->
<g id="node27" class="node">
<title>node18</title>
<polygon fill="none" stroke="black" points="1112.54,-370.54 1112.54,-385.46 1083.55,-396 1042.55,-396 1013.56,-385.46 1013.56,-370.54 1042.55,-360 1083.55,-360 1112.54,-370.54"/>
<text xml:space="preserve" text-anchor="middle" x="1063.05" y="-372.95" font-family="Times New Roman,serif" font-size="14.00">glm::glm</text>
</g>
<!-- node17&#45;&gt;node18 -->
<g id="edge30" class="edge">
<title>node17&#45;&gt;node18</title>
<path fill="none" stroke="black" d="M938.03,-363.88C958.5,-366.21 981.35,-368.81 1001.8,-371.14"/>
<polygon fill="black" stroke="black" points="1001.37,-374.61 1011.7,-372.27 1002.17,-367.66 1001.37,-374.61"/>
</g>
<!-- node19 -->
<g id="node28" class="node">
<title>node19</title>
<polygon fill="none" stroke="black" points="1417.75,-383.56 1303.03,-396 1188.31,-383.56 1232.13,-363.44 1373.93,-363.44 1417.75,-383.56"/>
<text xml:space="preserve" text-anchor="middle" x="1303.03" y="-372.95" font-family="Times New Roman,serif" font-size="14.00">glm::glm&#45;header&#45;only</text>
</g>
<!-- node18&#45;&gt;node19 -->
<g id="edge29" class="edge">
<title>node18&#45;&gt;node19</title>
<path fill="none" stroke="black" stroke-dasharray="5,2" d="M1112.78,-378C1134.67,-378 1161.51,-378 1188.02,-378"/>
<polygon fill="black" stroke="black" points="1187.83,-381.5 1197.83,-378 1187.83,-374.5 1187.83,-381.5"/>
</g>
<!-- node20&#45;&gt;node4 -->
<g id="edge37" class="edge">
<title>node20&#45;&gt;node4</title>
<path fill="none" stroke="black" d="M923.24,-493.4C948.99,-498.15 981.33,-504.12 1008.32,-509.09"/>
<polygon fill="black" stroke="black" points="1007.56,-512.51 1018.03,-510.88 1008.83,-505.63 1007.56,-512.51"/>
</g>
<!-- node21 -->
<g id="node30" class="node">
<title>node21</title>
<polygon fill="none" stroke="black" points="1135.38,-437.56 1063.05,-450 990.72,-437.56 1018.34,-417.44 1107.75,-417.44 1135.38,-437.56"/>
<text xml:space="preserve" text-anchor="middle" x="1063.05" y="-426.95" font-family="Times New Roman,serif" font-size="14.00">EnTT::EnTT</text>
</g>
<!-- node20&#45;&gt;node21 -->
<g id="edge36" class="edge">
<title>node20&#45;&gt;node21</title>
<path fill="none" stroke="black" stroke-dasharray="1,5" d="M916.31,-473.89C943.96,-465.94 981.45,-455.17 1011.48,-446.54"/>
<polygon fill="black" stroke="black" points="1012.07,-450.01 1020.72,-443.88 1010.14,-443.28 1012.07,-450.01"/>
</g>
<!-- node22&#45;&gt;node4 -->
<g id="edge39" class="edge">
<title>node22&#45;&gt;node4</title>
<path fill="none" stroke="black" d="M757.88,-522.44C823.94,-521.69 939.87,-520.38 1007.93,-519.61"/>
<polygon fill="black" stroke="black" points="1007.77,-523.11 1017.73,-519.5 1007.69,-516.11 1007.77,-523.11"/>
</g>
<!-- node22&#45;&gt;node20 -->
<g id="edge40" class="edge">
<title>node22&#45;&gt;node20</title>
<path fill="none" stroke="black" d="M751.53,-513.12C773.04,-508.24 799.18,-502.32 821.91,-497.17"/>
<polygon fill="black" stroke="black" points="822.65,-500.6 831.63,-494.97 821.1,-493.77 822.65,-500.6"/>
</g>
<!-- node23&#45;&gt;node4 -->
<g id="edge45" class="edge">
<title>node23&#45;&gt;node4</title>
<path fill="none" stroke="black" d="M919.04,-563.98C947.85,-554.92 986.29,-542.83 1016.06,-533.47"/>
<polygon fill="black" stroke="black" points="1017.07,-536.82 1025.56,-530.48 1014.97,-530.14 1017.07,-536.82"/>
</g>
<!-- node23&#45;&gt;node18 -->
<g id="edge44" class="edge">
<title>node23&#45;&gt;node18</title>
<path fill="none" stroke="black" d="M898.68,-558.55C911.46,-546.4 927.27,-529.54 937.78,-512 963.64,-468.83 938.62,-439.99 974.78,-405 982.56,-397.47 992.4,-392.04 1002.65,-388.12"/>
<polygon fill="black" stroke="black" points="1003.57,-391.5 1011.96,-385.03 1001.37,-384.85 1003.57,-391.5"/>
</g>
</g>
</svg>
