<?xml version="1.0" encoding="UTF-8" standalone="no"?>
<!DOCTYPE svg PUBLIC "-//W3C//DTD SVG 1.1//EN"
 "http://www.w3.org/Graphics/SVG/1.1/DTD/svg11.dtd">
<!-- Generated by graphviz version 14.1.5 (20260411.2331)
 -->
<!-- Title: RTR Engine Architecture Pages: 1 -->
<svg width="1509pt" height="669pt"
 viewBox="0.00 0.00 1509.00 669.00" xmlns="http://www.w3.org/2000/svg" xmlns:xlink="http://www.w3.org/1999/xlink">
<g id="graph0" class="graph" transform="scale(1 1) rotate(0) translate(4 665.33)">
<title>RTR Engine Architecture</title>
<polygon fill="white" stroke="none" points="-4,4 -4,-665.33 1505.12,-665.33 1505.12,4 -4,4"/>
<g id="clust1" class="cluster">
<title>clusterLegend</title>
<polygon fill="none" stroke="black" points="18.59,-8 18.59,-274 646.49,-274 646.49,-8 18.59,-8"/>
<text xml:space="preserve" text-anchor="middle" x="332.54" y="-256.7" font-family="Segoe UI" font-size="14.00">Legend</text>
</g>
<!-- legendNode0 -->
<g id="node1" class="node">
<title>legendNode0</title>
<polygon fill="none" stroke="black" points="86.93,-107.05 90.31,-107.15 93.66,-107.3 96.96,-107.49 100.2,-107.74 103.37,-108.03 106.44,-108.36 109.42,-108.75 112.28,-109.18 115.03,-109.65 117.64,-110.16 120.11,-110.71 122.43,-111.31 124.6,-111.94 126.61,-112.61 128.44,-113.31 130.11,-114.04 131.6,-114.8 132.91,-115.59 134.04,-116.41 134.99,-117.25 135.75,-118.11 136.34,-118.99 136.75,-119.89 136.99,-120.8 137.05,-121.72 136.95,-122.65 136.68,-123.59 136.25,-124.53 135.68,-125.47 134.96,-126.41 134.1,-127.35 133.11,-128.28 131.99,-129.2 130.76,-130.11 129.41,-131.01 127.97,-131.89 126.43,-132.75 124.8,-133.59 123.1,-134.41 121.32,-135.2 119.48,-135.96 117.57,-136.69 115.61,-137.39 113.61,-138.06 111.56,-138.69 109.48,-139.29 107.36,-139.84 105.22,-140.35 103.05,-140.82 100.86,-141.25 98.66,-141.64 96.44,-141.97 94.21,-142.26 91.97,-142.51 89.72,-142.7 87.47,-142.85 85.21,-142.95 82.95,-143 80.69,-143 78.43,-142.95 76.17,-142.85 73.92,-142.7 71.67,-142.51 69.43,-142.26 67.2,-141.97 64.98,-141.64 62.78,-141.25 60.59,-140.82 58.42,-140.35 56.28,-139.84 54.16,-139.29 52.08,-138.69 50.03,-138.06 48.03,-137.39 46.07,-136.69 44.16,-135.96 42.32,-135.2 40.54,-134.41 38.84,-133.59 37.21,-132.75 35.67,-131.89 34.23,-131.01 32.88,-130.11 31.65,-129.2 30.53,-128.28 29.54,-127.35 28.68,-126.41 27.96,-125.47 27.39,-124.53 26.96,-123.59 26.69,-122.65 26.59,-121.72 26.65,-120.8 26.89,-119.89 27.3,-118.99 27.89,-118.11 28.65,-117.25 29.6,-116.41 30.73,-115.59 32.04,-114.8 33.53,-114.04 35.2,-113.31 37.03,-112.61 39.04,-111.94 41.21,-111.31 43.53,-110.71 46,-110.16 48.61,-109.65 51.36,-109.18 54.22,-108.75 57.2,-108.36 60.28,-108.03 63.44,-107.74 66.68,-107.49 69.98,-107.3 73.33,-107.15 76.71,-107.05 80.11,-107 83.53,-107 86.93,-107.05"/>
<text xml:space="preserve" text-anchor="middle" x="81.82" y="-119.95" font-family="Times New Roman,serif" font-size="14.00">Executable</text>
</g>
<!-- legendNode1 -->
<g id="node2" class="node">
<title>legendNode1</title>
<polygon fill="none" stroke="black" points="353.47,-26.54 353.47,-41.46 314.1,-52 258.41,-52 219.04,-41.46 219.04,-26.54 258.41,-16 314.1,-16 353.47,-26.54"/>
<text xml:space="preserve" text-anchor="middle" x="286.26" y="-28.95" font-family="Times New Roman,serif" font-size="14.00">Static Library</text>
</g>
<!-- legendNode0&#45;&gt;legendNode1 -->
<g id="edge1" class="edge">
<title>legendNode0&#45;&gt;legendNode1</title>
<path fill="none" stroke="black" d="M109.71,-108.49C133.13,-94.58 168.31,-74.79 200.64,-61 209.31,-57.3 218.65,-53.83 227.87,-50.69"/>
<polygon fill="black" stroke="black" points="228.73,-54.09 237.13,-47.64 226.54,-47.44 228.73,-54.09"/>
</g>
<!-- legendNode2 -->
<g id="node3" class="node">
<title>legendNode2</title>
<polygon fill="none" stroke="black" points="358.46,-84.54 358.46,-99.46 316.16,-110 256.35,-110 214.05,-99.46 214.05,-84.54 256.35,-74 316.16,-74 358.46,-84.54"/>
<polygon fill="none" stroke="black" points="362.46,-81.42 362.46,-102.58 316.65,-114 255.86,-114 210.05,-102.58 210.05,-81.42 255.86,-70 316.65,-70 362.46,-81.42"/>
<text xml:space="preserve" text-anchor="middle" x="286.26" y="-86.95" font-family="Times New Roman,serif" font-size="14.00">Shared Library</text>
</g>
<!-- legendNode0&#45;&gt;legendNode2 -->
<g id="edge2" class="edge">
<title>legendNode0&#45;&gt;legendNode2</title>
<path fill="none" stroke="black" d="M134.69,-116.54C155.03,-113.23 178.9,-109.34 201.56,-105.64"/>
<polygon fill="black" stroke="black" points="202.11,-109.1 211.42,-104.04 200.99,-102.19 202.11,-109.1"/>
</g>
<!-- legendNode3 -->
<g id="node4" class="node">
<title>legendNode3</title>
<polygon fill="none" stroke="black" points="362.34,-150.54 362.34,-165.46 317.77,-176 254.74,-176 210.18,-165.46 210.18,-150.54 254.74,-140 317.77,-140 362.34,-150.54"/>
<polygon fill="none" stroke="black" points="366.34,-147.38 366.34,-168.62 318.24,-180 254.28,-180 206.18,-168.62 206.18,-147.38 254.28,-136 318.24,-136 366.34,-147.38"/>
<polygon fill="none" stroke="black" points="370.34,-144.22 370.34,-171.78 318.7,-184 253.81,-184 202.18,-171.78 202.18,-144.22 253.81,-132 318.7,-132 370.34,-144.22"/>
<text xml:space="preserve" text-anchor="middle" x="286.26" y="-152.95" font-family="Times New Roman,serif" font-size="14.00">Module Library</text>
</g>
<!-- legendNode0&#45;&gt;legendNode3 -->
<!-- legendNode7 -->
<g id="node8" class="node">
<title>legendNode7</title>
<polygon fill="none" stroke="black" points="334.38,-238 238.13,-238 238.13,-202 334.38,-202 334.38,-238"/>
<text xml:space="preserve" text-anchor="middle" x="286.26" y="-214.95" font-family="Times New Roman,serif" font-size="14.00">Custom Target</text>
</g>
<!-- legendNode0&#45;&gt;legendNode7 -->
<!-- legendNode4 -->
<g id="node5" class="node">
<title>legendNode4</title>
<polygon fill="none" stroke="black" points="638.49,-39.56 547.18,-52 455.87,-39.56 490.75,-19.44 603.61,-19.44 638.49,-39.56"/>
<text xml:space="preserve" text-anchor="middle" x="547.18" y="-28.95" font-family="Times New Roman,serif" font-size="14.00">Interface Library</text>
</g>
<!-- legendNode1&#45;&gt;legendNode4 -->
<g id="edge4" class="edge">
<title>legendNode1&#45;&gt;legendNode4</title>
<path fill="none" stroke="black" stroke-dasharray="5,2" d="M353.94,-34C384.23,-34 420.57,-34 453.46,-34"/>
<polygon fill="black" stroke="black" points="453.43,-37.5 463.43,-34 453.42,-30.5 453.43,-37.5"/>
<text xml:space="preserve" text-anchor="middle" x="413.87" y="-37.2" font-family="Times New Roman,serif" font-size="14.00">Interface</text>
</g>
<!-- legendNode5 -->
<g id="node6" class="node">
<title>legendNode5</title>
<polygon fill="none" stroke="black" points="623.02,-92 585.1,-110 509.26,-110 471.34,-92 509.26,-74 585.1,-74 623.02,-92"/>
<text xml:space="preserve" text-anchor="middle" x="547.18" y="-86.95" font-family="Times New Roman,serif" font-size="14.00">Object Library</text>
</g>
<!-- legendNode2&#45;&gt;legendNode5 -->
<g id="edge5" class="edge">
<title>legendNode2&#45;&gt;legendNode5</title>
<path fill="none" stroke="black" stroke-dasharray="1,5" d="M362.84,-92C393.02,-92 427.95,-92 459.18,-92"/>
<polygon fill="black" stroke="black" points="458.99,-95.5 468.99,-92 458.99,-88.5 458.99,-95.5"/>
<text xml:space="preserve" text-anchor="middle" x="413.87" y="-95.2" font-family="Times New Roman,serif" font-size="14.00">Private</text>
</g>
<!-- legendNode6 -->
<g id="node7" class="node">
<title>legendNode6</title>
<polygon fill="none" stroke="black" points="633.15,-153.99 616.12,-169.22 547.18,-176 478.24,-169.22 461.21,-153.99 508.92,-141.78 585.44,-141.78 633.15,-153.99"/>
<text xml:space="preserve" text-anchor="middle" x="547.18" y="-152.95" font-family="Times New Roman,serif" font-size="14.00">Unknown Library</text>
</g>
<!-- legendNode3&#45;&gt;legendNode6 -->
<g id="edge6" class="edge">
<title>legendNode3&#45;&gt;legendNode6</title>
<path fill="none" stroke="black" d="M370.61,-158C397.13,-158 426.61,-158 453.73,-158"/>
<polygon fill="black" stroke="black" points="453.68,-161.5 463.68,-158 453.68,-154.5 453.68,-161.5"/>
</g>
<!-- node0 -->
<g id="node9" class="node">
<title>node0</title>
<polygon fill="none" stroke="black" points="86.17,-420.05 89.06,-420.15 91.91,-420.3 94.72,-420.49 97.48,-420.74 100.18,-421.03 102.8,-421.36 105.33,-421.75 107.77,-422.18 110.11,-422.65 112.34,-423.16 114.44,-423.71 116.42,-424.31 118.27,-424.94 119.98,-425.61 121.54,-426.31 122.96,-427.04 124.23,-427.8 125.35,-428.59 126.31,-429.41 127.12,-430.25 127.77,-431.11 128.27,-431.99 128.62,-432.89 128.82,-433.8 128.88,-434.72 128.79,-435.65 128.56,-436.59 128.2,-437.53 127.71,-438.47 127.09,-439.41 126.36,-440.35 125.51,-441.28 124.56,-442.2 123.51,-443.11 122.37,-444.01 121.14,-444.89 119.83,-445.75 118.44,-446.59 116.99,-447.41 115.47,-448.2 113.9,-448.96 112.28,-449.69 110.61,-450.39 108.9,-451.06 107.16,-451.69 105.38,-452.29 103.58,-452.84 101.75,-453.35 99.91,-453.82 98.04,-454.25 96.16,-454.64 94.27,-454.97 92.37,-455.26 90.46,-455.51 88.55,-455.7 86.63,-455.85 84.71,-455.95 82.78,-456 80.86,-456 78.93,-455.95 77.01,-455.85 75.09,-455.7 73.18,-455.51 71.27,-455.26 69.37,-454.97 67.48,-454.64 65.6,-454.25 63.73,-453.82 61.89,-453.35 60.06,-452.84 58.26,-452.29 56.48,-451.69 54.74,-451.06 53.03,-450.39 51.36,-449.69 49.74,-448.96 48.17,-448.2 46.65,-447.41 45.2,-446.59 43.81,-445.75 42.5,-444.89 41.27,-444.01 40.13,-443.11 39.08,-442.2 38.13,-441.28 37.28,-440.35 36.55,-439.41 35.93,-438.47 35.44,-437.53 35.08,-436.59 34.85,-435.65 34.76,-434.72 34.82,-433.8 35.02,-432.89 35.37,-431.99 35.87,-431.11 36.52,-430.25 37.33,-429.41 38.29,-428.59 39.41,-427.8 40.68,-427.04 42.1,-426.31 43.66,-425.61 45.37,-424.94 47.22,-424.31 49.2,-423.71 51.3,-423.16 53.53,-422.65 55.87,-422.18 58.31,-421.75 60.84,-421.36 63.46,-421.03 66.16,-420.74 68.92,-420.49 71.73,-420.3 74.58,-420.15 77.47,-420.05 80.37,-420 83.27,-420 86.17,-420.05"/>
<text xml:space="preserve" text-anchor="middle" x="81.82" y="-432.95" font-family="Times New Roman,serif" font-size="14.00">Headless</text>
</g>
<!-- node0&#45;&gt;node0 -->
<g id="edge8" class="edge">
<title>node0&#45;&gt;node0</title>
<path fill="none" stroke="black" d="M64.34,-454.29C60.12,-464.39 65.95,-474 81.82,-474 91.24,-474 97.13,-470.61 99.47,-465.74"/>
<polygon fill="black" stroke="black" points="102.97,-465.75 99.32,-455.8 95.97,-465.85 102.97,-465.75"/>
</g>
<!-- node1 -->
<g id="node10" class="node">
<title>node1</title>
<polygon fill="none" stroke="black" points="371.87,-443.56 286.26,-456 200.64,-443.56 233.34,-423.44 339.17,-423.44 371.87,-443.56"/>
<text xml:space="preserve" text-anchor="middle" x="286.26" y="-432.95" font-family="Times New Roman,serif" font-size="14.00">rtr_engine_core</text>
</g>
<!-- node0&#45;&gt;node1 -->
<g id="edge38" class="edge">
<title>node0&#45;&gt;node1</title>
<path fill="none" stroke="black" stroke-dasharray="1,5" d="M128.5,-438C148.94,-438 173.75,-438 197.55,-438"/>
<polygon fill="black" stroke="black" points="197.24,-441.5 207.24,-438 197.24,-434.5 197.24,-441.5"/>
</g>
<!-- node2 -->
<g id="node11" class="node">
<title>node2</title>
<polygon fill="none" stroke="black" points="617.72,-339.54 617.72,-354.46 576.4,-365 517.96,-365 476.64,-354.46 476.64,-339.54 517.96,-329 576.4,-329 617.72,-339.54"/>
<text xml:space="preserve" text-anchor="middle" x="547.18" y="-341.95" font-family="Times New Roman,serif" font-size="14.00">rtr_application</text>
</g>
<!-- node1&#45;&gt;node2 -->
<g id="edge28" class="edge">
<title>node1&#45;&gt;node2</title>
<path fill="none" stroke="black" stroke-dasharray="5,2" d="M309.56,-423.09C329.74,-410.21 360.7,-392 389.87,-381 415.79,-371.23 445.24,-363.91 471.54,-358.61"/>
<polygon fill="black" stroke="black" points="471.96,-362.1 481.11,-356.76 470.63,-355.22 471.96,-362.1"/>
</g>
<!-- node13 -->
<g id="node22" class="node">
<title>node13</title>
<polygon fill="none" stroke="black" points="797.74,-337.54 797.74,-352.46 761.93,-363 711.3,-363 675.49,-352.46 675.49,-337.54 711.3,-327 761.93,-327 797.74,-337.54"/>
<text xml:space="preserve" text-anchor="middle" x="736.61" y="-339.95" font-family="Times New Roman,serif" font-size="14.00">rtr_platform</text>
</g>
<!-- node1&#45;&gt;node13 -->
<g id="edge31" class="edge">
<title>node1&#45;&gt;node13</title>
<path fill="none" stroke="black" stroke-dasharray="5,2" d="M349.79,-429.54C421.9,-419.17 543.72,-399.75 646.49,-374 659.31,-370.79 672.96,-366.7 685.63,-362.61"/>
<polygon fill="black" stroke="black" points="686.63,-365.96 695.03,-359.51 684.44,-359.31 686.63,-365.96"/>
</g>
<!-- node16 -->
<g id="node25" class="node">
<title>node16</title>
<polygon fill="none" stroke="black" points="618.83,-563.54 618.83,-578.46 576.86,-589 517.5,-589 475.53,-578.46 475.53,-563.54 517.5,-553 576.86,-553 618.83,-563.54"/>
<text xml:space="preserve" text-anchor="middle" x="547.18" y="-565.95" font-family="Times New Roman,serif" font-size="14.00">rtr_assets_core</text>
</g>
<!-- node1&#45;&gt;node16 -->
<g id="edge30" class="edge">
<title>node1&#45;&gt;node16</title>
<path fill="none" stroke="black" stroke-dasharray="5,2" d="M314.97,-452.23C359.85,-475.29 448.82,-520.99 502.36,-548.49"/>
<polygon fill="black" stroke="black" points="500.73,-551.59 511.23,-553.04 503.93,-545.36 500.73,-551.59"/>
</g>
<!-- node17 -->
<g id="node26" class="node">
<title>node17</title>
<polygon fill="none" stroke="black" points="784.99,-429.54 784.99,-444.46 756.65,-455 716.57,-455 688.23,-444.46 688.23,-429.54 716.57,-419 756.65,-419 784.99,-429.54"/>
<text xml:space="preserve" text-anchor="middle" x="736.61" y="-431.95" font-family="Times New Roman,serif" font-size="14.00">rtr_scene</text>
</g>
<!-- node1&#45;&gt;node17 -->
<g id="edge34" class="edge">
<title>node1&#45;&gt;node17</title>
<path fill="none" stroke="black" stroke-dasharray="5,2" d="M363.31,-437.83C451.78,-437.63 595.94,-437.31 676.46,-437.13"/>
<polygon fill="black" stroke="black" points="676.36,-440.63 686.35,-437.11 676.34,-433.63 676.36,-440.63"/>
</g>
<!-- node19 -->
<g id="node28" class="node">
<title>node19</title>
<polygon fill="none" stroke="black" points="597.78,-471.54 597.78,-486.46 568.14,-497 526.22,-497 496.58,-486.46 496.58,-471.54 526.22,-461 568.14,-461 597.78,-471.54"/>
<text xml:space="preserve" text-anchor="middle" x="547.18" y="-473.95" font-family="Times New Roman,serif" font-size="14.00">rtr_server</text>
</g>
<!-- node1&#45;&gt;node19 -->
<g id="edge37" class="edge">
<title>node1&#45;&gt;node19</title>
<path fill="none" stroke="black" stroke-dasharray="5,2" d="M347.64,-447.56C389.02,-454.11 443.73,-462.78 485.24,-469.35"/>
<polygon fill="black" stroke="black" points="484.66,-472.8 495.08,-470.91 485.75,-465.89 484.66,-472.8"/>
</g>
<!-- node3 -->
<g id="node12" class="node">
<title>node3</title>
<polygon fill="none" stroke="black" points="966.4,-479.54 966.4,-494.46 940.98,-505 905.03,-505 879.61,-494.46 879.61,-479.54 905.03,-469 940.98,-469 966.4,-479.54"/>
<text xml:space="preserve" text-anchor="middle" x="923" y="-481.95" font-family="Times New Roman,serif" font-size="14.00">rtr_core</text>
</g>
<!-- node2&#45;&gt;node3 -->
<g id="edge12" class="edge">
<title>node2&#45;&gt;node3</title>
<path fill="none" stroke="black" d="M602.74,-358.73C671.16,-373.74 781.52,-399.13 797.74,-410 820.7,-425.39 812.19,-444.01 834.74,-460 844.74,-467.09 856.66,-472.37 868.43,-476.27"/>
<polygon fill="black" stroke="black" points="867.1,-479.53 877.69,-479.05 869.11,-472.82 867.1,-479.53"/>
</g>
<!-- node7 -->
<g id="node16" class="node">
<title>node7</title>
<polygon fill="none" stroke="black" points="786.66,-256.54 786.66,-271.46 757.34,-282 715.88,-282 686.57,-271.46 686.57,-256.54 715.88,-246 757.34,-246 786.66,-256.54"/>
<text xml:space="preserve" text-anchor="middle" x="736.61" y="-258.95" font-family="Times New Roman,serif" font-size="14.00">rtr_imgui</text>
</g>
<!-- node2&#45;&gt;node7 -->
<g id="edge21" class="edge">
<title>node2&#45;&gt;node7</title>
<path fill="none" stroke="black" stroke-dasharray="1,5" d="M590.44,-332.07C610.92,-324.51 635.73,-314.85 657.49,-305 670.92,-298.92 685.3,-291.61 698.01,-284.87"/>
<polygon fill="black" stroke="black" points="699.32,-288.14 706.47,-280.32 696,-281.97 699.32,-288.14"/>
</g>
<!-- node2&#45;&gt;node13 -->
<g id="edge27" class="edge">
<title>node2&#45;&gt;node13</title>
<path fill="none" stroke="black" d="M617.97,-346.26C632.9,-346.1 648.7,-345.93 663.71,-345.77"/>
<polygon fill="black" stroke="black" points="663.53,-349.27 673.49,-345.66 663.45,-342.27 663.53,-349.27"/>
</g>
<!-- node4 -->
<g id="node13" class="node">
<title>node4</title>
<polygon fill="none" stroke="black" points="1233.53,-479.54 1233.53,-494.46 1192.2,-505 1133.77,-505 1092.45,-494.46 1092.45,-479.54 1133.77,-469 1192.2,-469 1233.53,-479.54"/>
<polygon fill="none" stroke="black" points="1237.53,-476.44 1237.53,-497.56 1192.71,-509 1133.27,-509 1088.45,-497.56 1088.45,-476.44 1133.27,-465 1192.71,-465 1237.53,-476.44"/>
<text xml:space="preserve" text-anchor="middle" x="1162.99" y="-481.95" font-family="Times New Roman,serif" font-size="14.00">spdlog::spdlog</text>
</g>
<!-- node3&#45;&gt;node4 -->
<g id="edge11" class="edge">
<title>node3&#45;&gt;node4</title>
<path fill="none" stroke="black" d="M966.82,-487C997.39,-487 1039.51,-487 1076.81,-487"/>
<polygon fill="black" stroke="black" points="1076.69,-490.5 1086.69,-487 1076.69,-483.5 1076.69,-490.5"/>
</g>
<!-- node5 -->
<g id="node14" class="node">
<title>node5</title>
<polygon fill="none" stroke="black" points="1501.12,-521.56 1407.91,-534 1314.7,-521.56 1350.31,-501.44 1465.52,-501.44 1501.12,-521.56"/>
<text xml:space="preserve" text-anchor="middle" x="1407.91" y="-510.95" font-family="Times New Roman,serif" font-size="14.00">Threads::Threads</text>
</g>
<!-- node4&#45;&gt;node5 -->
<g id="edge9" class="edge">
<title>node4&#45;&gt;node5</title>
<path fill="none" stroke="black" stroke-dasharray="5,2" d="M1237.86,-495.82C1266.08,-499.19 1298.37,-503.04 1327.12,-506.47"/>
<polygon fill="black" stroke="black" points="1326.51,-509.93 1336.86,-507.64 1327.34,-502.98 1326.51,-509.93"/>
</g>
<!-- node6 -->
<g id="node15" class="node">
<title>node6</title>
<polygon fill="none" stroke="black" points="1454.08,-450.54 1454.08,-465.46 1427.03,-476 1388.79,-476 1361.75,-465.46 1361.75,-450.54 1388.79,-440 1427.03,-440 1454.08,-450.54"/>
<polygon fill="none" stroke="black" points="1458.08,-447.81 1458.08,-468.19 1427.78,-480 1388.04,-480 1357.75,-468.19 1357.75,-447.81 1388.04,-436 1427.78,-436 1458.08,-447.81"/>
<text xml:space="preserve" text-anchor="middle" x="1407.91" y="-452.95" font-family="Times New Roman,serif" font-size="14.00">fmt::fmt</text>
</g>
<!-- node4&#45;&gt;node6 -->
<g id="edge10" class="edge">
<title>node4&#45;&gt;node6</title>
<path fill="none" stroke="black" stroke-dasharray="5,2" d="M1237.86,-478.18C1272.57,-474.04 1313.45,-469.16 1346.31,-465.23"/>
<polygon fill="black" stroke="black" points="1346.55,-468.73 1356.07,-464.07 1345.72,-461.78 1346.55,-468.73"/>
</g>
<!-- node7&#45;&gt;node3 -->
<g id="edge16" class="edge">
<title>node7&#45;&gt;node3</title>
<path fill="none" stroke="black" d="M762.17,-280.65C774.53,-290.22 788.76,-303.26 797.74,-318 798.8,-319.74 833.33,-458.53 834.74,-460 843.72,-469.4 855.9,-475.55 868.31,-479.56"/>
<polygon fill="black" stroke="black" points="867.16,-482.88 877.74,-482.17 869.03,-476.13 867.16,-482.88"/>
</g>
<!-- node8 -->
<g id="node17" class="node">
<title>node8</title>
<polygon fill="none" stroke="black" points="1198.63,-183.54 1198.63,-198.46 1177.75,-209 1148.22,-209 1127.35,-198.46 1127.35,-183.54 1148.22,-173 1177.75,-173 1198.63,-183.54"/>
<text xml:space="preserve" text-anchor="middle" x="1162.99" y="-185.95" font-family="Times New Roman,serif" font-size="14.00">imgui</text>
</g>
<!-- node7&#45;&gt;node8 -->
<g id="edge13" class="edge">
<title>node7&#45;&gt;node8</title>
<path fill="none" stroke="black" d="M761.02,-247.01C779.9,-234.32 807.69,-217.86 834.74,-210 931.72,-181.83 1051.49,-183.58 1115.86,-187.31"/>
<polygon fill="black" stroke="black" points="1115.51,-190.8 1125.71,-187.93 1115.94,-183.81 1115.51,-190.8"/>
</g>
<!-- node9 -->
<g id="node18" class="node">
<title>node9</title>
<polygon fill="none" stroke="black" points="961.41,-137.54 961.41,-152.46 938.91,-163 907.09,-163 884.59,-152.46 884.59,-137.54 907.09,-127 938.91,-127 961.41,-137.54"/>
<text xml:space="preserve" text-anchor="middle" x="923" y="-139.95" font-family="Times New Roman,serif" font-size="14.00">implot</text>
</g>
<!-- node7&#45;&gt;node9 -->
<g id="edge15" class="edge">
<title>node7&#45;&gt;node9</title>
<path fill="none" stroke="black" d="M749.49,-245.64C763.18,-225.91 787.46,-194.96 815.74,-177 832.99,-166.04 854.19,-158.67 873.11,-153.8"/>
<polygon fill="black" stroke="black" points="873.85,-157.22 882.76,-151.49 872.22,-150.41 873.85,-157.22"/>
</g>
<!-- node10 -->
<g id="node19" class="node">
<title>node10</title>
<polygon fill="none" stroke="black" points="1011.27,-229.54 1011.27,-244.46 959.56,-255 886.44,-255 834.74,-244.46 834.74,-229.54 886.44,-219 959.56,-219 1011.27,-229.54"/>
<text xml:space="preserve" text-anchor="middle" x="923" y="-231.95" font-family="Times New Roman,serif" font-size="14.00">rtr_imgui_backend</text>
</g>
<!-- node7&#45;&gt;node10 -->
<g id="edge20" class="edge">
<title>node7&#45;&gt;node10</title>
<path fill="none" stroke="black" stroke-dasharray="1,5" d="M787.03,-256.76C802.51,-254.5 820.07,-251.93 837.28,-249.41"/>
<polygon fill="black" stroke="black" points="837.63,-252.89 847.02,-247.98 836.62,-245.97 837.63,-252.89"/>
</g>
<!-- node9&#45;&gt;node8 -->
<g id="edge14" class="edge">
<title>node9&#45;&gt;node8</title>
<path fill="none" stroke="black" d="M961.71,-152.29C1003.55,-160.38 1071.07,-173.43 1115.98,-182.11"/>
<polygon fill="black" stroke="black" points="1115.19,-185.52 1125.68,-183.98 1116.52,-178.65 1115.19,-185.52"/>
</g>
<!-- node10&#45;&gt;node8 -->
<g id="edge19" class="edge">
<title>node10&#45;&gt;node8</title>
<path fill="none" stroke="black" d="M988.72,-224.49C1028.96,-216.71 1079.74,-206.9 1115.9,-199.91"/>
<polygon fill="black" stroke="black" points="1116.46,-203.37 1125.61,-198.03 1115.13,-196.49 1116.46,-203.37"/>
</g>
<!-- node11 -->
<g id="node20" class="node">
<title>node11</title>
<polygon fill="none" stroke="black" points="1191.98,-304.54 1191.98,-319.46 1174.99,-330 1150.98,-330 1133.99,-319.46 1133.99,-304.54 1150.98,-294 1174.99,-294 1191.98,-304.54"/>
<text xml:space="preserve" text-anchor="middle" x="1162.99" y="-306.95" font-family="Times New Roman,serif" font-size="14.00">glad</text>
</g>
<!-- node10&#45;&gt;node11 -->
<g id="edge17" class="edge">
<title>node10&#45;&gt;node11</title>
<path fill="none" stroke="black" stroke-dasharray="1,5" d="M964.65,-254.31C988.69,-264.13 1019.89,-276.19 1048.27,-285 1072.69,-292.58 1100.63,-299.24 1122.7,-304.05"/>
<polygon fill="black" stroke="black" points="1121.67,-307.41 1132.18,-306.07 1123.13,-300.56 1121.67,-307.41"/>
</g>
<!-- node12 -->
<g id="node21" class="node">
<title>node12</title>
<polygon fill="none" stroke="black" points="1193.09,-246.54 1193.09,-261.46 1175.45,-272 1150.52,-272 1132.89,-261.46 1132.89,-246.54 1150.52,-236 1175.45,-236 1193.09,-246.54"/>
<polygon fill="none" stroke="black" points="1197.09,-244.28 1197.09,-263.72 1176.56,-276 1149.41,-276 1128.89,-263.72 1128.89,-244.28 1149.41,-232 1176.56,-232 1197.09,-244.28"/>
<text xml:space="preserve" text-anchor="middle" x="1162.99" y="-248.95" font-family="Times New Roman,serif" font-size="14.00">glfw</text>
</g>
<!-- node10&#45;&gt;node12 -->
<g id="edge18" class="edge">
<title>node10&#45;&gt;node12</title>
<path fill="none" stroke="black" stroke-dasharray="1,5" d="M1011.6,-243.26C1047.52,-245.82 1087.55,-248.68 1117.28,-250.81"/>
<polygon fill="black" stroke="black" points="1116.8,-254.28 1127.03,-251.5 1117.3,-247.3 1116.8,-254.28"/>
</g>
<!-- node13&#45;&gt;node3 -->
<g id="edge26" class="edge">
<title>node13&#45;&gt;node3</title>
<path fill="none" stroke="black" d="M771.54,-360.62C780.42,-365.35 789.73,-370.92 797.74,-377 807.5,-384.42 810.65,-386.35 816.74,-397 831.18,-422.29 814.37,-439.19 834.74,-460 843.83,-469.29 856.05,-475.4 868.46,-479.42"/>
<polygon fill="black" stroke="black" points="867.31,-482.73 877.88,-482.03 869.18,-475.98 867.31,-482.73"/>
</g>
<!-- node13&#45;&gt;node11 -->
<g id="edge22" class="edge">
<title>node13&#45;&gt;node11</title>
<path fill="none" stroke="black" stroke-dasharray="1,5" d="M797.96,-340.31C886.15,-333.45 1047.82,-320.88 1122.39,-315.08"/>
<polygon fill="black" stroke="black" points="1122.38,-318.59 1132.08,-314.33 1121.83,-311.61 1122.38,-318.59"/>
</g>
<!-- node13&#45;&gt;node12 -->
<g id="edge23" class="edge">
<title>node13&#45;&gt;node12</title>
<path fill="none" stroke="black" stroke-dasharray="1,5" d="M782.95,-332.8C799.23,-328.56 817.76,-323.89 834.74,-320 935.25,-296.94 1054.12,-274.06 1117.28,-262.24"/>
<polygon fill="black" stroke="black" points="1117.74,-265.72 1126.92,-260.44 1116.45,-258.83 1117.74,-265.72"/>
</g>
<!-- node14 -->
<g id="node23" class="node">
<title>node14</title>
<polygon fill="none" stroke="black" points="972.49,-371.54 972.49,-386.46 943.5,-397 902.5,-397 873.51,-386.46 873.51,-371.54 902.5,-361 943.5,-361 972.49,-371.54"/>
<text xml:space="preserve" text-anchor="middle" x="923" y="-373.95" font-family="Times New Roman,serif" font-size="14.00">glm::glm</text>
</g>
<!-- node13&#45;&gt;node14 -->
<g id="edge25" class="edge">
<title>node13&#45;&gt;node14</title>
<path fill="none" stroke="black" d="M790.95,-354.83C813.89,-359.06 840.76,-364.02 864.18,-368.34"/>
<polygon fill="black" stroke="black" points="863.41,-371.75 873.88,-370.13 864.68,-364.87 863.41,-371.75"/>
</g>
<!-- node15 -->
<g id="node24" class="node">
<title>node15</title>
<polygon fill="none" stroke="black" points="1277.7,-384.56 1162.99,-397 1048.27,-384.56 1092.09,-364.44 1233.89,-364.44 1277.7,-384.56"/>
<text xml:space="preserve" text-anchor="middle" x="1162.99" y="-373.95" font-family="Times New Roman,serif" font-size="14.00">glm::glm&#45;header&#45;only</text>
</g>
<!-- node14&#45;&gt;node15 -->
<g id="edge24" class="edge">
<title>node14&#45;&gt;node15</title>
<path fill="none" stroke="black" stroke-dasharray="5,2" d="M972.74,-379C994.63,-379 1021.47,-379 1047.98,-379"/>
<polygon fill="black" stroke="black" points="1047.79,-382.5 1057.79,-379 1047.79,-375.5 1047.79,-382.5"/>
</g>
<!-- node16&#45;&gt;node3 -->
<g id="edge29" class="edge">
<title>node16&#45;&gt;node3</title>
<path fill="none" stroke="black" d="M619.26,-575.01C669.98,-575.9 739.29,-573.02 797.74,-556 831.68,-546.11 866.55,-525.68 890.68,-509.61"/>
<polygon fill="black" stroke="black" points="892.46,-512.62 898.76,-504.1 888.52,-506.84 892.46,-512.62"/>
</g>
<!-- node17&#45;&gt;node3 -->
<g id="edge33" class="edge">
<title>node17&#45;&gt;node3</title>
<path fill="none" stroke="black" d="M777.17,-447.73C805.41,-455.38 843.57,-465.73 873.63,-473.88"/>
<polygon fill="black" stroke="black" points="872.68,-477.25 883.25,-476.49 874.52,-470.5 872.68,-477.25"/>
</g>
<!-- node18 -->
<g id="node27" class="node">
<title>node18</title>
<polygon fill="none" stroke="black" points="995.33,-438.56 923,-451 850.67,-438.56 878.3,-418.44 967.71,-418.44 995.33,-438.56"/>
<text xml:space="preserve" text-anchor="middle" x="923" y="-427.95" font-family="Times New Roman,serif" font-size="14.00">EnTT::EnTT</text>
</g>
<!-- node17&#45;&gt;node18 -->
<g id="edge32" class="edge">
<title>node17&#45;&gt;node18</title>
<path fill="none" stroke="black" stroke-dasharray="1,5" d="M785.1,-435.97C803.11,-435.58 824.13,-435.12 844.21,-434.69"/>
<polygon fill="black" stroke="black" points="844.14,-438.19 854.06,-434.47 843.98,-431.19 844.14,-438.19"/>
</g>
<!-- node19&#45;&gt;node3 -->
<g id="edge35" class="edge">
<title>node19&#45;&gt;node3</title>
<path fill="none" stroke="black" d="M598.21,-480.07C668.46,-481.57 795.82,-484.3 868.1,-485.85"/>
<polygon fill="black" stroke="black" points="867.63,-489.34 877.7,-486.05 867.78,-482.34 867.63,-489.34"/>
</g>
<!-- node19&#45;&gt;node17 -->
<g id="edge36" class="edge">
<title>node19&#45;&gt;node17</title>
<path fill="none" stroke="black" d="M592.13,-469.15C618.97,-463.14 653.48,-455.4 681.93,-449.03"/>
<polygon fill="black" stroke="black" points="682.44,-452.5 691.44,-446.9 680.91,-445.67 682.44,-452.5"/>
</g>
<!-- node20 -->
<g id="node29" class="node">
<title>node20</title>
<polygon fill="none" stroke="black" points="362.89,-600.54 362.89,-615.46 318,-626 254.51,-626 209.62,-615.46 209.62,-600.54 254.51,-590 318,-590 362.89,-600.54"/>
<text xml:space="preserve" text-anchor="middle" x="286.26" y="-602.95" font-family="Times New Roman,serif" font-size="14.00">rtr_assets_client</text>
</g>
<!-- node20&#45;&gt;node3 -->
<g id="edge40" class="edge">
<title>node20&#45;&gt;node3</title>
<path fill="none" stroke="black" d="M331.73,-623.21C400.1,-644.41 534.86,-677.53 646.49,-652 747.63,-628.87 847.32,-552.18 894.22,-512.02"/>
<polygon fill="black" stroke="black" points="896.48,-514.69 901.73,-505.49 891.89,-509.4 896.48,-514.69"/>
</g>
<!-- node20&#45;&gt;node16 -->
<g id="edge39" class="edge">
<title>node20&#45;&gt;node16</title>
<path fill="none" stroke="black" d="M355.29,-598.28C390.59,-593.23 433.83,-587.05 470.22,-581.85"/>
<polygon fill="black" stroke="black" points="470.38,-585.37 479.78,-580.49 469.39,-578.44 470.38,-585.37"/>
</g>
<!-- node21 -->
<g id="node30" class="node">
<title>node21</title>
<polygon fill="none" stroke="black" points="574.18,-617.54 574.18,-632.46 558.37,-643 536,-643 520.18,-632.46 520.18,-617.54 536,-607 558.37,-607 574.18,-617.54"/>
<text xml:space="preserve" text-anchor="middle" x="547.18" y="-619.95" font-family="Times New Roman,serif" font-size="14.00">stb</text>
</g>
<!-- node20&#45;&gt;node21 -->
<g id="edge41" class="edge">
<title>node20&#45;&gt;node21</title>
<path fill="none" stroke="black" stroke-dasharray="1,5" d="M363.19,-612.99C411.06,-616.13 470.79,-620.05 508.72,-622.54"/>
<polygon fill="black" stroke="black" points="508.03,-626 518.24,-623.17 508.49,-619.02 508.03,-626"/>
</g>
<!-- node22 -->
<g id="node31" class="node">
<title>node22</title>
<polygon fill="none" stroke="black" points="163.64,-525.56 81.82,-538 0,-525.56 31.25,-505.44 132.39,-505.44 163.64,-525.56"/>
<text xml:space="preserve" text-anchor="middle" x="81.82" y="-514.95" font-family="Times New Roman,serif" font-size="14.00">rtr_engine_full</text>
</g>
<!-- node22&#45;&gt;node1 -->
<g id="edge43" class="edge">
<title>node22&#45;&gt;node1</title>
<path fill="none" stroke="black" stroke-dasharray="5,2" d="M119.95,-504.96C154.34,-491.03 205.49,-470.31 241.77,-455.61"/>
<polygon fill="black" stroke="black" points="242.69,-459.02 250.65,-452.02 240.07,-452.53 242.69,-459.02"/>
</g>
<!-- node22&#45;&gt;node7 -->
<g id="edge44" class="edge">
<title>node22&#45;&gt;node7</title>
<path fill="none" stroke="black" stroke-dasharray="5,2" d="M129.29,-505.04C141.49,-499.52 153.93,-492.28 163.64,-483 189.65,-458.14 173.57,-434.7 200.64,-411 272.13,-348.38 551.3,-294.95 675.48,-273.75"/>
<polygon fill="black" stroke="black" points="675.88,-277.24 685.15,-272.12 674.71,-270.34 675.88,-277.24"/>
</g>
<!-- node22&#45;&gt;node20 -->
<g id="edge42" class="edge">
<title>node22&#45;&gt;node20</title>
<path fill="none" stroke="black" stroke-dasharray="5,2" d="M114.01,-533.56C146.75,-547.79 198.68,-570.36 236.77,-586.92"/>
<polygon fill="black" stroke="black" points="235.17,-590.04 245.73,-590.82 237.96,-583.62 235.17,-590.04"/>
</g>
<!-- node23 -->
<g id="node32" class="node">
<title>node23</title>
<polygon fill="none" stroke="black" points="796.07,-521.54 796.07,-536.46 761.24,-547 711.98,-547 677.15,-536.46 677.15,-521.54 711.98,-511 761.24,-511 796.07,-521.54"/>
<text xml:space="preserve" text-anchor="middle" x="736.61" y="-523.95" font-family="Times New Roman,serif" font-size="14.00">rtr_renderer</text>
</g>
<!-- node22&#45;&gt;node23 -->
<g id="edge47" class="edge">
<title>node22&#45;&gt;node23</title>
<path fill="none" stroke="black" stroke-dasharray="5,2" d="M157.39,-521.03C284.55,-522.78 541.63,-526.33 665.61,-528.03"/>
<polygon fill="black" stroke="black" points="665.26,-531.53 675.31,-528.17 665.36,-524.53 665.26,-531.53"/>
</g>
<!-- node23&#45;&gt;node3 -->
<g id="edge46" class="edge">
<title>node23&#45;&gt;node3</title>
<path fill="none" stroke="black" d="M796.56,-522.67C803.39,-521.61 810.24,-520.39 816.74,-519 837.1,-514.65 859.2,-508.2 877.87,-502.24"/>
<polygon fill="black" stroke="black" points="878.86,-505.6 887.28,-499.17 876.69,-498.94 878.86,-505.6"/>
</g>
<!-- node23&#45;&gt;node14 -->
<g id="edge45" class="edge">
<title>node23&#45;&gt;node14</title>
<path fill="none" stroke="black" d="M756.17,-510.73C768.56,-498.12 784.87,-480.67 797.74,-464 816.41,-439.79 810.42,-424.54 834.74,-406 843.35,-399.43 853.57,-394.45 863.94,-390.67"/>
<polygon fill="black" stroke="black" points="864.87,-394.05 873.29,-387.62 862.7,-387.39 864.87,-394.05"/>
</g>
</g>
</svg>
