<?xml version="1.0" encoding="UTF-8" standalone="no"?>
<!DOCTYPE svg PUBLIC "-//W3C//DTD SVG 1.1//EN"
 "http://www.w3.org/Graphics/SVG/1.1/DTD/svg11.dtd">
<!-- Generated by graphviz version 14.1.5 (20260411.2331)
 -->
<!-- Title: RTR Engine Architecture Pages: 1 -->
<svg width="1322pt" height="792pt"
 viewBox="0.00 0.00 1322.00 792.00" xmlns="http://www.w3.org/2000/svg" xmlns:xlink="http://www.w3.org/1999/xlink">
<g id="graph0" class="graph" transform="scale(1 1) rotate(0) translate(4 788)">
<title>RTR Engine Architecture</title>
<polygon fill="white" stroke="none" points="-4,4 -4,-788 1318.42,-788 1318.42,4 -4,4"/>
<g id="clust1" class="cluster">
<title>clusterLegend</title>
<polygon fill="none" stroke="black" points="18.59,-8 18.59,-274 646.49,-274 646.49,-8 18.59,-8"/>
<text xml:space="preserve" text-anchor="middle" x="332.54" y="-256.7" font-family="Segoe UI" font-size="14.00">Legend</text>
</g>
<!-- legendNode0 -->
<g id="node1" class="node">
<title>legendNode0</title>
<polygon fill="none" stroke="black" points="86.93,-107.05 90.31,-107.15 93.66,-107.3 96.96,-107.49 100.2,-107.74 103.37,-108.03 106.44,-108.36 109.42,-108.75 112.28,-109.18 115.03,-109.65 117.64,-110.16 120.11,-110.71 122.43,-111.31 124.6,-111.94 126.61,-112.61 128.44,-113.31 130.11,-114.04 131.6,-114.8 132.91,-115.59 134.04,-116.41 134.99,-117.25 135.75,-118.11 136.34,-118.99 136.75,-119.89 136.99,-120.8 137.05,-121.72 136.95,-122.65 136.68,-123.59 136.25,-124.53 135.68,-125.47 134.96,-126.41 134.1,-127.35 133.11,-128.28 131.99,-129.2 130.76,-130.11 129.41,-131.01 127.97,-131.89 126.43,-132.75 124.8,-133.59 123.1,-134.41 121.32,-135.2 119.48,-135.96 117.57,-136.69 115.61,-137.39 113.61,-138.06 111.56,-138.69 109.48,-139.29 107.36,-139.84 105.22,-140.35 103.05,-140.82 100.86,-141.25 98.66,-141.64 96.44,-141.97 94.21,-142.26 91.97,-142.51 89.72,-142.7 87.47,-142.85 85.21,-142.95 82.95,-143 80.69,-143 78.43,-142.95 76.17,-142.85 73.92,-142.7 71.67,-142.51 69.43,-142.26 67.2,-141.97 64.98,-141.64 62.78,-141.25 60.59,-140.82 58.42,-140.35 56.28,-139.84 54.16,-139.29 52.08,-138.69 50.03,-138.06 48.03,-137.39 46.07,-136.69 44.16,-135.96 42.32,-135.2 40.54,-134.41 38.84,-133.59 37.21,-132.75 35.67,-131.89 34.23,-131.01 32.88,-130.11 31.65,-129.2 30.53,-128.28 29.54,-127.35 28.68,-126.41 27.96,-125.47 27.39,-124.53 26.96,-123.59 26.69,-122.65 26.59,-121.72 26.65,-120.8 26.89,-119.89 27.3,-118.99 27.89,-118.11 28.65,-117.25 29.6,-116.41 30.73,-115.59 32.04,-114.8 33.53,-114.04 35.2,-113.31 37.03,-112.61 39.04,-111.94 41.21,-111.31 43.53,-110.71 46,-110.16 48.61,-109.65 51.36,-109.18 54.22,-108.75 57.2,-108.36 60.28,-108.03 63.44,-107.74 66.68,-107.49 69.98,-107.3 73.33,-107.15 76.71,-107.05 80.11,-107 83.53,-107 86.93,-107.05"/>
<text xml:space="preserve" text-anchor="middle" x="81.82" y="-119.95" font-family="Times New Roman,serif" font-size="14.00">Executable</text>
</g>
<!-- legendNode1 -->
<g id="node2" class="node">
<title>legendNode1</title>
<polygon fill="none" stroke="black" points="353.47,-26.54 353.47,-41.46 314.1,-52 258.41,-52 219.04,-41.46 219.04,-26.54 258.41,-16 314.1,-16 353.47,-26.54"/>
<text xml:space="preserve" text-anchor="middle" x="286.26" y="-28.95" font-family="Times New Roman,serif" font-size="14.00">Static Library</text>
</g>
<!-- legendNode0&#45;&gt;legendNode1 -->
<g id="edge1" class="edge">
<title>legendNode0&#45;&gt;legendNode1</title>
<path fill="none" stroke="black" d="M109.71,-108.49C133.13,-94.58 168.31,-74.79 200.64,-61 209.31,-57.3 218.65,-53.83 227.87,-50.69"/>
<polygon fill="black" stroke="black" points="228.73,-54.09 237.13,-47.64 226.54,-47.44 228.73,-54.09"/>
</g>
<!-- legendNode2 -->
<g id="node3" class="node">
<title>legendNode2</title>
<polygon fill="none" stroke="black" points="358.46,-84.54 358.46,-99.46 316.16,-110 256.35,-110 214.05,-99.46 214.05,-84.54 256.35,-74 316.16,-74 358.46,-84.54"/>
<polygon fill="none" stroke="black" points="362.46,-81.42 362.46,-102.58 316.65,-114 255.86,-114 210.05,-102.58 210.05,-81.42 255.86,-70 316.65,-70 362.46,-81.42"/>
<text xml:space="preserve" text-anchor="middle" x="286.26" y="-86.95" font-family="Times New Roman,serif" font-size="14.00">Shared Library</text>
</g>
<!-- legendNode0&#45;&gt;legendNode2 -->
<g id="edge2" class="edge">
<title>legendNode0&#45;&gt;legendNode2</title>
<path fill="none" stroke="black" d="M134.69,-116.54C155.03,-113.23 178.9,-109.34 201.56,-105.64"/>
<polygon fill="black" stroke="black" points="202.11,-109.1 211.42,-104.04 200.99,-102.19 202.11,-109.1"/>
</g>
<!-- legendNode3 -->
<g id="node4" class="node">
<title>legendNode3</title>
<polygon fill="none" stroke="black" points="362.34,-150.54 362.34,-165.46 317.77,-176 254.74,-176 210.18,-165.46 210.18,-150.54 254.74,-140 317.77,-140 362.34,-150.54"/>
<polygon fill="none" stroke="black" points="366.34,-147.38 366.34,-168.62 318.24,-180 254.28,-180 206.18,-168.62 206.18,-147.38 254.28,-136 318.24,-136 366.34,-147.38"/>
<polygon fill="none" stroke="black" points="370.34,-144.22 370.34,-171.78 318.7,-184 253.81,-184 202.18,-171.78 202.18,-144.22 253.81,-132 318.7,-132 370.34,-144.22"/>
<text xml:space="preserve" text-anchor="middle" x="286.26" y="-152.95" font-family="Times New Roman,serif" font-size="14.00">Module Library</text>
</g>
<!-- legendNode0&#45;&gt;legendNode3 -->
<!-- legendNode7 -->
<g id="node8" class="node">
<title>legendNode7</title>
<polygon fill="none" stroke="black" points="334.38,-238 238.13,-238 238.13,-202 334.38,-202 334.38,-238"/>
<text xml:space="preserve" text-anchor="middle" x="286.26" y="-214.95" font-family="Times New Roman,serif" font-size="14.00">Custom Target</text>
</g>
<!-- legendNode0&#45;&gt;legendNode7 -->
<!-- legendNode4 -->
<g id="node5" class="node">
<title>legendNode4</title>
<polygon fill="none" stroke="black" points="638.49,-39.56 547.18,-52 455.87,-39.56 490.75,-19.44 603.61,-19.44 638.49,-39.56"/>
<text xml:space="preserve" text-anchor="middle" x="547.18" y="-28.95" font-family="Times New Roman,serif" font-size="14.00">Interface Library</text>
</g>
<!-- legendNode1&#45;&gt;legendNode4 -->
<g id="edge4" class="edge">
<title>legendNode1&#45;&gt;legendNode4</title>
<path fill="none" stroke="black" stroke-dasharray="5,2" d="M353.94,-34C384.23,-34 420.57,-34 453.46,-34"/>
<polygon fill="black" stroke="black" points="453.43,-37.5 463.43,-34 453.42,-30.5 453.43,-37.5"/>
<text xml:space="preserve" text-anchor="middle" x="413.87" y="-37.2" font-family="Times New Roman,serif" font-size="14.00">Interface</text>
</g>
<!-- legendNode5 -->
<g id="node6" class="node">
<title>legendNode5</title>
<polygon fill="none" stroke="black" points="623.02,-92 585.1,-110 509.26,-110 471.34,-92 509.26,-74 585.1,-74 623.02,-92"/>
<text xml:space="preserve" text-anchor="middle" x="547.18" y="-86.95" font-family="Times New Roman,serif" font-size="14.00">Object Library</text>
</g>
<!-- legendNode2&#45;&gt;legendNode5 -->
<g id="edge5" class="edge">
<title>legendNode2&#45;&gt;legendNode5</title>
<path fill="none" stroke="black" stroke-dasharray="1,5" d="M362.84,-92C393.02,-92 427.95,-92 459.18,-92"/>
<polygon fill="black" stroke="black" points="458.99,-95.5 468.99,-92 458.99,-88.5 458.99,-95.5"/>
<text xml:space="preserve" text-anchor="middle" x="413.87" y="-95.2" font-family="Times New Roman,serif" font-size="14.00">Private</text>
</g>
<!-- legendNode6 -->
<g id="node7" class="node">
<title>legendNode6</title>
<polygon fill="none" stroke="black" points="633.15,-153.99 616.12,-169.22 547.18,-176 478.24,-169.22 461.21,-153.99 508.92,-141.78 585.44,-141.78 633.15,-153.99"/>
<text xml:space="preserve" text-anchor="middle" x="547.18" y="-152.95" font-family="Times New Roman,serif" font-size="14.00">Unknown Library</text>
</g>
<!-- legendNode3&#45;&gt;legendNode6 -->
<g id="edge6" class="edge">
<title>legendNode3&#45;&gt;legendNode6</title>
<path fill="none" stroke="black" d="M370.61,-158C397.13,-158 426.61,-158 453.73,-158"/>
<polygon fill="black" stroke="black" points="453.68,-161.5 463.68,-158 453.68,-154.5 453.68,-161.5"/>
</g>
<!-- node0 -->
<g id="node9" class="node">
<title>node0</title>
<polygon fill="none" stroke="black" points="86.17,-652.05 89.06,-652.15 91.91,-652.3 94.72,-652.49 97.48,-652.74 100.18,-653.03 102.8,-653.36 105.33,-653.75 107.77,-654.18 110.11,-654.65 112.34,-655.16 114.44,-655.71 116.42,-656.31 118.27,-656.94 119.98,-657.61 121.54,-658.31 122.96,-659.04 124.23,-659.8 125.35,-660.59 126.31,-661.41 127.12,-662.25 127.77,-663.11 128.27,-663.99 128.62,-664.89 128.82,-665.8 128.88,-666.72 128.79,-667.65 128.56,-668.59 128.2,-669.53 127.71,-670.47 127.09,-671.41 126.36,-672.35 125.51,-673.28 124.56,-674.2 123.51,-675.11 122.37,-676.01 121.14,-676.89 119.83,-677.75 118.44,-678.59 116.99,-679.41 115.47,-680.2 113.9,-680.96 112.28,-681.69 110.61,-682.39 108.9,-683.06 107.16,-683.69 105.38,-684.29 103.58,-684.84 101.75,-685.35 99.91,-685.82 98.04,-686.25 96.16,-686.64 94.27,-686.97 92.37,-687.26 90.46,-687.51 88.55,-687.7 86.63,-687.85 84.71,-687.95 82.78,-688 80.86,-688 78.93,-687.95 77.01,-687.85 75.09,-687.7 73.18,-687.51 71.27,-687.26 69.37,-686.97 67.48,-686.64 65.6,-686.25 63.73,-685.82 61.89,-685.35 60.06,-684.84 58.26,-684.29 56.48,-683.69 54.74,-683.06 53.03,-682.39 51.36,-681.69 49.74,-680.96 48.17,-680.2 46.65,-679.41 45.2,-678.59 43.81,-677.75 42.5,-676.89 41.27,-676.01 40.13,-675.11 39.08,-674.2 38.13,-673.28 37.28,-672.35 36.55,-671.41 35.93,-670.47 35.44,-669.53 35.08,-668.59 34.85,-667.65 34.76,-666.72 34.82,-665.8 35.02,-664.89 35.37,-663.99 35.87,-663.11 36.52,-662.25 37.33,-661.41 38.29,-660.59 39.41,-659.8 40.68,-659.04 42.1,-658.31 43.66,-657.61 45.37,-656.94 47.22,-656.31 49.2,-655.71 51.3,-655.16 53.53,-654.65 55.87,-654.18 58.31,-653.75 60.84,-653.36 63.46,-653.03 66.16,-652.74 68.92,-652.49 71.73,-652.3 74.58,-652.15 77.47,-652.05 80.37,-652 83.27,-652 86.17,-652.05"/>
<text xml:space="preserve" text-anchor="middle" x="81.82" y="-664.95" font-family="Times New Roman,serif" font-size="14.00">Headless</text>
</g>
<!-- node0&#45;&gt;node0 -->
<g id="edge8" class="edge">
<title>node0&#45;&gt;node0</title>
<path fill="none" stroke="black" d="M64.34,-686.29C60.12,-696.39 65.95,-706 81.82,-706 91.24,-706 97.13,-702.61 99.47,-697.74"/>
<polygon fill="black" stroke="black" points="102.97,-697.75 99.32,-687.8 95.97,-697.85 102.97,-697.75"/>
</g>
<!-- node1 -->
<g id="node10" class="node">
<title>node1</title>
<polygon fill="none" stroke="black" points="371.87,-675.56 286.26,-688 200.64,-675.56 233.34,-655.44 339.17,-655.44 371.87,-675.56"/>
<text xml:space="preserve" text-anchor="middle" x="286.26" y="-664.95" font-family="Times New Roman,serif" font-size="14.00">rtr_engine_core</text>
</g>
<!-- node0&#45;&gt;node1 -->
<g id="edge22" class="edge">
<title>node0&#45;&gt;node1</title>
<path fill="none" stroke="black" stroke-dasharray="1,5" d="M128.5,-670C148.94,-670 173.75,-670 197.55,-670"/>
<polygon fill="black" stroke="black" points="197.24,-673.5 207.24,-670 197.24,-666.5 197.24,-673.5"/>
</g>
<!-- node2 -->
<g id="node11" class="node">
<title>node2</title>
<polygon fill="none" stroke="black" points="637.66,-662.54 637.66,-677.46 584.66,-688 509.7,-688 456.7,-677.46 456.7,-662.54 509.7,-652 584.66,-652 637.66,-662.54"/>
<text xml:space="preserve" text-anchor="middle" x="547.18" y="-664.95" font-family="Times New Roman,serif" font-size="14.00">rtr_assets_common</text>
</g>
<!-- node1&#45;&gt;node2 -->
<g id="edge13" class="edge">
<title>node1&#45;&gt;node2</title>
<path fill="none" stroke="black" stroke-dasharray="5,2" d="M363.54,-670C388.99,-670 417.77,-670 444.82,-670"/>
<polygon fill="black" stroke="black" points="444.78,-673.5 454.78,-670 444.78,-666.5 444.78,-673.5"/>
</g>
<!-- node3 -->
<g id="node12" class="node">
<title>node3</title>
<polygon fill="none" stroke="black" points="833.6,-562.54 833.6,-577.46 808.18,-588 772.23,-588 746.81,-577.46 746.81,-562.54 772.23,-552 808.18,-552 833.6,-562.54"/>
<text xml:space="preserve" text-anchor="middle" x="790.21" y="-564.95" font-family="Times New Roman,serif" font-size="14.00">rtr_core</text>
</g>
<!-- node1&#45;&gt;node3 -->
<g id="edge14" class="edge">
<title>node1&#45;&gt;node3</title>
<path fill="none" stroke="black" stroke-dasharray="5,2" d="M324.43,-682.89C391.34,-703.92 535.43,-739.26 646.49,-697 698.74,-677.12 744.06,-628.36 768.92,-597.37"/>
<polygon fill="black" stroke="black" points="771.62,-599.6 775.03,-589.56 766.11,-595.28 771.62,-599.6"/>
</g>
<!-- node7 -->
<g id="node16" class="node">
<title>node7</title>
<polygon fill="none" stroke="black" points="608.3,-478.54 608.3,-493.46 572.5,-504 521.86,-504 486.06,-493.46 486.06,-478.54 521.86,-468 572.5,-468 608.3,-478.54"/>
<text xml:space="preserve" text-anchor="middle" x="547.18" y="-480.95" font-family="Times New Roman,serif" font-size="14.00">rtr_platform</text>
</g>
<!-- node1&#45;&gt;node7 -->
<g id="edge18" class="edge">
<title>node1&#45;&gt;node7</title>
<path fill="none" stroke="black" stroke-dasharray="5,2" d="M321.56,-655.11C337.33,-647.72 356.02,-638.21 371.87,-628 427.15,-592.4 485.15,-542.17 518.36,-511.97"/>
<polygon fill="black" stroke="black" points="520.52,-514.74 525.53,-505.41 515.79,-509.58 520.52,-514.74"/>
</g>
<!-- node10 -->
<g id="node19" class="node">
<title>node10</title>
<polygon fill="none" stroke="black" points="595.56,-754.54 595.56,-769.46 567.22,-780 527.14,-780 498.8,-769.46 498.8,-754.54 527.14,-744 567.22,-744 595.56,-754.54"/>
<text xml:space="preserve" text-anchor="middle" x="547.18" y="-756.95" font-family="Times New Roman,serif" font-size="14.00">rtr_scene</text>
</g>
<!-- node1&#45;&gt;node10 -->
<g id="edge21" class="edge">
<title>node1&#45;&gt;node10</title>
<path fill="none" stroke="black" stroke-dasharray="5,2" d="M308.23,-685.05C328.28,-698.73 359.8,-718.49 389.87,-730 421.07,-741.94 457.56,-749.73 487.44,-754.63"/>
<polygon fill="black" stroke="black" points="486.62,-758.05 497.04,-756.14 487.7,-751.13 486.62,-758.05"/>
</g>
<!-- node2&#45;&gt;node3 -->
<g id="edge12" class="edge">
<title>node2&#45;&gt;node3</title>
<path fill="none" stroke="black" d="M607.04,-655.95C620.19,-652.23 633.95,-647.87 646.49,-643 684.5,-628.24 725.75,-606.46 754.08,-590.54"/>
<polygon fill="black" stroke="black" points="755.62,-593.69 762.58,-585.71 752.16,-587.6 755.62,-593.69"/>
</g>
<!-- node4 -->
<g id="node13" class="node">
<title>node4</title>
<polygon fill="none" stroke="black" points="1087,-562.54 1087,-577.46 1045.68,-588 987.25,-588 945.92,-577.46 945.92,-562.54 987.25,-552 1045.68,-552 1087,-562.54"/>
<polygon fill="none" stroke="black" points="1091,-559.44 1091,-580.56 1046.19,-592 986.74,-592 941.92,-580.56 941.92,-559.44 986.74,-548 1046.19,-548 1091,-559.44"/>
<text xml:space="preserve" text-anchor="middle" x="1016.46" y="-564.95" font-family="Times New Roman,serif" font-size="14.00">spdlog::spdlog</text>
</g>
<!-- node3&#45;&gt;node4 -->
<g id="edge11" class="edge">
<title>node3&#45;&gt;node4</title>
<path fill="none" stroke="black" d="M833.92,-570C861.09,-570 897.22,-570 930.09,-570"/>
<polygon fill="black" stroke="black" points="930.05,-573.5 940.05,-570 930.05,-566.5 930.05,-573.5"/>
</g>
<!-- node5 -->
<g id="node14" class="node">
<title>node5</title>
<polygon fill="none" stroke="black" points="1314.42,-604.56 1221.21,-617 1128,-604.56 1163.61,-584.44 1278.82,-584.44 1314.42,-604.56"/>
<text xml:space="preserve" text-anchor="middle" x="1221.21" y="-593.95" font-family="Times New Roman,serif" font-size="14.00">Threads::Threads</text>
</g>
<!-- node4&#45;&gt;node5 -->
<g id="edge9" class="edge">
<title>node4&#45;&gt;node5</title>
<path fill="none" stroke="black" stroke-dasharray="5,2" d="M1091.23,-580.55C1108.05,-582.96 1125.95,-585.52 1142.91,-587.94"/>
<polygon fill="black" stroke="black" points="1142,-591.35 1152.39,-589.3 1142.99,-584.42 1142,-591.35"/>
</g>
<!-- node6 -->
<g id="node15" class="node">
<title>node6</title>
<polygon fill="none" stroke="black" points="1267.38,-533.54 1267.38,-548.46 1240.33,-559 1202.09,-559 1175.05,-548.46 1175.05,-533.54 1202.09,-523 1240.33,-523 1267.38,-533.54"/>
<polygon fill="none" stroke="black" points="1271.38,-530.81 1271.38,-551.19 1241.09,-563 1201.34,-563 1171.05,-551.19 1171.05,-530.81 1201.34,-519 1241.09,-519 1271.38,-530.81"/>
<text xml:space="preserve" text-anchor="middle" x="1221.21" y="-535.95" font-family="Times New Roman,serif" font-size="14.00">fmt::fmt</text>
</g>
<!-- node4&#45;&gt;node6 -->
<g id="edge10" class="edge">
<title>node4&#45;&gt;node6</title>
<path fill="none" stroke="black" stroke-dasharray="5,2" d="M1091.23,-559.45C1113.6,-556.25 1137.9,-552.77 1159.32,-549.71"/>
<polygon fill="black" stroke="black" points="1159.65,-553.2 1169.06,-548.32 1158.66,-546.27 1159.65,-553.2"/>
</g>
<!-- node7&#45;&gt;node3 -->
<g id="edge17" class="edge">
<title>node7&#45;&gt;node3</title>
<path fill="none" stroke="black" stroke-dasharray="1,5" d="M589.9,-499.23C607.43,-504.87 628,-511.62 646.49,-518 680.16,-529.61 718.03,-543.45 746.3,-553.92"/>
<polygon fill="black" stroke="black" points="745,-557.18 755.59,-557.38 747.44,-550.62 745,-557.18"/>
</g>
<!-- node8 -->
<g id="node17" class="node">
<title>node8</title>
<polygon fill="none" stroke="black" points="819.2,-417.54 819.2,-432.46 802.22,-443 778.2,-443 761.22,-432.46 761.22,-417.54 778.2,-407 802.22,-407 819.2,-417.54"/>
<text xml:space="preserve" text-anchor="middle" x="790.21" y="-419.95" font-family="Times New Roman,serif" font-size="14.00">glad</text>
</g>
<!-- node7&#45;&gt;node8 -->
<g id="edge15" class="edge">
<title>node7&#45;&gt;node8</title>
<path fill="none" stroke="black" stroke-dasharray="1,5" d="M594.94,-474.17C640.08,-462.74 707.66,-445.64 750.05,-434.91"/>
<polygon fill="black" stroke="black" points="750.74,-438.35 759.57,-432.5 749.02,-431.56 750.74,-438.35"/>
</g>
<!-- node9 -->
<g id="node18" class="node">
<title>node9</title>
<polygon fill="none" stroke="black" points="820.31,-477.54 820.31,-492.46 802.68,-503 777.74,-503 760.11,-492.46 760.11,-477.54 777.74,-467 802.68,-467 820.31,-477.54"/>
<polygon fill="none" stroke="black" points="824.31,-475.28 824.31,-494.72 803.78,-507 776.64,-507 756.11,-494.72 756.11,-475.28 776.64,-463 803.78,-463 824.31,-475.28"/>
<text xml:space="preserve" text-anchor="middle" x="790.21" y="-479.95" font-family="Times New Roman,serif" font-size="14.00">glfw</text>
</g>
<!-- node7&#45;&gt;node9 -->
<g id="edge16" class="edge">
<title>node7&#45;&gt;node9</title>
<path fill="none" stroke="black" stroke-dasharray="1,5" d="M608.69,-485.75C650.9,-485.57 706.29,-485.34 744.53,-485.19"/>
<polygon fill="black" stroke="black" points="744.31,-488.69 754.3,-485.14 744.28,-481.69 744.31,-488.69"/>
</g>
<!-- node10&#45;&gt;node3 -->
<g id="edge20" class="edge">
<title>node10&#45;&gt;node3</title>
<path fill="none" stroke="black" d="M593.82,-753.47C614.48,-748.13 638.47,-739.77 657.49,-727 708.57,-692.7 750.74,-633.1 772.74,-598.03"/>
<polygon fill="black" stroke="black" points="775.6,-600.05 777.86,-589.7 769.64,-596.39 775.6,-600.05"/>
</g>
<!-- node11 -->
<g id="node20" class="node">
<title>node11</title>
<polygon fill="none" stroke="black" points="862.54,-771.56 790.21,-784 717.88,-771.56 745.51,-751.44 834.91,-751.44 862.54,-771.56"/>
<text xml:space="preserve" text-anchor="middle" x="790.21" y="-760.95" font-family="Times New Roman,serif" font-size="14.00">EnTT::EnTT</text>
</g>
<!-- node10&#45;&gt;node11 -->
<g id="edge19" class="edge">
<title>node10&#45;&gt;node11</title>
<path fill="none" stroke="black" stroke-dasharray="1,5" d="M595.8,-762.79C629.76,-763.35 676.1,-764.12 714.9,-764.77"/>
<polygon fill="black" stroke="black" points="714.59,-768.26 724.64,-764.93 714.7,-761.26 714.59,-768.26"/>
</g>
<!-- node12 -->
<g id="node21" class="node">
<title>node12</title>
<polygon fill="none" stroke="black" points="825.85,-359.54 825.85,-374.46 804.97,-385 775.45,-385 754.57,-374.46 754.57,-359.54 775.45,-349 804.97,-349 825.85,-359.54"/>
<text xml:space="preserve" text-anchor="middle" x="790.21" y="-361.95" font-family="Times New Roman,serif" font-size="14.00">imgui</text>
</g>
<!-- node13 -->
<g id="node22" class="node">
<title>node13</title>
<polygon fill="none" stroke="black" points="362.89,-593.54 362.89,-608.46 318,-619 254.51,-619 209.62,-608.46 209.62,-593.54 254.51,-583 318,-583 362.89,-593.54"/>
<text xml:space="preserve" text-anchor="middle" x="286.26" y="-595.95" font-family="Times New Roman,serif" font-size="14.00">rtr_assets_client</text>
</g>
<!-- node13&#45;&gt;node2 -->
<g id="edge23" class="edge">
<title>node13&#45;&gt;node2</title>
<path fill="none" stroke="black" d="M338.41,-614.63C379.04,-625.46 436.14,-640.67 480.2,-652.42"/>
<polygon fill="black" stroke="black" points="479.08,-655.74 489.64,-654.93 480.88,-648.98 479.08,-655.74"/>
</g>
<!-- node13&#45;&gt;node3 -->
<g id="edge24" class="edge">
<title>node13&#45;&gt;node3</title>
<path fill="none" stroke="black" d="M363.2,-595.37C392.2,-593.28 425.56,-590.94 455.87,-589 554.37,-582.69 669.31,-576.37 735.24,-572.84"/>
<polygon fill="black" stroke="black" points="735.26,-576.35 745.06,-572.32 734.89,-569.36 735.26,-576.35"/>
</g>
<!-- node14 -->
<g id="node23" class="node">
<title>node14</title>
<polygon fill="none" stroke="black" points="574.18,-608.54 574.18,-623.46 558.37,-634 536,-634 520.18,-623.46 520.18,-608.54 536,-598 558.37,-598 574.18,-608.54"/>
<text xml:space="preserve" text-anchor="middle" x="547.18" y="-610.95" font-family="Times New Roman,serif" font-size="14.00">stb</text>
</g>
<!-- node13&#45;&gt;node14 -->
<g id="edge25" class="edge">
<title>node13&#45;&gt;node14</title>
<path fill="none" stroke="black" stroke-dasharray="1,5" d="M363.19,-605.4C411.06,-608.17 470.79,-611.63 508.72,-613.83"/>
<polygon fill="black" stroke="black" points="508.05,-617.3 518.24,-614.38 508.46,-610.31 508.05,-617.3"/>
</g>
<!-- node15 -->
<g id="node24" class="node">
<title>node15</title>
<polygon fill="none" stroke="black" points="163.64,-564.56 81.82,-577 0,-564.56 31.25,-544.44 132.39,-544.44 163.64,-564.56"/>
<text xml:space="preserve" text-anchor="middle" x="81.82" y="-553.95" font-family="Times New Roman,serif" font-size="14.00">rtr_engine_full</text>
</g>
<!-- node15&#45;&gt;node1 -->
<g id="edge27" class="edge">
<title>node15&#45;&gt;node1</title>
<path fill="none" stroke="black" stroke-dasharray="5,2" d="M106.46,-573.5C130.06,-587.81 167.48,-610.09 200.64,-628 214.44,-635.45 229.74,-643.2 243.48,-649.98"/>
<polygon fill="black" stroke="black" points="241.77,-653.03 252.29,-654.29 244.85,-646.75 241.77,-653.03"/>
</g>
<!-- node15&#45;&gt;node13 -->
<g id="edge26" class="edge">
<title>node15&#45;&gt;node13</title>
<path fill="none" stroke="black" stroke-dasharray="5,2" d="M133.64,-569.54C158.66,-574.73 189.18,-581.07 216.27,-586.69"/>
<polygon fill="black" stroke="black" points="215.26,-590.05 225.77,-588.66 216.69,-583.2 215.26,-590.05"/>
</g>
<!-- node16 -->
<g id="node25" class="node">
<title>node16</title>
<polygon fill="none" stroke="black" points="336.3,-407.54 336.3,-422.46 306.98,-433 265.53,-433 236.21,-422.46 236.21,-407.54 265.53,-397 306.98,-397 336.3,-407.54"/>
<text xml:space="preserve" text-anchor="middle" x="286.26" y="-409.95" font-family="Times New Roman,serif" font-size="14.00">rtr_imgui</text>
</g>
<!-- node15&#45;&gt;node16 -->
<g id="edge34" class="edge">
<title>node15&#45;&gt;node16</title>
<path fill="none" stroke="black" stroke-dasharray="5,2" d="M103.72,-544.13C138.87,-519.13 210.07,-468.49 252.1,-438.59"/>
<polygon fill="black" stroke="black" points="254,-441.53 260.12,-432.88 249.95,-435.82 254,-441.53"/>
</g>
<!-- node18 -->
<g id="node27" class="node">
<title>node18</title>
<polygon fill="none" stroke="black" points="345.72,-508.54 345.72,-523.46 310.89,-534 261.63,-534 226.8,-523.46 226.8,-508.54 261.63,-498 310.89,-498 345.72,-508.54"/>
<text xml:space="preserve" text-anchor="middle" x="286.26" y="-510.95" font-family="Times New Roman,serif" font-size="14.00">rtr_renderer</text>
</g>
<!-- node15&#45;&gt;node18 -->
<g id="edge39" class="edge">
<title>node15&#45;&gt;node18</title>
<path fill="none" stroke="black" stroke-dasharray="5,2" d="M137.6,-547.36C164.46,-541.66 196.89,-534.77 224.51,-528.9"/>
<polygon fill="black" stroke="black" points="225.09,-532.36 234.15,-526.86 223.64,-525.51 225.09,-532.36"/>
</g>
<!-- node16&#45;&gt;node3 -->
<g id="edge29" class="edge">
<title>node16&#45;&gt;node3</title>
<path fill="none" stroke="black" d="M336.59,-418.47C429.1,-425.35 621.6,-441.56 646.49,-459 669.77,-475.31 655.12,-496.18 675.49,-516 694.07,-534.08 719.84,-546.99 742.15,-555.65"/>
<polygon fill="black" stroke="black" points="740.76,-558.87 751.36,-559.04 743.18,-552.3 740.76,-558.87"/>
</g>
<!-- node16&#45;&gt;node12 -->
<g id="edge28" class="edge">
<title>node16&#45;&gt;node12</title>
<path fill="none" stroke="black" stroke-dasharray="1,5" d="M307.77,-396.99C337.8,-371.95 396.64,-327.8 455.87,-311 537.38,-287.89 568.22,-278.58 646.49,-311 663.33,-317.98 659.58,-331.11 675.49,-340 696.07,-351.49 721.37,-358.11 742.89,-361.92"/>
<polygon fill="black" stroke="black" points="742.15,-365.34 752.58,-363.47 743.26,-358.43 742.15,-365.34"/>
</g>
<!-- node17 -->
<g id="node26" class="node">
<title>node17</title>
<polygon fill="none" stroke="black" points="635.45,-384.54 635.45,-399.46 583.74,-410 510.62,-410 458.91,-399.46 458.91,-384.54 510.62,-374 583.74,-374 635.45,-384.54"/>
<text xml:space="preserve" text-anchor="middle" x="547.18" y="-386.95" font-family="Times New Roman,serif" font-size="14.00">rtr_imgui_backend</text>
</g>
<!-- node16&#45;&gt;node17 -->
<g id="edge33" class="edge">
<title>node16&#45;&gt;node17</title>
<path fill="none" stroke="black" stroke-dasharray="1,5" d="M336.57,-410.62C367.88,-407.84 409.52,-404.14 447.42,-400.77"/>
<polygon fill="black" stroke="black" points="447.37,-404.29 457.02,-399.92 446.75,-397.32 447.37,-404.29"/>
</g>
<!-- node17&#45;&gt;node8 -->
<g id="edge30" class="edge">
<title>node17&#45;&gt;node8</title>
<path fill="none" stroke="black" stroke-dasharray="1,5" d="M635.66,-399.36C643.05,-400.18 650.41,-401.06 657.49,-402 688.66,-406.14 723.72,-412.34 749.83,-417.26"/>
<polygon fill="black" stroke="black" points="748.83,-420.63 759.3,-419.06 750.14,-413.75 748.83,-420.63"/>
</g>
<!-- node17&#45;&gt;node9 -->
<g id="edge31" class="edge">
<title>node17&#45;&gt;node9</title>
<path fill="none" stroke="black" stroke-dasharray="1,5" d="M611.28,-404.75C627.33,-409.93 643.87,-417.1 657.49,-427 668.57,-435.05 664.31,-444.1 675.49,-452 695.8,-466.33 722.29,-474.49 744.6,-479.11"/>
<polygon fill="black" stroke="black" points="743.87,-482.53 754.34,-480.93 745.16,-475.65 743.87,-482.53"/>
</g>
<!-- node17&#45;&gt;node12 -->
<g id="edge32" class="edge">
<title>node17&#45;&gt;node12</title>
<path fill="none" stroke="black" d="M621.51,-381.21C633.2,-379.68 645.17,-378.21 656.49,-377 685.18,-373.94 717.46,-371.48 743,-369.77"/>
<polygon fill="black" stroke="black" points="742.96,-373.28 752.71,-369.14 742.51,-366.3 742.96,-373.28"/>
</g>
<!-- node18&#45;&gt;node3 -->
<g id="edge37" class="edge">
<title>node18&#45;&gt;node3</title>
<path fill="none" stroke="black" d="M345.82,-522.3C443.88,-532.85 639.88,-553.94 734.97,-564.17"/>
<polygon fill="black" stroke="black" points="734.51,-567.64 744.83,-565.23 735.26,-560.68 734.51,-567.64"/>
</g>
<!-- node18&#45;&gt;node7 -->
<g id="edge38" class="edge">
<title>node18&#45;&gt;node7</title>
<path fill="none" stroke="black" stroke-dasharray="1,5" d="M346.01,-509.19C384.12,-504.78 434.01,-499 474.45,-494.31"/>
<polygon fill="black" stroke="black" points="474.83,-497.79 484.36,-493.16 474.02,-490.84 474.83,-497.79"/>
</g>
<!-- node19 -->
<g id="node28" class="node">
<title>node19</title>
<polygon fill="none" stroke="black" points="596.67,-330.54 596.67,-345.46 567.68,-356 526.68,-356 497.69,-345.46 497.69,-330.54 526.68,-320 567.68,-320 596.67,-330.54"/>
<text xml:space="preserve" text-anchor="middle" x="547.18" y="-332.95" font-family="Times New Roman,serif" font-size="14.00">glm::glm</text>
</g>
<!-- node18&#45;&gt;node19 -->
<g id="edge36" class="edge">
<title>node18&#45;&gt;node19</title>
<path fill="none" stroke="black" d="M308.59,-497.59C325.77,-482.7 350.5,-461.14 371.87,-442 409.6,-408.22 411.83,-390 455.87,-365 466.55,-358.94 478.73,-354.11 490.61,-350.32"/>
<polygon fill="black" stroke="black" points="491.34,-353.75 499.93,-347.54 489.35,-347.04 491.34,-353.75"/>
</g>
<!-- node20 -->
<g id="node29" class="node">
<title>node20</title>
<polygon fill="none" stroke="black" points="904.92,-318.56 790.21,-331 675.49,-318.56 719.31,-298.44 861.11,-298.44 904.92,-318.56"/>
<text xml:space="preserve" text-anchor="middle" x="790.21" y="-307.95" font-family="Times New Roman,serif" font-size="14.00">glm::glm&#45;header&#45;only</text>
</g>
<!-- node19&#45;&gt;node20 -->
<g id="edge35" class="edge">
<title>node19&#45;&gt;node20</title>
<path fill="none" stroke="black" stroke-dasharray="5,2" d="M596.96,-332.94C624.15,-330.12 659.01,-326.5 691.55,-323.13"/>
<polygon fill="black" stroke="black" points="691.86,-326.62 701.45,-322.1 691.14,-319.65 691.86,-326.62"/>
</g>
</g>
</svg>
