<?xml version="1.0" encoding="UTF-8" standalone="no"?>
<!DOCTYPE svg PUBLIC "-//W3C//DTD SVG 1.1//EN"
 "http://www.w3.org/Graphics/SVG/1.1/DTD/svg11.dtd">
<!-- Generated by graphviz version 14.1.5 (20260411.2331)
 -->
<!-- Title: RTR Engine Architecture Pages: 1 -->
<svg width="1310pt" height="577pt"
 viewBox="0.00 0.00 1310.00 577.00" xmlns="http://www.w3.org/2000/svg" xmlns:xlink="http://www.w3.org/1999/xlink">
<g id="graph0" class="graph" transform="scale(1 1) rotate(0) translate(4 573)">
<title>RTR Engine Architecture</title>
<polygon fill="white" stroke="none" points="-4,4 -4,-573 1305.62,-573 1305.62,4 -4,4"/>
<g id="clust1" class="cluster">
<title>clusterLegend</title>
<polygon fill="none" stroke="black" points="8,-8 8,-274 606.24,-274 606.24,-8 8,-8"/>
<text xml:space="preserve" text-anchor="middle" x="307.12" y="-256.7" font-family="Segoe UI" font-size="14.00">Legend</text>
</g>
<!-- legendNode0 -->
<g id="node1" class="node">
<title>legendNode0</title>
<polygon fill="none" stroke="black" points="76.34,-113.05 79.73,-113.15 83.07,-113.3 86.37,-113.49 89.61,-113.74 92.78,-114.03 95.85,-114.36 98.83,-114.75 101.69,-115.18 104.44,-115.65 107.05,-116.16 109.52,-116.71 111.85,-117.31 114.01,-117.94 116.02,-118.61 117.86,-119.31 119.52,-120.04 121.01,-120.8 122.32,-121.59 123.45,-122.41 124.4,-123.25 125.17,-124.11 125.75,-124.99 126.16,-125.89 126.4,-126.8 126.46,-127.72 126.36,-128.65 126.09,-129.59 125.67,-130.53 125.09,-131.47 124.37,-132.41 123.51,-133.35 122.52,-134.28 121.4,-135.2 120.17,-136.11 118.83,-137.01 117.38,-137.89 115.84,-138.75 114.22,-139.59 112.51,-140.41 110.73,-141.2 108.89,-141.96 106.98,-142.69 105.02,-143.39 103.02,-144.06 100.97,-144.69 98.89,-145.29 96.77,-145.84 94.63,-146.35 92.46,-146.82 90.27,-147.25 88.07,-147.64 85.85,-147.97 83.62,-148.26 81.38,-148.51 79.13,-148.7 76.88,-148.85 74.62,-148.95 72.36,-149 70.1,-149 67.84,-148.95 65.59,-148.85 63.33,-148.7 61.09,-148.51 58.85,-148.26 56.61,-147.97 54.4,-147.64 52.19,-147.25 50,-146.82 47.83,-146.35 45.69,-145.84 43.57,-145.29 41.49,-144.69 39.44,-144.06 37.44,-143.39 35.48,-142.69 33.58,-141.96 31.73,-141.2 29.95,-140.41 28.25,-139.59 26.62,-138.75 25.08,-137.89 23.64,-137.01 22.29,-136.11 21.06,-135.2 19.95,-134.28 18.95,-133.35 18.09,-132.41 17.37,-131.47 16.8,-130.53 16.37,-129.59 16.1,-128.65 16,-127.72 16.06,-126.8 16.3,-125.89 16.71,-124.99 17.3,-124.11 18.06,-123.25 19.01,-122.41 20.14,-121.59 21.45,-120.8 22.94,-120.04 24.61,-119.31 26.44,-118.61 28.45,-117.94 30.62,-117.31 32.94,-116.71 35.41,-116.16 38.03,-115.65 40.77,-115.18 43.63,-114.75 46.61,-114.36 49.69,-114.03 52.85,-113.74 56.09,-113.49 59.39,-113.3 62.74,-113.15 66.12,-113.05 69.53,-113 72.94,-113 76.34,-113.05"/>
<text xml:space="preserve" text-anchor="middle" x="71.23" y="-125.95" font-family="Times New Roman,serif" font-size="14.00">Executable</text>
</g>
<!-- legendNode1 -->
<g id="node2" class="node">
<title>legendNode1</title>
<polygon fill="none" stroke="black" points="314.76,-150.54 314.76,-165.46 275.38,-176 219.7,-176 180.33,-165.46 180.33,-150.54 219.7,-140 275.38,-140 314.76,-150.54"/>
<text xml:space="preserve" text-anchor="middle" x="247.54" y="-152.95" font-family="Times New Roman,serif" font-size="14.00">Static Library</text>
</g>
<!-- legendNode0&#45;&gt;legendNode1 -->
<g id="edge1" class="edge">
<title>legendNode0&#45;&gt;legendNode1</title>
<path fill="none" stroke="black" d="M117.57,-138.02C135.03,-140.73 155.42,-143.89 174.76,-146.88"/>
<polygon fill="black" stroke="black" points="174.09,-150.32 184.5,-148.39 175.16,-143.4 174.09,-150.32"/>
</g>
<!-- legendNode2 -->
<g id="node3" class="node">
<title>legendNode2</title>
<polygon fill="none" stroke="black" points="319.74,-208.54 319.74,-223.46 277.45,-234 217.63,-234 175.34,-223.46 175.34,-208.54 217.63,-198 277.45,-198 319.74,-208.54"/>
<polygon fill="none" stroke="black" points="323.74,-205.42 323.74,-226.58 277.94,-238 217.14,-238 171.34,-226.58 171.34,-205.42 217.14,-194 277.94,-194 323.74,-205.42"/>
<text xml:space="preserve" text-anchor="middle" x="247.54" y="-210.95" font-family="Times New Roman,serif" font-size="14.00">Shared Library</text>
</g>
<!-- legendNode0&#45;&gt;legendNode2 -->
<g id="edge2" class="edge">
<title>legendNode0&#45;&gt;legendNode2</title>
<path fill="none" stroke="black" d="M95.61,-146.4C113.67,-157.91 139.55,-173.57 163.46,-185 170.54,-188.38 178.1,-191.65 185.66,-194.71"/>
<polygon fill="black" stroke="black" points="184.3,-197.94 194.89,-198.34 186.86,-191.42 184.3,-197.94"/>
</g>
<!-- legendNode3 -->
<g id="node4" class="node">
<title>legendNode3</title>
<polygon fill="none" stroke="black" points="323.62,-34.54 323.62,-49.46 279.05,-60 216.03,-60 171.46,-49.46 171.46,-34.54 216.03,-24 279.05,-24 323.62,-34.54"/>
<polygon fill="none" stroke="black" points="327.62,-31.38 327.62,-52.62 279.52,-64 215.56,-64 167.46,-52.62 167.46,-31.38 215.56,-20 279.52,-20 327.62,-31.38"/>
<polygon fill="none" stroke="black" points="331.62,-28.22 331.62,-55.78 279.99,-68 215.09,-68 163.46,-55.78 163.46,-28.22 215.09,-16 279.99,-16 331.62,-28.22"/>
<text xml:space="preserve" text-anchor="middle" x="247.54" y="-36.95" font-family="Times New Roman,serif" font-size="14.00">Module Library</text>
</g>
<!-- legendNode0&#45;&gt;legendNode3 -->
<!-- legendNode7 -->
<g id="node8" class="node">
<title>legendNode7</title>
<polygon fill="none" stroke="black" points="295.67,-122 199.42,-122 199.42,-86 295.67,-86 295.67,-122"/>
<text xml:space="preserve" text-anchor="middle" x="247.54" y="-98.95" font-family="Times New Roman,serif" font-size="14.00">Custom Target</text>
</g>
<!-- legendNode0&#45;&gt;legendNode7 -->
<!-- legendNode4 -->
<g id="node5" class="node">
<title>legendNode4</title>
<polygon fill="none" stroke="black" points="598.24,-163.56 506.93,-176 415.62,-163.56 450.5,-143.44 563.36,-143.44 598.24,-163.56"/>
<text xml:space="preserve" text-anchor="middle" x="506.93" y="-152.95" font-family="Times New Roman,serif" font-size="14.00">Interface Library</text>
</g>
<!-- legendNode1&#45;&gt;legendNode4 -->
<g id="edge4" class="edge">
<title>legendNode1&#45;&gt;legendNode4</title>
<path fill="none" stroke="black" stroke-dasharray="5,2" d="M315.16,-158C345.01,-158 380.71,-158 413.12,-158"/>
<polygon fill="black" stroke="black" points="412.91,-161.5 422.91,-158 412.91,-154.5 412.91,-161.5"/>
<text xml:space="preserve" text-anchor="middle" x="373.62" y="-161.2" font-family="Times New Roman,serif" font-size="14.00">Interface</text>
</g>
<!-- legendNode5 -->
<g id="node6" class="node">
<title>legendNode5</title>
<polygon fill="none" stroke="black" points="582.77,-216 544.85,-234 469.01,-234 431.09,-216 469.01,-198 544.85,-198 582.77,-216"/>
<text xml:space="preserve" text-anchor="middle" x="506.93" y="-210.95" font-family="Times New Roman,serif" font-size="14.00">Object Library</text>
</g>
<!-- legendNode2&#45;&gt;legendNode5 -->
<g id="edge5" class="edge">
<title>legendNode2&#45;&gt;legendNode5</title>
<path fill="none" stroke="black" stroke-dasharray="1,5" d="M324.03,-216C353.75,-216 388.07,-216 418.84,-216"/>
<polygon fill="black" stroke="black" points="418.49,-219.5 428.49,-216 418.49,-212.5 418.49,-219.5"/>
<text xml:space="preserve" text-anchor="middle" x="373.62" y="-219.2" font-family="Times New Roman,serif" font-size="14.00">Private</text>
</g>
<!-- legendNode6 -->
<g id="node7" class="node">
<title>legendNode6</title>
<polygon fill="none" stroke="black" points="592.9,-37.99 575.87,-53.22 506.93,-60 437.99,-53.22 420.96,-37.99 468.67,-25.78 545.19,-25.78 592.9,-37.99"/>
<text xml:space="preserve" text-anchor="middle" x="506.93" y="-36.95" font-family="Times New Roman,serif" font-size="14.00">Unknown Library</text>
</g>
<!-- legendNode3&#45;&gt;legendNode6 -->
<g id="edge6" class="edge">
<title>legendNode3&#45;&gt;legendNode6</title>
<path fill="none" stroke="black" d="M332.11,-42C358.18,-42 387.08,-42 413.72,-42"/>
<polygon fill="black" stroke="black" points="413.46,-45.5 423.46,-42 413.46,-38.5 413.46,-45.5"/>
</g>
<!-- node0 -->
<g id="node9" class="node">
<title>node0</title>
<polygon fill="none" stroke="black" points="75.48,-382.05 78.3,-382.15 81.09,-382.3 83.83,-382.49 86.53,-382.74 89.16,-383.03 91.72,-383.36 94.2,-383.75 96.58,-384.18 98.87,-384.65 101.04,-385.16 103.1,-385.71 105.03,-386.31 106.84,-386.94 108.5,-387.61 110.03,-388.31 111.42,-389.04 112.66,-389.8 113.75,-390.59 114.69,-391.41 115.48,-392.25 116.12,-393.11 116.61,-393.99 116.95,-394.89 117.14,-395.8 117.2,-396.72 117.11,-397.65 116.89,-398.59 116.53,-399.53 116.05,-400.47 115.45,-401.41 114.74,-402.35 113.91,-403.28 112.98,-404.2 111.96,-405.11 110.84,-406.01 109.64,-406.89 108.36,-407.75 107,-408.59 105.58,-409.41 104.1,-410.2 102.57,-410.96 100.98,-411.69 99.35,-412.39 97.69,-413.06 95.98,-413.69 94.25,-414.29 92.49,-414.84 90.7,-415.35 88.9,-415.82 87.08,-416.25 85.24,-416.64 83.4,-416.97 81.54,-417.26 79.67,-417.51 77.8,-417.7 75.93,-417.85 74.05,-417.95 72.17,-418 70.29,-418 68.41,-417.95 66.53,-417.85 64.66,-417.7 62.79,-417.51 60.92,-417.26 59.07,-416.97 57.22,-416.64 55.38,-416.25 53.56,-415.82 51.76,-415.35 49.98,-414.84 48.21,-414.29 46.48,-413.69 44.78,-413.06 43.11,-412.39 41.48,-411.69 39.89,-410.96 38.36,-410.2 36.88,-409.41 35.46,-408.59 34.1,-407.75 32.82,-406.89 31.62,-406.01 30.5,-405.11 29.48,-404.2 28.55,-403.28 27.72,-402.35 27.01,-401.41 26.41,-400.47 25.93,-399.53 25.57,-398.59 25.35,-397.65 25.27,-396.72 25.32,-395.8 25.51,-394.89 25.86,-393.99 26.34,-393.11 26.98,-392.25 27.77,-391.41 28.71,-390.59 29.8,-389.8 31.04,-389.04 32.43,-388.31 33.96,-387.61 35.63,-386.94 37.43,-386.31 39.36,-385.71 41.42,-385.16 43.6,-384.65 45.88,-384.18 48.26,-383.75 50.74,-383.36 53.3,-383.03 55.93,-382.74 58.63,-382.49 61.37,-382.3 64.16,-382.15 66.98,-382.05 69.81,-382 72.65,-382 75.48,-382.05"/>
<text xml:space="preserve" text-anchor="middle" x="71.23" y="-394.95" font-family="Times New Roman,serif" font-size="14.00">Sandbox</text>
</g>
<!-- node0&#45;&gt;node0 -->
<g id="edge8" class="edge">
<title>node0&#45;&gt;node0</title>
<path fill="none" stroke="black" d="M58.17,-417.04C55.5,-426.86 59.85,-436 71.23,-436 77.81,-436 82.04,-432.94 83.92,-428.47"/>
<polygon fill="black" stroke="black" points="87.42,-428.66 84.25,-418.55 80.42,-428.43 87.42,-428.66"/>
</g>
<!-- node1 -->
<g id="node10" class="node">
<title>node1</title>
<polygon fill="none" stroke="black" points="307.85,-405.56 247.54,-418 187.23,-405.56 210.27,-385.44 284.82,-385.44 307.85,-405.56"/>
<text xml:space="preserve" text-anchor="middle" x="247.54" y="-394.95" font-family="Times New Roman,serif" font-size="14.00">rtr_engine</text>
</g>
<!-- node0&#45;&gt;node1 -->
<g id="edge33" class="edge">
<title>node0&#45;&gt;node1</title>
<path fill="none" stroke="black" stroke-dasharray="1,5" d="M116.67,-400C136.33,-400 159.85,-400 181.44,-400"/>
<polygon fill="black" stroke="black" points="181.35,-403.5 191.35,-400 181.35,-396.5 181.35,-403.5"/>
</g>
<!-- node2 -->
<g id="node11" class="node">
<title>node2</title>
<polygon fill="none" stroke="black" points="556.42,-438.54 556.42,-453.46 527.43,-464 486.43,-464 457.44,-453.46 457.44,-438.54 486.43,-428 527.43,-428 556.42,-438.54"/>
<text xml:space="preserve" text-anchor="middle" x="506.93" y="-440.95" font-family="Times New Roman,serif" font-size="14.00">rtr_assets</text>
</g>
<!-- node1&#45;&gt;node2 -->
<g id="edge14" class="edge">
<title>node1&#45;&gt;node2</title>
<path fill="none" stroke="black" stroke-dasharray="5,2" d="M296.05,-408.49C338.77,-416.12 401.65,-427.36 447.45,-435.55"/>
<polygon fill="black" stroke="black" points="446.75,-438.98 457.21,-437.29 447.98,-432.09 446.75,-438.98"/>
</g>
<!-- node3 -->
<g id="node12" class="node">
<title>node3</title>
<polygon fill="none" stroke="black" points="766.9,-392.54 766.9,-407.46 741.48,-418 705.53,-418 680.11,-407.46 680.11,-392.54 705.53,-382 741.48,-382 766.9,-392.54"/>
<text xml:space="preserve" text-anchor="middle" x="723.51" y="-394.95" font-family="Times New Roman,serif" font-size="14.00">rtr_core</text>
</g>
<!-- node1&#45;&gt;node3 -->
<g id="edge15" class="edge">
<title>node1&#45;&gt;node3</title>
<path fill="none" stroke="black" stroke-dasharray="5,2" d="M301.99,-400C392.91,-400 576.69,-400 668.19,-400"/>
<polygon fill="black" stroke="black" points="668.16,-403.5 678.16,-400 668.16,-396.5 668.16,-403.5"/>
</g>
<!-- node8 -->
<g id="node17" class="node">
<title>node8</title>
<polygon fill="none" stroke="black" points="556.97,-496.54 556.97,-511.46 527.66,-522 486.2,-522 456.89,-511.46 456.89,-496.54 486.2,-486 527.66,-486 556.97,-496.54"/>
<text xml:space="preserve" text-anchor="middle" x="506.93" y="-498.95" font-family="Times New Roman,serif" font-size="14.00">rtr_imgui</text>
</g>
<!-- node1&#45;&gt;node8 -->
<g id="edge22" class="edge">
<title>node1&#45;&gt;node8</title>
<path fill="none" stroke="black" stroke-dasharray="5,2" d="M275.46,-412.57C308.25,-427.69 365.48,-453.48 415.62,-473 429.27,-478.32 444.26,-483.65 458.04,-488.37"/>
<polygon fill="black" stroke="black" points="456.75,-491.63 467.34,-491.52 458.99,-485 456.75,-491.63"/>
</g>
<!-- node13 -->
<g id="node22" class="node">
<title>node13</title>
<polygon fill="none" stroke="black" points="566.39,-346.54 566.39,-361.46 531.56,-372 482.3,-372 447.47,-361.46 447.47,-346.54 482.3,-336 531.56,-336 566.39,-346.54"/>
<text xml:space="preserve" text-anchor="middle" x="506.93" y="-348.95" font-family="Times New Roman,serif" font-size="14.00">rtr_renderer</text>
</g>
<!-- node1&#45;&gt;node13 -->
<g id="edge29" class="edge">
<title>node1&#45;&gt;node13</title>
<path fill="none" stroke="black" stroke-dasharray="5,2" d="M293.08,-392.04C334.15,-384.7 395.59,-373.72 441.92,-365.44"/>
<polygon fill="black" stroke="black" points="442.33,-368.92 451.56,-363.72 441.1,-362.03 442.33,-368.92"/>
</g>
<!-- node17 -->
<g id="node26" class="node">
<title>node17</title>
<polygon fill="none" stroke="black" points="555.31,-292.54 555.31,-307.46 526.97,-318 486.89,-318 458.55,-307.46 458.55,-292.54 486.89,-282 526.97,-282 555.31,-292.54"/>
<text xml:space="preserve" text-anchor="middle" x="506.93" y="-294.95" font-family="Times New Roman,serif" font-size="14.00">rtr_scene</text>
</g>
<!-- node1&#45;&gt;node17 -->
<g id="edge32" class="edge">
<title>node1&#45;&gt;node17</title>
<path fill="none" stroke="black" stroke-dasharray="5,2" d="M279.8,-384.98C313.02,-369.34 367.32,-344.7 415.62,-327 428.47,-322.29 442.55,-317.78 455.7,-313.84"/>
<polygon fill="black" stroke="black" points="456.41,-317.28 465.02,-311.1 454.44,-310.56 456.41,-317.28"/>
</g>
<!-- node2&#45;&gt;node3 -->
<g id="edge12" class="edge">
<title>node2&#45;&gt;node3</title>
<path fill="none" stroke="black" d="M552.13,-436.52C586.71,-429.11 634.85,-418.79 671.14,-411.01"/>
<polygon fill="black" stroke="black" points="671.47,-414.52 680.51,-409 670,-407.68 671.47,-414.52"/>
</g>
<!-- node7 -->
<g id="node16" class="node">
<title>node7</title>
<polygon fill="none" stroke="black" points="750.51,-446.54 750.51,-461.46 734.69,-472 712.32,-472 696.51,-461.46 696.51,-446.54 712.32,-436 734.69,-436 750.51,-446.54"/>
<text xml:space="preserve" text-anchor="middle" x="723.51" y="-448.95" font-family="Times New Roman,serif" font-size="14.00">stb</text>
</g>
<!-- node2&#45;&gt;node7 -->
<g id="edge13" class="edge">
<title>node2&#45;&gt;node7</title>
<path fill="none" stroke="black" stroke-dasharray="1,5" d="M556.89,-447.83C595.79,-449.28 649.38,-451.27 684.94,-452.6"/>
<polygon fill="black" stroke="black" points="684.62,-456.09 694.75,-452.97 684.89,-449.09 684.62,-456.09"/>
</g>
<!-- node4 -->
<g id="node13" class="node">
<title>node4</title>
<polygon fill="none" stroke="black" points="1034.03,-413.54 1034.03,-428.46 992.71,-439 934.27,-439 892.95,-428.46 892.95,-413.54 934.27,-403 992.71,-403 1034.03,-413.54"/>
<polygon fill="none" stroke="black" points="1038.03,-410.44 1038.03,-431.56 993.21,-443 933.77,-443 888.95,-431.56 888.95,-410.44 933.77,-399 993.21,-399 1038.03,-410.44"/>
<text xml:space="preserve" text-anchor="middle" x="963.49" y="-415.95" font-family="Times New Roman,serif" font-size="14.00">spdlog::spdlog</text>
</g>
<!-- node3&#45;&gt;node4 -->
<g id="edge11" class="edge">
<title>node3&#45;&gt;node4</title>
<path fill="none" stroke="black" d="M767.33,-403.78C797.89,-406.48 840.02,-410.19 877.31,-413.48"/>
<polygon fill="black" stroke="black" points="876.94,-416.96 887.2,-414.36 877.55,-409.99 876.94,-416.96"/>
</g>
<!-- node5 -->
<g id="node14" class="node">
<title>node5</title>
<polygon fill="none" stroke="black" points="1301.62,-455.56 1208.42,-468 1115.21,-455.56 1150.81,-435.44 1266.02,-435.44 1301.62,-455.56"/>
<text xml:space="preserve" text-anchor="middle" x="1208.42" y="-444.95" font-family="Times New Roman,serif" font-size="14.00">Threads::Threads</text>
</g>
<!-- node4&#45;&gt;node5 -->
<g id="edge9" class="edge">
<title>node4&#45;&gt;node5</title>
<path fill="none" stroke="black" stroke-dasharray="5,2" d="M1038.37,-429.82C1066.59,-433.19 1098.88,-437.04 1127.62,-440.47"/>
<polygon fill="black" stroke="black" points="1127.02,-443.93 1137.36,-441.64 1127.85,-436.98 1127.02,-443.93"/>
</g>
<!-- node6 -->
<g id="node15" class="node">
<title>node6</title>
<polygon fill="none" stroke="black" points="1254.58,-384.54 1254.58,-399.46 1227.54,-410 1189.29,-410 1162.25,-399.46 1162.25,-384.54 1189.29,-374 1227.54,-374 1254.58,-384.54"/>
<polygon fill="none" stroke="black" points="1258.58,-381.81 1258.58,-402.19 1228.29,-414 1188.54,-414 1158.25,-402.19 1158.25,-381.81 1188.54,-370 1228.29,-370 1258.58,-381.81"/>
<text xml:space="preserve" text-anchor="middle" x="1208.42" y="-386.95" font-family="Times New Roman,serif" font-size="14.00">fmt::fmt</text>
</g>
<!-- node4&#45;&gt;node6 -->
<g id="edge10" class="edge">
<title>node4&#45;&gt;node6</title>
<path fill="none" stroke="black" stroke-dasharray="5,2" d="M1038.37,-412.18C1073.08,-408.04 1113.95,-403.16 1146.81,-399.23"/>
<polygon fill="black" stroke="black" points="1147.06,-402.73 1156.57,-398.07 1146.23,-395.78 1147.06,-402.73"/>
</g>
<!-- node8&#45;&gt;node3 -->
<g id="edge17" class="edge">
<title>node8&#45;&gt;node3</title>
<path fill="none" stroke="black" d="M556.41,-495.88C573.42,-491.26 591.86,-484.09 606.24,-473 625.38,-458.24 616.06,-441.71 635.24,-427 645.07,-419.46 657.02,-414.01 668.89,-410.08"/>
<polygon fill="black" stroke="black" points="669.65,-413.5 678.25,-407.3 667.66,-406.79 669.65,-413.5"/>
</g>
<!-- node9 -->
<g id="node18" class="node">
<title>node9</title>
<polygon fill="none" stroke="black" points="999.13,-543.54 999.13,-558.46 978.25,-569 948.73,-569 927.85,-558.46 927.85,-543.54 948.73,-533 978.25,-533 999.13,-543.54"/>
<text xml:space="preserve" text-anchor="middle" x="963.49" y="-545.95" font-family="Times New Roman,serif" font-size="14.00">imgui</text>
</g>
<!-- node8&#45;&gt;node9 -->
<g id="edge16" class="edge">
<title>node8&#45;&gt;node9</title>
<path fill="none" stroke="black" d="M546.84,-515.51C571.86,-522.4 605.19,-530.65 635.24,-535 734.61,-549.39 852.53,-551.55 916.17,-551.49"/>
<polygon fill="black" stroke="black" points="915.91,-554.99 925.9,-551.46 915.89,-547.99 915.91,-554.99"/>
</g>
<!-- node10 -->
<g id="node19" class="node">
<title>node10</title>
<polygon fill="none" stroke="black" points="811.77,-500.54 811.77,-515.46 760.07,-526 686.95,-526 635.24,-515.46 635.24,-500.54 686.95,-490 760.07,-490 811.77,-500.54"/>
<text xml:space="preserve" text-anchor="middle" x="723.51" y="-502.95" font-family="Times New Roman,serif" font-size="14.00">rtr_imgui_backend</text>
</g>
<!-- node8&#45;&gt;node10 -->
<g id="edge21" class="edge">
<title>node8&#45;&gt;node10</title>
<path fill="none" stroke="black" stroke-dasharray="1,5" d="M557.43,-504.92C577.21,-505.29 600.73,-505.73 623.73,-506.16"/>
<polygon fill="black" stroke="black" points="623.38,-509.65 633.44,-506.34 623.51,-502.65 623.38,-509.65"/>
</g>
<!-- node10&#45;&gt;node9 -->
<g id="edge20" class="edge">
<title>node10&#45;&gt;node9</title>
<path fill="none" stroke="black" d="M791.43,-520.09C831.38,-527.31 881.07,-536.29 916.59,-542.71"/>
<polygon fill="black" stroke="black" points="915.64,-546.09 926.1,-544.43 916.89,-539.2 915.64,-546.09"/>
</g>
<!-- node11 -->
<g id="node20" class="node">
<title>node11</title>
<polygon fill="none" stroke="black" points="992.48,-346.54 992.48,-361.46 975.5,-372 951.48,-372 934.5,-361.46 934.5,-346.54 951.48,-336 975.5,-336 992.48,-346.54"/>
<text xml:space="preserve" text-anchor="middle" x="963.49" y="-348.95" font-family="Times New Roman,serif" font-size="14.00">glad</text>
</g>
<!-- node10&#45;&gt;node11 -->
<g id="edge18" class="edge">
<title>node10&#45;&gt;node11</title>
<path fill="none" stroke="black" stroke-dasharray="1,5" d="M788.65,-495.5C797.09,-491.84 805.11,-487.11 811.77,-481 843.95,-451.49 816.7,-419.62 848.77,-390 869.04,-371.29 899,-362.3 923.09,-357.99"/>
<polygon fill="black" stroke="black" points="923.53,-361.46 932.87,-356.45 922.45,-354.54 923.53,-361.46"/>
</g>
<!-- node12 -->
<g id="node21" class="node">
<title>node12</title>
<polygon fill="none" stroke="black" points="993.59,-479.54 993.59,-494.46 975.96,-505 951.02,-505 933.39,-494.46 933.39,-479.54 951.02,-469 975.96,-469 993.59,-479.54"/>
<polygon fill="none" stroke="black" points="997.59,-477.28 997.59,-496.72 977.06,-509 949.92,-509 929.39,-496.72 929.39,-477.28 949.92,-465 977.06,-465 997.59,-477.28"/>
<text xml:space="preserve" text-anchor="middle" x="963.49" y="-481.95" font-family="Times New Roman,serif" font-size="14.00">glfw</text>
</g>
<!-- node10&#45;&gt;node12 -->
<g id="edge19" class="edge">
<title>node10&#45;&gt;node12</title>
<path fill="none" stroke="black" stroke-dasharray="1,5" d="M812.11,-500.27C848.03,-497.1 888.06,-493.57 917.78,-490.95"/>
<polygon fill="black" stroke="black" points="917.88,-494.45 927.53,-490.08 917.26,-487.48 917.88,-494.45"/>
</g>
<!-- node13&#45;&gt;node3 -->
<g id="edge25" class="edge">
<title>node13&#45;&gt;node3</title>
<path fill="none" stroke="black" d="M557.43,-364.61C591.34,-371.88 636.24,-381.51 670.65,-388.88"/>
<polygon fill="black" stroke="black" points="669.9,-392.3 680.41,-390.97 671.36,-385.46 669.9,-392.3"/>
</g>
<!-- node14 -->
<g id="node23" class="node">
<title>node14</title>
<polygon fill="none" stroke="black" points="773,-284.54 773,-299.46 744.01,-310 703.01,-310 674.02,-299.46 674.02,-284.54 703.01,-274 744.01,-274 773,-284.54"/>
<text xml:space="preserve" text-anchor="middle" x="723.51" y="-286.95" font-family="Times New Roman,serif" font-size="14.00">glm::glm</text>
</g>
<!-- node13&#45;&gt;node14 -->
<g id="edge24" class="edge">
<title>node13&#45;&gt;node14</title>
<path fill="none" stroke="black" d="M552.53,-342C569.38,-337.4 588.72,-332.04 606.24,-327 628.39,-320.63 652.83,-313.31 673.56,-307.02"/>
<polygon fill="black" stroke="black" points="674.35,-310.44 682.9,-304.18 672.32,-303.74 674.35,-310.44"/>
</g>
<!-- node16 -->
<g id="node25" class="node">
<title>node16</title>
<polygon fill="none" stroke="black" points="784.63,-338.54 784.63,-353.46 748.82,-364 698.19,-364 662.39,-353.46 662.39,-338.54 698.19,-328 748.82,-328 784.63,-338.54"/>
<text xml:space="preserve" text-anchor="middle" x="723.51" y="-340.95" font-family="Times New Roman,serif" font-size="14.00">rtr_platform</text>
</g>
<!-- node13&#45;&gt;node16 -->
<g id="edge28" class="edge">
<title>node13&#45;&gt;node16</title>
<path fill="none" stroke="black" stroke-dasharray="1,5" d="M566.85,-351.8C592.79,-350.84 623.51,-349.69 650.78,-348.67"/>
<polygon fill="black" stroke="black" points="650.85,-352.17 660.72,-348.3 650.59,-345.18 650.85,-352.17"/>
</g>
<!-- node15 -->
<g id="node24" class="node">
<title>node15</title>
<polygon fill="none" stroke="black" points="1078.21,-297.56 963.49,-310 848.77,-297.56 892.59,-277.44 1034.39,-277.44 1078.21,-297.56"/>
<text xml:space="preserve" text-anchor="middle" x="963.49" y="-286.95" font-family="Times New Roman,serif" font-size="14.00">glm::glm&#45;header&#45;only</text>
</g>
<!-- node14&#45;&gt;node15 -->
<g id="edge23" class="edge">
<title>node14&#45;&gt;node15</title>
<path fill="none" stroke="black" stroke-dasharray="5,2" d="M773.24,-292C795.14,-292 821.97,-292 848.48,-292"/>
<polygon fill="black" stroke="black" points="848.29,-295.5 858.29,-292 848.29,-288.5 848.29,-295.5"/>
</g>
<!-- node16&#45;&gt;node11 -->
<g id="edge26" class="edge">
<title>node16&#45;&gt;node11</title>
<path fill="none" stroke="black" stroke-dasharray="1,5" d="M784.87,-348.03C828.11,-349.48 885.12,-351.4 922.75,-352.66"/>
<polygon fill="black" stroke="black" points="922.62,-356.16 932.73,-353 922.85,-349.17 922.62,-356.16"/>
</g>
<!-- node16&#45;&gt;node12 -->
<g id="edge27" class="edge">
<title>node16&#45;&gt;node12</title>
<path fill="none" stroke="black" stroke-dasharray="1,5" d="M779.33,-355.38C791,-359.34 802.56,-364.98 811.77,-373 841.01,-398.46 819.52,-426.56 848.77,-452 867.98,-468.7 895.03,-477.43 917.93,-481.99"/>
<polygon fill="black" stroke="black" points="917.18,-485.42 927.64,-483.71 918.4,-478.52 917.18,-485.42"/>
</g>
<!-- node17&#45;&gt;node3 -->
<g id="edge31" class="edge">
<title>node17&#45;&gt;node3</title>
<path fill="none" stroke="black" d="M555.61,-305.77C572.82,-309.65 591.6,-316.14 606.24,-327 625.65,-341.4 616.06,-358.29 635.24,-373 645.07,-380.54 657.02,-385.99 668.89,-389.92"/>
<polygon fill="black" stroke="black" points="667.66,-393.21 678.25,-392.7 669.65,-386.5 667.66,-393.21"/>
</g>
<!-- node18 -->
<g id="node27" class="node">
<title>node18</title>
<polygon fill="none" stroke="black" points="795.84,-243.56 723.51,-256 651.18,-243.56 678.8,-223.44 768.21,-223.44 795.84,-243.56"/>
<text xml:space="preserve" text-anchor="middle" x="723.51" y="-232.95" font-family="Times New Roman,serif" font-size="14.00">EnTT::EnTT</text>
</g>
<!-- node17&#45;&gt;node18 -->
<g id="edge30" class="edge">
<title>node17&#45;&gt;node18</title>
<path fill="none" stroke="black" stroke-dasharray="1,5" d="M553.97,-291.7C570.64,-288.17 589.48,-283.57 606.24,-278 619.64,-273.55 622.02,-269.99 635.24,-265 646.83,-260.63 659.47,-256.41 671.44,-252.66"/>
<polygon fill="black" stroke="black" points="672.21,-256.08 680.75,-249.8 670.16,-249.39 672.21,-256.08"/>
</g>
</g>
</svg>
