<?xml version="1.0" encoding="UTF-8" standalone="no"?>
<!DOCTYPE svg PUBLIC "-//W3C//DTD SVG 1.1//EN"
 "http://www.w3.org/Graphics/SVG/1.1/DTD/svg11.dtd">
<!-- Generated by graphviz version 14.1.5 (20260411.2331)
 -->
<!-- Title: RTR Engine Architecture Pages: 1 -->
<svg width="1500pt" height="722pt"
 viewBox="0.00 0.00 1500.00 722.00" xmlns="http://www.w3.org/2000/svg" xmlns:xlink="http://www.w3.org/1999/xlink">
<g id="graph0" class="graph" transform="scale(1 1) rotate(0) translate(4 718)">
<title>RTR Engine Architecture</title>
<polygon fill="white" stroke="none" points="-4,4 -4,-718 1496.13,-718 1496.13,4 -4,4"/>
<g id="clust1" class="cluster">
<title>clusterLegend</title>
<polygon fill="none" stroke="black" points="8,-8 8,-274 606.24,-274 606.24,-8 8,-8"/>
<text xml:space="preserve" text-anchor="middle" x="307.12" y="-256.7" font-family="Segoe UI" font-size="14.00">Legend</text>
</g>
<!-- legendNode0 -->
<g id="node1" class="node">
<title>legendNode0</title>
<polygon fill="none" stroke="black" points="76.34,-107.05 79.73,-107.15 83.07,-107.3 86.37,-107.49 89.61,-107.74 92.78,-108.03 95.85,-108.36 98.83,-108.75 101.69,-109.18 104.44,-109.65 107.05,-110.16 109.52,-110.71 111.85,-111.31 114.01,-111.94 116.02,-112.61 117.86,-113.31 119.52,-114.04 121.01,-114.8 122.32,-115.59 123.45,-116.41 124.4,-117.25 125.17,-118.11 125.75,-118.99 126.16,-119.89 126.4,-120.8 126.46,-121.72 126.36,-122.65 126.09,-123.59 125.67,-124.53 125.09,-125.47 124.37,-126.41 123.51,-127.35 122.52,-128.28 121.4,-129.2 120.17,-130.11 118.83,-131.01 117.38,-131.89 115.84,-132.75 114.22,-133.59 112.51,-134.41 110.73,-135.2 108.89,-135.96 106.98,-136.69 105.02,-137.39 103.02,-138.06 100.97,-138.69 98.89,-139.29 96.77,-139.84 94.63,-140.35 92.46,-140.82 90.27,-141.25 88.07,-141.64 85.85,-141.97 83.62,-142.26 81.38,-142.51 79.13,-142.7 76.88,-142.85 74.62,-142.95 72.36,-143 70.1,-143 67.84,-142.95 65.59,-142.85 63.33,-142.7 61.09,-142.51 58.85,-142.26 56.61,-141.97 54.4,-141.64 52.19,-141.25 50,-140.82 47.83,-140.35 45.69,-139.84 43.57,-139.29 41.49,-138.69 39.44,-138.06 37.44,-137.39 35.48,-136.69 33.58,-135.96 31.73,-135.2 29.95,-134.41 28.25,-133.59 26.62,-132.75 25.08,-131.89 23.64,-131.01 22.29,-130.11 21.06,-129.2 19.95,-128.28 18.95,-127.35 18.09,-126.41 17.37,-125.47 16.8,-124.53 16.37,-123.59 16.1,-122.65 16,-121.72 16.06,-120.8 16.3,-119.89 16.71,-118.99 17.3,-118.11 18.06,-117.25 19.01,-116.41 20.14,-115.59 21.45,-114.8 22.94,-114.04 24.61,-113.31 26.44,-112.61 28.45,-111.94 30.62,-111.31 32.94,-110.71 35.41,-110.16 38.03,-109.65 40.77,-109.18 43.63,-108.75 46.61,-108.36 49.69,-108.03 52.85,-107.74 56.09,-107.49 59.39,-107.3 62.74,-107.15 66.12,-107.05 69.53,-107 72.94,-107 76.34,-107.05"/>
<text xml:space="preserve" text-anchor="middle" x="71.23" y="-119.95" font-family="Times New Roman,serif" font-size="14.00">Executable</text>
</g>
<!-- legendNode1 -->
<g id="node2" class="node">
<title>legendNode1</title>
<polygon fill="none" stroke="black" points="314.76,-26.54 314.76,-41.46 275.38,-52 219.7,-52 180.33,-41.46 180.33,-26.54 219.7,-16 275.38,-16 314.76,-26.54"/>
<text xml:space="preserve" text-anchor="middle" x="247.54" y="-28.95" font-family="Times New Roman,serif" font-size="14.00">Static Library</text>
</g>
<!-- legendNode0&#45;&gt;legendNode1 -->
<g id="edge1" class="edge">
<title>legendNode0&#45;&gt;legendNode1</title>
<path fill="none" stroke="black" d="M92.85,-107.84C110.64,-93.71 137.5,-73.96 163.46,-61 171.29,-57.09 179.8,-53.58 188.3,-50.48"/>
<polygon fill="black" stroke="black" points="189.26,-53.84 197.56,-47.26 186.97,-47.23 189.26,-53.84"/>
</g>
<!-- legendNode2 -->
<g id="node3" class="node">
<title>legendNode2</title>
<polygon fill="none" stroke="black" points="319.74,-84.54 319.74,-99.46 277.45,-110 217.63,-110 175.34,-99.46 175.34,-84.54 217.63,-74 277.45,-74 319.74,-84.54"/>
<polygon fill="none" stroke="black" points="323.74,-81.42 323.74,-102.58 277.94,-114 217.14,-114 171.34,-102.58 171.34,-81.42 217.14,-70 277.94,-70 323.74,-81.42"/>
<text xml:space="preserve" text-anchor="middle" x="247.54" y="-86.95" font-family="Times New Roman,serif" font-size="14.00">Shared Library</text>
</g>
<!-- legendNode0&#45;&gt;legendNode2 -->
<g id="edge2" class="edge">
<title>legendNode0&#45;&gt;legendNode2</title>
<path fill="none" stroke="black" d="M122.65,-115.46C136.73,-112.79 152.37,-109.83 167.67,-106.93"/>
<polygon fill="black" stroke="black" points="168.06,-110.42 177.24,-105.12 166.76,-103.54 168.06,-110.42"/>
</g>
<!-- legendNode3 -->
<g id="node4" class="node">
<title>legendNode3</title>
<polygon fill="none" stroke="black" points="323.62,-150.54 323.62,-165.46 279.05,-176 216.03,-176 171.46,-165.46 171.46,-150.54 216.03,-140 279.05,-140 323.62,-150.54"/>
<polygon fill="none" stroke="black" points="327.62,-147.38 327.62,-168.62 279.52,-180 215.56,-180 167.46,-168.62 167.46,-147.38 215.56,-136 279.52,-136 327.62,-147.38"/>
<polygon fill="none" stroke="black" points="331.62,-144.22 331.62,-171.78 279.99,-184 215.09,-184 163.46,-171.78 163.46,-144.22 215.09,-132 279.99,-132 331.62,-144.22"/>
<text xml:space="preserve" text-anchor="middle" x="247.54" y="-152.95" font-family="Times New Roman,serif" font-size="14.00">Module Library</text>
</g>
<!-- legendNode0&#45;&gt;legendNode3 -->
<!-- legendNode7 -->
<g id="node8" class="node">
<title>legendNode7</title>
<polygon fill="none" stroke="black" points="295.67,-238 199.42,-238 199.42,-202 295.67,-202 295.67,-238"/>
<text xml:space="preserve" text-anchor="middle" x="247.54" y="-214.95" font-family="Times New Roman,serif" font-size="14.00">Custom Target</text>
</g>
<!-- legendNode0&#45;&gt;legendNode7 -->
<!-- legendNode4 -->
<g id="node5" class="node">
<title>legendNode4</title>
<polygon fill="none" stroke="black" points="598.24,-39.56 506.93,-52 415.62,-39.56 450.5,-19.44 563.36,-19.44 598.24,-39.56"/>
<text xml:space="preserve" text-anchor="middle" x="506.93" y="-28.95" font-family="Times New Roman,serif" font-size="14.00">Interface Library</text>
</g>
<!-- legendNode1&#45;&gt;legendNode4 -->
<g id="edge4" class="edge">
<title>legendNode1&#45;&gt;legendNode4</title>
<path fill="none" stroke="black" stroke-dasharray="5,2" d="M315.16,-34C345.01,-34 380.71,-34 413.12,-34"/>
<polygon fill="black" stroke="black" points="412.91,-37.5 422.91,-34 412.91,-30.5 412.91,-37.5"/>
<text xml:space="preserve" text-anchor="middle" x="373.62" y="-37.2" font-family="Times New Roman,serif" font-size="14.00">Interface</text>
</g>
<!-- legendNode5 -->
<g id="node6" class="node">
<title>legendNode5</title>
<polygon fill="none" stroke="black" points="582.77,-92 544.85,-110 469.01,-110 431.09,-92 469.01,-74 544.85,-74 582.77,-92"/>
<text xml:space="preserve" text-anchor="middle" x="506.93" y="-86.95" font-family="Times New Roman,serif" font-size="14.00">Object Library</text>
</g>
<!-- legendNode2&#45;&gt;legendNode5 -->
<g id="edge5" class="edge">
<title>legendNode2&#45;&gt;legendNode5</title>
<path fill="none" stroke="black" stroke-dasharray="1,5" d="M324.03,-92C353.75,-92 388.07,-92 418.84,-92"/>
<polygon fill="black" stroke="black" points="418.49,-95.5 428.49,-92 418.49,-88.5 418.49,-95.5"/>
<text xml:space="preserve" text-anchor="middle" x="373.62" y="-95.2" font-family="Times New Roman,serif" font-size="14.00">Private</text>
</g>
<!-- legendNode6 -->
<g id="node7" class="node">
<title>legendNode6</title>
<polygon fill="none" stroke="black" points="592.9,-153.99 575.87,-169.22 506.93,-176 437.99,-169.22 420.96,-153.99 468.67,-141.78 545.19,-141.78 592.9,-153.99"/>
<text xml:space="preserve" text-anchor="middle" x="506.93" y="-152.95" font-family="Times New Roman,serif" font-size="14.00">Unknown Library</text>
</g>
<!-- legendNode3&#45;&gt;legendNode6 -->
<g id="edge6" class="edge">
<title>legendNode3&#45;&gt;legendNode6</title>
<path fill="none" stroke="black" d="M332.11,-158C358.18,-158 387.08,-158 413.72,-158"/>
<polygon fill="black" stroke="black" points="413.46,-161.5 423.46,-158 413.46,-154.5 413.46,-161.5"/>
</g>
<!-- node0 -->
<g id="node9" class="node">
<title>node0</title>
<polygon fill="none" stroke="black" points="75.48,-424.05 78.3,-424.15 81.09,-424.3 83.83,-424.49 86.53,-424.74 89.16,-425.03 91.72,-425.36 94.2,-425.75 96.58,-426.18 98.87,-426.65 101.04,-427.16 103.1,-427.71 105.03,-428.31 106.84,-428.94 108.5,-429.61 110.03,-430.31 111.42,-431.04 112.66,-431.8 113.75,-432.59 114.69,-433.41 115.48,-434.25 116.12,-435.11 116.61,-435.99 116.95,-436.89 117.14,-437.8 117.2,-438.72 117.11,-439.65 116.89,-440.59 116.53,-441.53 116.05,-442.47 115.45,-443.41 114.74,-444.35 113.91,-445.28 112.98,-446.2 111.96,-447.11 110.84,-448.01 109.64,-448.89 108.36,-449.75 107,-450.59 105.58,-451.41 104.1,-452.2 102.57,-452.96 100.98,-453.69 99.35,-454.39 97.69,-455.06 95.98,-455.69 94.25,-456.29 92.49,-456.84 90.7,-457.35 88.9,-457.82 87.08,-458.25 85.24,-458.64 83.4,-458.97 81.54,-459.26 79.67,-459.51 77.8,-459.7 75.93,-459.85 74.05,-459.95 72.17,-460 70.29,-460 68.41,-459.95 66.53,-459.85 64.66,-459.7 62.79,-459.51 60.92,-459.26 59.07,-458.97 57.22,-458.64 55.38,-458.25 53.56,-457.82 51.76,-457.35 49.98,-456.84 48.21,-456.29 46.48,-455.69 44.78,-455.06 43.11,-454.39 41.48,-453.69 39.89,-452.96 38.36,-452.2 36.88,-451.41 35.46,-450.59 34.1,-449.75 32.82,-448.89 31.62,-448.01 30.5,-447.11 29.48,-446.2 28.55,-445.28 27.72,-444.35 27.01,-443.41 26.41,-442.47 25.93,-441.53 25.57,-440.59 25.35,-439.65 25.27,-438.72 25.32,-437.8 25.51,-436.89 25.86,-435.99 26.34,-435.11 26.98,-434.25 27.77,-433.41 28.71,-432.59 29.8,-431.8 31.04,-431.04 32.43,-430.31 33.96,-429.61 35.63,-428.94 37.43,-428.31 39.36,-427.71 41.42,-427.16 43.6,-426.65 45.88,-426.18 48.26,-425.75 50.74,-425.36 53.3,-425.03 55.93,-424.74 58.63,-424.49 61.37,-424.3 64.16,-424.15 66.98,-424.05 69.81,-424 72.65,-424 75.48,-424.05"/>
<text xml:space="preserve" text-anchor="middle" x="71.23" y="-436.95" font-family="Times New Roman,serif" font-size="14.00">Sandbox</text>
</g>
<!-- node0&#45;&gt;node0 -->
<g id="edge8" class="edge">
<title>node0&#45;&gt;node0</title>
<path fill="none" stroke="black" d="M58.17,-459.04C55.5,-468.86 59.85,-478 71.23,-478 77.81,-478 82.04,-474.94 83.92,-470.47"/>
<polygon fill="black" stroke="black" points="87.42,-470.66 84.25,-460.55 80.42,-470.43 87.42,-470.66"/>
</g>
<!-- node1 -->
<g id="node10" class="node">
<title>node1</title>
<polygon fill="none" stroke="black" points="329.36,-447.56 247.54,-460 165.72,-447.56 196.97,-427.44 298.11,-427.44 329.36,-447.56"/>
<text xml:space="preserve" text-anchor="middle" x="247.54" y="-436.95" font-family="Times New Roman,serif" font-size="14.00">rtr_engine_full</text>
</g>
<!-- node0&#45;&gt;node1 -->
<g id="edge39" class="edge">
<title>node0&#45;&gt;node1</title>
<path fill="none" stroke="black" stroke-dasharray="1,5" d="M116.67,-442C130.63,-442 146.53,-442 162.31,-442"/>
<polygon fill="black" stroke="black" points="162.23,-445.5 172.23,-442 162.23,-438.5 162.23,-445.5"/>
</g>
<!-- node2 -->
<g id="node11" class="node">
<title>node2</title>
<polygon fill="none" stroke="black" points="583.56,-527.54 583.56,-542.46 538.67,-553 475.19,-553 430.3,-542.46 430.3,-527.54 475.19,-517 538.67,-517 583.56,-527.54"/>
<text xml:space="preserve" text-anchor="middle" x="506.93" y="-529.95" font-family="Times New Roman,serif" font-size="14.00">rtr_assets_client</text>
</g>
<!-- node1&#45;&gt;node2 -->
<g id="edge16" class="edge">
<title>node1&#45;&gt;node2</title>
<path fill="none" stroke="black" stroke-dasharray="5,2" d="M284.06,-454.83C327.62,-470.57 401.86,-497.4 452.36,-515.64"/>
<polygon fill="black" stroke="black" points="451.05,-518.89 461.65,-519 453.43,-512.31 451.05,-518.89"/>
</g>
<!-- node9 -->
<g id="node18" class="node">
<title>node9</title>
<polygon fill="none" stroke="black" points="592.55,-476.56 506.93,-489 421.31,-476.56 454.02,-456.44 559.84,-456.44 592.55,-476.56"/>
<text xml:space="preserve" text-anchor="middle" x="506.93" y="-465.95" font-family="Times New Roman,serif" font-size="14.00">rtr_engine_core</text>
</g>
<!-- node1&#45;&gt;node9 -->
<g id="edge26" class="edge">
<title>node1&#45;&gt;node9</title>
<path fill="none" stroke="black" stroke-dasharray="5,2" d="M317.86,-449.81C352.52,-453.72 394.54,-458.45 430.07,-462.45"/>
<polygon fill="black" stroke="black" points="429.53,-465.91 439.85,-463.56 430.31,-458.96 429.53,-465.91"/>
</g>
<!-- node15 -->
<g id="node24" class="node">
<title>node15</title>
<polygon fill="none" stroke="black" points="556.97,-292.54 556.97,-307.46 527.66,-318 486.2,-318 456.89,-307.46 456.89,-292.54 486.2,-282 527.66,-282 556.97,-292.54"/>
<text xml:space="preserve" text-anchor="middle" x="506.93" y="-294.95" font-family="Times New Roman,serif" font-size="14.00">rtr_imgui</text>
</g>
<!-- node1&#45;&gt;node15 -->
<g id="edge33" class="edge">
<title>node1&#45;&gt;node15</title>
<path fill="none" stroke="black" stroke-dasharray="5,2" d="M275.6,-427.07C321.7,-401.64 415.58,-349.85 468.14,-320.85"/>
<polygon fill="black" stroke="black" points="469.68,-324 476.74,-316.1 466.3,-317.87 469.68,-324"/>
</g>
<!-- node18 -->
<g id="node27" class="node">
<title>node18</title>
<polygon fill="none" stroke="black" points="566.39,-407.54 566.39,-422.46 531.56,-433 482.3,-433 447.47,-422.46 447.47,-407.54 482.3,-397 531.56,-397 566.39,-407.54"/>
<text xml:space="preserve" text-anchor="middle" x="506.93" y="-409.95" font-family="Times New Roman,serif" font-size="14.00">rtr_renderer</text>
</g>
<!-- node1&#45;&gt;node18 -->
<g id="edge38" class="edge">
<title>node1&#45;&gt;node18</title>
<path fill="none" stroke="black" stroke-dasharray="5,2" d="M311.18,-435.43C348.83,-431.48 396.83,-426.44 435.75,-422.36"/>
<polygon fill="black" stroke="black" points="435.91,-425.86 445.49,-421.34 435.18,-418.9 435.91,-425.86"/>
</g>
<!-- node3 -->
<g id="node12" class="node">
<title>node3</title>
<polygon fill="none" stroke="black" points="816.21,-509.54 816.21,-524.46 763.2,-535 688.24,-535 635.24,-524.46 635.24,-509.54 688.24,-499 763.2,-499 816.21,-509.54"/>
<text xml:space="preserve" text-anchor="middle" x="725.72" y="-511.95" font-family="Times New Roman,serif" font-size="14.00">rtr_assets_common</text>
</g>
<!-- node2&#45;&gt;node3 -->
<g id="edge13" class="edge">
<title>node2&#45;&gt;node3</title>
<path fill="none" stroke="black" d="M584.06,-528.68C596.93,-527.61 610.46,-526.49 623.84,-525.38"/>
<polygon fill="black" stroke="black" points="623.85,-528.89 633.52,-524.57 623.27,-521.91 623.85,-528.89"/>
</g>
<!-- node4 -->
<g id="node13" class="node">
<title>node4</title>
<polygon fill="none" stroke="black" points="1011.32,-463.54 1011.32,-478.46 985.9,-489 949.95,-489 924.53,-478.46 924.53,-463.54 949.95,-453 985.9,-453 1011.32,-463.54"/>
<text xml:space="preserve" text-anchor="middle" x="967.92" y="-465.95" font-family="Times New Roman,serif" font-size="14.00">rtr_core</text>
</g>
<!-- node2&#45;&gt;node4 -->
<g id="edge14" class="edge">
<title>node2&#45;&gt;node4</title>
<path fill="none" stroke="black" d="M520.6,-553.25C540.99,-580.84 584.06,-632.05 635.24,-652 710.18,-681.21 743.38,-686.13 816.21,-652 883.65,-620.4 931.42,-542.14 953.37,-499.61"/>
<polygon fill="black" stroke="black" points="956.47,-501.23 957.83,-490.72 950.21,-498.09 956.47,-501.23"/>
</g>
<!-- node8 -->
<g id="node17" class="node">
<title>node8</title>
<polygon fill="none" stroke="black" points="752.72,-617.54 752.72,-632.46 736.91,-643 714.54,-643 698.72,-632.46 698.72,-617.54 714.54,-607 736.91,-607 752.72,-617.54"/>
<text xml:space="preserve" text-anchor="middle" x="725.72" y="-619.95" font-family="Times New Roman,serif" font-size="14.00">stb</text>
</g>
<!-- node2&#45;&gt;node8 -->
<g id="edge15" class="edge">
<title>node2&#45;&gt;node8</title>
<path fill="none" stroke="black" stroke-dasharray="1,5" d="M540.48,-552.99C565.81,-566.52 602.1,-584.91 635.24,-598 652.16,-604.69 671.43,-610.69 687.74,-615.34"/>
<polygon fill="black" stroke="black" points="686.46,-618.61 697.03,-617.92 688.33,-611.87 686.46,-618.61"/>
</g>
<!-- node3&#45;&gt;node4 -->
<g id="edge12" class="edge">
<title>node3&#45;&gt;node4</title>
<path fill="none" stroke="black" d="M792.68,-504.37C830.77,-497.07 878.07,-488.02 913.76,-481.18"/>
<polygon fill="black" stroke="black" points="914.27,-484.65 923.43,-479.33 912.95,-477.77 914.27,-484.65"/>
</g>
<!-- node5 -->
<g id="node14" class="node">
<title>node5</title>
<polygon fill="none" stroke="black" points="1264.72,-463.54 1264.72,-478.46 1223.4,-489 1164.96,-489 1123.64,-478.46 1123.64,-463.54 1164.96,-453 1223.4,-453 1264.72,-463.54"/>
<polygon fill="none" stroke="black" points="1268.72,-460.44 1268.72,-481.56 1223.9,-493 1164.46,-493 1119.64,-481.56 1119.64,-460.44 1164.46,-449 1223.9,-449 1268.72,-460.44"/>
<text xml:space="preserve" text-anchor="middle" x="1194.18" y="-465.95" font-family="Times New Roman,serif" font-size="14.00">spdlog::spdlog</text>
</g>
<!-- node4&#45;&gt;node5 -->
<g id="edge11" class="edge">
<title>node4&#45;&gt;node5</title>
<path fill="none" stroke="black" d="M1011.63,-471C1038.8,-471 1074.94,-471 1107.81,-471"/>
<polygon fill="black" stroke="black" points="1107.77,-474.5 1117.77,-471 1107.77,-467.5 1107.77,-474.5"/>
</g>
<!-- node6 -->
<g id="node15" class="node">
<title>node6</title>
<polygon fill="none" stroke="black" points="1492.13,-505.56 1398.93,-518 1305.72,-505.56 1341.32,-485.44 1456.53,-485.44 1492.13,-505.56"/>
<text xml:space="preserve" text-anchor="middle" x="1398.93" y="-494.95" font-family="Times New Roman,serif" font-size="14.00">Threads::Threads</text>
</g>
<!-- node5&#45;&gt;node6 -->
<g id="edge9" class="edge">
<title>node5&#45;&gt;node6</title>
<path fill="none" stroke="black" stroke-dasharray="5,2" d="M1268.95,-481.55C1285.76,-483.96 1303.67,-486.52 1320.62,-488.94"/>
<polygon fill="black" stroke="black" points="1319.71,-492.35 1330.11,-490.3 1320.7,-485.42 1319.71,-492.35"/>
</g>
<!-- node7 -->
<g id="node16" class="node">
<title>node7</title>
<polygon fill="none" stroke="black" points="1445.09,-434.54 1445.09,-449.46 1418.05,-460 1379.8,-460 1352.76,-449.46 1352.76,-434.54 1379.8,-424 1418.05,-424 1445.09,-434.54"/>
<polygon fill="none" stroke="black" points="1449.09,-431.81 1449.09,-452.19 1418.8,-464 1379.05,-464 1348.76,-452.19 1348.76,-431.81 1379.05,-420 1418.8,-420 1449.09,-431.81"/>
<text xml:space="preserve" text-anchor="middle" x="1398.93" y="-436.95" font-family="Times New Roman,serif" font-size="14.00">fmt::fmt</text>
</g>
<!-- node5&#45;&gt;node7 -->
<g id="edge10" class="edge">
<title>node5&#45;&gt;node7</title>
<path fill="none" stroke="black" stroke-dasharray="5,2" d="M1268.95,-460.45C1291.31,-457.25 1315.61,-453.77 1337.03,-450.71"/>
<polygon fill="black" stroke="black" points="1337.37,-454.2 1346.77,-449.32 1336.38,-447.27 1337.37,-454.2"/>
</g>
<!-- node9&#45;&gt;node3 -->
<g id="edge17" class="edge">
<title>node9&#45;&gt;node3</title>
<path fill="none" stroke="black" stroke-dasharray="5,2" d="M559.03,-481.84C586.57,-487.69 621.03,-495 651.38,-501.44"/>
<polygon fill="black" stroke="black" points="650.37,-504.8 660.88,-503.45 651.82,-497.95 650.37,-504.8"/>
</g>
<!-- node9&#45;&gt;node4 -->
<g id="edge18" class="edge">
<title>node9&#45;&gt;node4</title>
<path fill="none" stroke="black" stroke-dasharray="5,2" d="M584.24,-471C677.05,-471 831.38,-471 912.8,-471"/>
<polygon fill="black" stroke="black" points="912.76,-474.5 922.76,-471 912.76,-467.5 912.76,-474.5"/>
</g>
<!-- node10 -->
<g id="node19" class="node">
<title>node10</title>
<polygon fill="none" stroke="black" points="786.85,-341.54 786.85,-356.46 751.04,-367 700.41,-367 664.6,-356.46 664.6,-341.54 700.41,-331 751.04,-331 786.85,-341.54"/>
<text xml:space="preserve" text-anchor="middle" x="725.72" y="-343.95" font-family="Times New Roman,serif" font-size="14.00">rtr_platform</text>
</g>
<!-- node9&#45;&gt;node10 -->
<g id="edge22" class="edge">
<title>node9&#45;&gt;node10</title>
<path fill="none" stroke="black" stroke-dasharray="5,2" d="M563.95,-458.44C578.16,-454.2 593.11,-448.77 606.24,-442 640.71,-424.22 675.01,-395.83 697.76,-375.09"/>
<polygon fill="black" stroke="black" points="700.13,-377.67 705.08,-368.3 695.37,-372.54 700.13,-377.67"/>
</g>
<!-- node13 -->
<g id="node22" class="node">
<title>node13</title>
<polygon fill="none" stroke="black" points="774.1,-563.54 774.1,-578.46 745.76,-589 705.68,-589 677.34,-578.46 677.34,-563.54 705.68,-553 745.76,-553 774.1,-563.54"/>
<text xml:space="preserve" text-anchor="middle" x="725.72" y="-565.95" font-family="Times New Roman,serif" font-size="14.00">rtr_scene</text>
</g>
<!-- node9&#45;&gt;node13 -->
<g id="edge25" class="edge">
<title>node9&#45;&gt;node13</title>
<path fill="none" stroke="black" stroke-dasharray="5,2" d="M553.5,-482.55C571.03,-488.38 590.58,-496.67 606.24,-508 622.89,-520.04 618.2,-532.52 635.24,-544 645.03,-550.6 656.48,-555.62 667.86,-559.44"/>
<polygon fill="black" stroke="black" points="666.66,-562.73 677.25,-562.3 668.7,-556.04 666.66,-562.73"/>
</g>
<!-- node10&#45;&gt;node4 -->
<g id="edge21" class="edge">
<title>node10&#45;&gt;node4</title>
<path fill="none" stroke="black" stroke-dasharray="1,5" d="M773.18,-360.97C792.8,-366.78 815.58,-374.57 835.21,-384 872.17,-401.76 910.92,-428.48 936.74,-447.62"/>
<polygon fill="black" stroke="black" points="934.33,-450.19 944.43,-453.39 938.53,-444.59 934.33,-450.19"/>
</g>
<!-- node11 -->
<g id="node20" class="node">
<title>node11</title>
<polygon fill="none" stroke="black" points="996.91,-235.54 996.91,-250.46 979.93,-261 955.91,-261 938.93,-250.46 938.93,-235.54 955.91,-225 979.93,-225 996.91,-235.54"/>
<text xml:space="preserve" text-anchor="middle" x="967.92" y="-237.95" font-family="Times New Roman,serif" font-size="14.00">glad</text>
</g>
<!-- node10&#45;&gt;node11 -->
<g id="edge19" class="edge">
<title>node10&#45;&gt;node11</title>
<path fill="none" stroke="black" stroke-dasharray="1,5" d="M780.03,-339.15C792.65,-335.18 805.53,-329.67 816.21,-322 839.25,-305.46 829.68,-285.85 853.21,-270 875.09,-255.26 904.08,-248.53 927.31,-245.47"/>
<polygon fill="black" stroke="black" points="927.48,-248.98 937.03,-244.39 926.7,-242.02 927.48,-248.98"/>
</g>
<!-- node12 -->
<g id="node21" class="node">
<title>node12</title>
<polygon fill="none" stroke="black" points="998.02,-293.54 998.02,-308.46 980.39,-319 955.46,-319 937.82,-308.46 937.82,-293.54 955.46,-283 980.39,-283 998.02,-293.54"/>
<polygon fill="none" stroke="black" points="1002.02,-291.28 1002.02,-310.72 981.5,-323 954.35,-323 933.82,-310.72 933.82,-291.28 954.35,-279 981.5,-279 1002.02,-291.28"/>
<text xml:space="preserve" text-anchor="middle" x="967.92" y="-295.95" font-family="Times New Roman,serif" font-size="14.00">glfw</text>
</g>
<!-- node10&#45;&gt;node12 -->
<g id="edge20" class="edge">
<title>node10&#45;&gt;node12</title>
<path fill="none" stroke="black" stroke-dasharray="1,5" d="M778.55,-338.64C821.44,-330.07 881.74,-318.02 922.46,-309.88"/>
<polygon fill="black" stroke="black" points="923.05,-313.34 932.17,-307.94 921.68,-306.47 923.05,-313.34"/>
</g>
<!-- node13&#45;&gt;node4 -->
<g id="edge24" class="edge">
<title>node13&#45;&gt;node4</title>
<path fill="none" stroke="black" d="M766.83,-560.37C782.43,-555.85 800.33,-550.19 816.21,-544 856.18,-528.4 900.16,-506.52 930.24,-490.79"/>
<polygon fill="black" stroke="black" points="931.72,-493.97 938.93,-486.21 928.45,-487.78 931.72,-493.97"/>
</g>
<!-- node14 -->
<g id="node23" class="node">
<title>node14</title>
<polygon fill="none" stroke="black" points="1040.25,-701.56 967.92,-714 895.59,-701.56 923.22,-681.44 1012.63,-681.44 1040.25,-701.56"/>
<text xml:space="preserve" text-anchor="middle" x="967.92" y="-690.95" font-family="Times New Roman,serif" font-size="14.00">EnTT::EnTT</text>
</g>
<!-- node13&#45;&gt;node14 -->
<g id="edge23" class="edge">
<title>node13&#45;&gt;node14</title>
<path fill="none" stroke="black" stroke-dasharray="1,5" d="M768.61,-580.99C783.94,-585.33 801.19,-591.03 816.21,-598 861.73,-619.14 909.54,-652.4 938.79,-674.2"/>
<polygon fill="black" stroke="black" points="936.67,-676.99 946.76,-680.21 940.89,-671.4 936.67,-676.99"/>
</g>
<!-- node15&#45;&gt;node4 -->
<g id="edge28" class="edge">
<title>node15&#45;&gt;node4</title>
<path fill="none" stroke="black" d="M531.79,-316.86C556.63,-333.78 597.17,-359.62 635.24,-376 711.99,-409.04 735.88,-403.96 816.21,-427 851.06,-437 890.38,-448.48 920.12,-457.21"/>
<polygon fill="black" stroke="black" points="918.98,-460.53 929.56,-459.99 920.96,-453.81 918.98,-460.53"/>
</g>
<!-- node16 -->
<g id="node25" class="node">
<title>node16</title>
<polygon fill="none" stroke="black" points="1003.56,-181.54 1003.56,-196.46 982.69,-207 953.16,-207 932.28,-196.46 932.28,-181.54 953.16,-171 982.69,-171 1003.56,-181.54"/>
<text xml:space="preserve" text-anchor="middle" x="967.92" y="-183.95" font-family="Times New Roman,serif" font-size="14.00">imgui</text>
</g>
<!-- node15&#45;&gt;node16 -->
<g id="edge27" class="edge">
<title>node15&#45;&gt;node16</title>
<path fill="none" stroke="black" stroke-dasharray="1,5" d="M557.34,-297.83C574.34,-294.92 592.54,-289.15 606.24,-278 630.47,-258.3 609.65,-231.9 635.24,-214 721.24,-153.85 852.3,-166.51 921.09,-178.91"/>
<polygon fill="black" stroke="black" points="920.42,-182.34 930.9,-180.76 921.72,-175.46 920.42,-182.34"/>
</g>
<!-- node17 -->
<g id="node26" class="node">
<title>node17</title>
<polygon fill="none" stroke="black" points="813.99,-233.54 813.99,-248.46 762.28,-259 689.16,-259 637.46,-248.46 637.46,-233.54 689.16,-223 762.28,-223 813.99,-233.54"/>
<text xml:space="preserve" text-anchor="middle" x="725.72" y="-235.95" font-family="Times New Roman,serif" font-size="14.00">rtr_imgui_backend</text>
</g>
<!-- node15&#45;&gt;node17 -->
<g id="edge32" class="edge">
<title>node15&#45;&gt;node17</title>
<path fill="none" stroke="black" stroke-dasharray="1,5" d="M553.72,-290.87C570.36,-287.26 589.24,-282.82 606.24,-278 619.36,-274.28 622.27,-272.19 635.24,-268 643.91,-265.2 653.09,-262.33 662.12,-259.55"/>
<polygon fill="black" stroke="black" points="663.05,-262.93 671.59,-256.66 661.01,-256.23 663.05,-262.93"/>
</g>
<!-- node17&#45;&gt;node11 -->
<g id="edge29" class="edge">
<title>node17&#45;&gt;node11</title>
<path fill="none" stroke="black" stroke-dasharray="1,5" d="M814.46,-241.73C853.03,-242.05 896.41,-242.41 927.01,-242.67"/>
<polygon fill="black" stroke="black" points="926.93,-246.17 936.96,-242.75 926.99,-239.17 926.93,-246.17"/>
</g>
<!-- node17&#45;&gt;node12 -->
<g id="edge30" class="edge">
<title>node17&#45;&gt;node12</title>
<path fill="none" stroke="black" stroke-dasharray="1,5" d="M783.34,-255.14C825.88,-265.77 883.34,-280.12 922.57,-289.92"/>
<polygon fill="black" stroke="black" points="921.61,-293.29 932.16,-292.32 923.3,-286.5 921.61,-293.29"/>
</g>
<!-- node17&#45;&gt;node16 -->
<g id="edge31" class="edge">
<title>node17&#45;&gt;node16</title>
<path fill="none" stroke="black" d="M787.96,-227.74C829.27,-218.8 882.94,-207.18 920.69,-199.01"/>
<polygon fill="black" stroke="black" points="921.35,-202.45 930.38,-196.91 919.87,-195.61 921.35,-202.45"/>
</g>
<!-- node18&#45;&gt;node4 -->
<g id="edge36" class="edge">
<title>node18&#45;&gt;node4</title>
<path fill="none" stroke="black" d="M566.53,-422.15C656.27,-433.1 826.44,-453.86 913.18,-464.44"/>
<polygon fill="black" stroke="black" points="912.49,-467.88 922.84,-465.62 913.34,-460.94 912.49,-467.88"/>
</g>
<!-- node18&#45;&gt;node10 -->
<g id="edge37" class="edge">
<title>node18&#45;&gt;node10</title>
<path fill="none" stroke="black" stroke-dasharray="1,5" d="M549.99,-402.2C584.62,-391.65 633.93,-376.64 671.34,-365.25"/>
<polygon fill="black" stroke="black" points="672.05,-368.7 680.6,-362.43 670.01,-362 672.05,-368.7"/>
</g>
<!-- node19 -->
<g id="node28" class="node">
<title>node19</title>
<polygon fill="none" stroke="black" points="775.21,-287.54 775.21,-302.46 746.22,-313 705.22,-313 676.23,-302.46 676.23,-287.54 705.22,-277 746.22,-277 775.21,-287.54"/>
<text xml:space="preserve" text-anchor="middle" x="725.72" y="-289.95" font-family="Times New Roman,serif" font-size="14.00">glm::glm</text>
</g>
<!-- node18&#45;&gt;node19 -->
<g id="edge35" class="edge">
<title>node18&#45;&gt;node19</title>
<path fill="none" stroke="black" d="M528.13,-396.85C552.11,-376.14 594.08,-342.5 635.24,-322 646.36,-316.46 658.83,-311.82 670.86,-308.04"/>
<polygon fill="black" stroke="black" points="671.68,-311.44 680.27,-305.23 669.68,-304.74 671.68,-311.44"/>
</g>
<!-- node20 -->
<g id="node29" class="node">
<title>node20</title>
<polygon fill="none" stroke="black" points="1082.64,-364.56 967.92,-377 853.21,-364.56 897.02,-344.44 1038.82,-344.44 1082.64,-364.56"/>
<text xml:space="preserve" text-anchor="middle" x="967.92" y="-353.95" font-family="Times New Roman,serif" font-size="14.00">glm::glm&#45;header&#45;only</text>
</g>
<!-- node19&#45;&gt;node20 -->
<g id="edge34" class="edge">
<title>node19&#45;&gt;node20</title>
<path fill="none" stroke="black" stroke-dasharray="5,2" d="M764.77,-306.69C789.81,-314.24 823.35,-324.09 853.21,-332 865,-335.12 877.52,-338.27 889.78,-341.25"/>
<polygon fill="black" stroke="black" points="888.92,-344.64 899.46,-343.59 890.56,-337.84 888.92,-344.64"/>
</g>
</g>
</svg>
