<?xml version="1.0" encoding="UTF-8" standalone="no"?>
<!DOCTYPE svg PUBLIC "-//W3C//DTD SVG 1.1//EN"
 "http://www.w3.org/Graphics/SVG/1.1/DTD/svg11.dtd">
<!-- Generated by graphviz version 14.1.5 (20260411.2331)
 -->
<!-- Title: RTR Engine Architecture Pages: 1 -->
<svg width="1310pt" height="534pt"
 viewBox="0.00 0.00 1310.00 534.00" xmlns="http://www.w3.org/2000/svg" xmlns:xlink="http://www.w3.org/1999/xlink">
<g id="graph0" class="graph" transform="scale(1 1) rotate(0) translate(4 530)">
<title>RTR Engine Architecture</title>
<polygon fill="white" stroke="none" points="-4,4 -4,-530 1305.62,-530 1305.62,4 -4,4"/>
<g id="clust1" class="cluster">
<title>clusterLegend</title>
<polygon fill="none" stroke="black" points="8,-8 8,-274 606.24,-274 606.24,-8 8,-8"/>
<text xml:space="preserve" text-anchor="middle" x="307.12" y="-256.7" font-family="Segoe UI" font-size="14.00">Legend</text>
</g>
<!-- legendNode0 -->
<g id="node1" class="node">
<title>legendNode0</title>
<polygon fill="none" stroke="black" points="76.34,-117.05 79.73,-117.15 83.07,-117.3 86.37,-117.49 89.61,-117.74 92.78,-118.03 95.85,-118.36 98.83,-118.75 101.69,-119.18 104.44,-119.65 107.05,-120.16 109.52,-120.71 111.85,-121.31 114.01,-121.94 116.02,-122.61 117.86,-123.31 119.52,-124.04 121.01,-124.8 122.32,-125.59 123.45,-126.41 124.4,-127.25 125.17,-128.11 125.75,-128.99 126.16,-129.89 126.4,-130.8 126.46,-131.72 126.36,-132.65 126.09,-133.59 125.67,-134.53 125.09,-135.47 124.37,-136.41 123.51,-137.35 122.52,-138.28 121.4,-139.2 120.17,-140.11 118.83,-141.01 117.38,-141.89 115.84,-142.75 114.22,-143.59 112.51,-144.41 110.73,-145.2 108.89,-145.96 106.98,-146.69 105.02,-147.39 103.02,-148.06 100.97,-148.69 98.89,-149.29 96.77,-149.84 94.63,-150.35 92.46,-150.82 90.27,-151.25 88.07,-151.64 85.85,-151.97 83.62,-152.26 81.38,-152.51 79.13,-152.7 76.88,-152.85 74.62,-152.95 72.36,-153 70.1,-153 67.84,-152.95 65.59,-152.85 63.33,-152.7 61.09,-152.51 58.85,-152.26 56.61,-151.97 54.4,-151.64 52.19,-151.25 50,-150.82 47.83,-150.35 45.69,-149.84 43.57,-149.29 41.49,-148.69 39.44,-148.06 37.44,-147.39 35.48,-146.69 33.58,-145.96 31.73,-145.2 29.95,-144.41 28.25,-143.59 26.62,-142.75 25.08,-141.89 23.64,-141.01 22.29,-140.11 21.06,-139.2 19.95,-138.28 18.95,-137.35 18.09,-136.41 17.37,-135.47 16.8,-134.53 16.37,-133.59 16.1,-132.65 16,-131.72 16.06,-130.8 16.3,-129.89 16.71,-128.99 17.3,-128.11 18.06,-127.25 19.01,-126.41 20.14,-125.59 21.45,-124.8 22.94,-124.04 24.61,-123.31 26.44,-122.61 28.45,-121.94 30.62,-121.31 32.94,-120.71 35.41,-120.16 38.03,-119.65 40.77,-119.18 43.63,-118.75 46.61,-118.36 49.69,-118.03 52.85,-117.74 56.09,-117.49 59.39,-117.3 62.74,-117.15 66.12,-117.05 69.53,-117 72.94,-117 76.34,-117.05"/>
<text xml:space="preserve" text-anchor="middle" x="71.23" y="-129.95" font-family="Times New Roman,serif" font-size="14.00">Executable</text>
</g>
<!-- legendNode1 -->
<g id="node2" class="node">
<title>legendNode1</title>
<polygon fill="none" stroke="black" points="314.76,-212.54 314.76,-227.46 275.38,-238 219.7,-238 180.33,-227.46 180.33,-212.54 219.7,-202 275.38,-202 314.76,-212.54"/>
<text xml:space="preserve" text-anchor="middle" x="247.54" y="-214.95" font-family="Times New Roman,serif" font-size="14.00">Static Library</text>
</g>
<!-- legendNode0&#45;&gt;legendNode1 -->
<g id="edge1" class="edge">
<title>legendNode0&#45;&gt;legendNode1</title>
<path fill="none" stroke="black" d="M93.83,-150.94C111.77,-163.63 138.33,-181.16 163.46,-193 171.47,-196.77 180.14,-200.23 188.76,-203.31"/>
<polygon fill="black" stroke="black" points="187.57,-206.61 198.17,-206.53 189.84,-199.98 187.57,-206.61"/>
</g>
<!-- legendNode2 -->
<g id="node3" class="node">
<title>legendNode2</title>
<polygon fill="none" stroke="black" points="319.74,-30.54 319.74,-45.46 277.45,-56 217.63,-56 175.34,-45.46 175.34,-30.54 217.63,-20 277.45,-20 319.74,-30.54"/>
<polygon fill="none" stroke="black" points="323.74,-27.42 323.74,-48.58 277.94,-60 217.14,-60 171.34,-48.58 171.34,-27.42 217.14,-16 277.94,-16 323.74,-27.42"/>
<text xml:space="preserve" text-anchor="middle" x="247.54" y="-32.95" font-family="Times New Roman,serif" font-size="14.00">Shared Library</text>
</g>
<!-- legendNode0&#45;&gt;legendNode2 -->
<g id="edge2" class="edge">
<title>legendNode0&#45;&gt;legendNode2</title>
<path fill="none" stroke="black" d="M92.91,-117.54C110.73,-103.12 137.61,-82.84 163.46,-69 170.12,-65.44 177.27,-62.1 184.49,-59.03"/>
<polygon fill="black" stroke="black" points="185.71,-62.32 193.66,-55.31 183.08,-55.83 185.71,-62.32"/>
</g>
<!-- legendNode3 -->
<g id="node4" class="node">
<title>legendNode3</title>
<polygon fill="none" stroke="black" points="323.62,-96.54 323.62,-111.46 279.05,-122 216.03,-122 171.46,-111.46 171.46,-96.54 216.03,-86 279.05,-86 323.62,-96.54"/>
<polygon fill="none" stroke="black" points="327.62,-93.38 327.62,-114.62 279.52,-126 215.56,-126 167.46,-114.62 167.46,-93.38 215.56,-82 279.52,-82 327.62,-93.38"/>
<polygon fill="none" stroke="black" points="331.62,-90.22 331.62,-117.78 279.99,-130 215.09,-130 163.46,-117.78 163.46,-90.22 215.09,-78 279.99,-78 331.62,-90.22"/>
<text xml:space="preserve" text-anchor="middle" x="247.54" y="-98.95" font-family="Times New Roman,serif" font-size="14.00">Module Library</text>
</g>
<!-- legendNode0&#45;&gt;legendNode3 -->
<!-- legendNode7 -->
<g id="node8" class="node">
<title>legendNode7</title>
<polygon fill="none" stroke="black" points="295.67,-184 199.42,-184 199.42,-148 295.67,-148 295.67,-184"/>
<text xml:space="preserve" text-anchor="middle" x="247.54" y="-160.95" font-family="Times New Roman,serif" font-size="14.00">Custom Target</text>
</g>
<!-- legendNode0&#45;&gt;legendNode7 -->
<!-- legendNode4 -->
<g id="node5" class="node">
<title>legendNode4</title>
<polygon fill="none" stroke="black" points="598.24,-225.56 506.93,-238 415.62,-225.56 450.5,-205.44 563.36,-205.44 598.24,-225.56"/>
<text xml:space="preserve" text-anchor="middle" x="506.93" y="-214.95" font-family="Times New Roman,serif" font-size="14.00">Interface Library</text>
</g>
<!-- legendNode1&#45;&gt;legendNode4 -->
<g id="edge4" class="edge">
<title>legendNode1&#45;&gt;legendNode4</title>
<path fill="none" stroke="black" stroke-dasharray="5,2" d="M315.16,-220C345.01,-220 380.71,-220 413.12,-220"/>
<polygon fill="black" stroke="black" points="412.91,-223.5 422.91,-220 412.91,-216.5 412.91,-223.5"/>
<text xml:space="preserve" text-anchor="middle" x="373.62" y="-223.2" font-family="Times New Roman,serif" font-size="14.00">Interface</text>
</g>
<!-- legendNode5 -->
<g id="node6" class="node">
<title>legendNode5</title>
<polygon fill="none" stroke="black" points="582.77,-38 544.85,-56 469.01,-56 431.09,-38 469.01,-20 544.85,-20 582.77,-38"/>
<text xml:space="preserve" text-anchor="middle" x="506.93" y="-32.95" font-family="Times New Roman,serif" font-size="14.00">Object Library</text>
</g>
<!-- legendNode2&#45;&gt;legendNode5 -->
<g id="edge5" class="edge">
<title>legendNode2&#45;&gt;legendNode5</title>
<path fill="none" stroke="black" stroke-dasharray="1,5" d="M324.03,-38C353.75,-38 388.07,-38 418.84,-38"/>
<polygon fill="black" stroke="black" points="418.49,-41.5 428.49,-38 418.49,-34.5 418.49,-41.5"/>
<text xml:space="preserve" text-anchor="middle" x="373.62" y="-41.2" font-family="Times New Roman,serif" font-size="14.00">Private</text>
</g>
<!-- legendNode6 -->
<g id="node7" class="node">
<title>legendNode6</title>
<polygon fill="none" stroke="black" points="592.9,-99.99 575.87,-115.22 506.93,-122 437.99,-115.22 420.96,-99.99 468.67,-87.78 545.19,-87.78 592.9,-99.99"/>
<text xml:space="preserve" text-anchor="middle" x="506.93" y="-98.95" font-family="Times New Roman,serif" font-size="14.00">Unknown Library</text>
</g>
<!-- legendNode3&#45;&gt;legendNode6 -->
<g id="edge6" class="edge">
<title>legendNode3&#45;&gt;legendNode6</title>
<path fill="none" stroke="black" d="M332.11,-104C358.18,-104 387.08,-104 413.72,-104"/>
<polygon fill="black" stroke="black" points="413.46,-107.5 423.46,-104 413.46,-100.5 413.46,-107.5"/>
</g>
<!-- node0 -->
<g id="node9" class="node">
<title>node0</title>
<polygon fill="none" stroke="black" points="75.48,-394.05 78.3,-394.15 81.09,-394.3 83.83,-394.49 86.53,-394.74 89.16,-395.03 91.72,-395.36 94.2,-395.75 96.58,-396.18 98.87,-396.65 101.04,-397.16 103.1,-397.71 105.03,-398.31 106.84,-398.94 108.5,-399.61 110.03,-400.31 111.42,-401.04 112.66,-401.8 113.75,-402.59 114.69,-403.41 115.48,-404.25 116.12,-405.11 116.61,-405.99 116.95,-406.89 117.14,-407.8 117.2,-408.72 117.11,-409.65 116.89,-410.59 116.53,-411.53 116.05,-412.47 115.45,-413.41 114.74,-414.35 113.91,-415.28 112.98,-416.2 111.96,-417.11 110.84,-418.01 109.64,-418.89 108.36,-419.75 107,-420.59 105.58,-421.41 104.1,-422.2 102.57,-422.96 100.98,-423.69 99.35,-424.39 97.69,-425.06 95.98,-425.69 94.25,-426.29 92.49,-426.84 90.7,-427.35 88.9,-427.82 87.08,-428.25 85.24,-428.64 83.4,-428.97 81.54,-429.26 79.67,-429.51 77.8,-429.7 75.93,-429.85 74.05,-429.95 72.17,-430 70.29,-430 68.41,-429.95 66.53,-429.85 64.66,-429.7 62.79,-429.51 60.92,-429.26 59.07,-428.97 57.22,-428.64 55.38,-428.25 53.56,-427.82 51.76,-427.35 49.98,-426.84 48.21,-426.29 46.48,-425.69 44.78,-425.06 43.11,-424.39 41.48,-423.69 39.89,-422.96 38.36,-422.2 36.88,-421.41 35.46,-420.59 34.1,-419.75 32.82,-418.89 31.62,-418.01 30.5,-417.11 29.48,-416.2 28.55,-415.28 27.72,-414.35 27.01,-413.41 26.41,-412.47 25.93,-411.53 25.57,-410.59 25.35,-409.65 25.27,-408.72 25.32,-407.8 25.51,-406.89 25.86,-405.99 26.34,-405.11 26.98,-404.25 27.77,-403.41 28.71,-402.59 29.8,-401.8 31.04,-401.04 32.43,-400.31 33.96,-399.61 35.63,-398.94 37.43,-398.31 39.36,-397.71 41.42,-397.16 43.6,-396.65 45.88,-396.18 48.26,-395.75 50.74,-395.36 53.3,-395.03 55.93,-394.74 58.63,-394.49 61.37,-394.3 64.16,-394.15 66.98,-394.05 69.81,-394 72.65,-394 75.48,-394.05"/>
<text xml:space="preserve" text-anchor="middle" x="71.23" y="-406.95" font-family="Times New Roman,serif" font-size="14.00">Sandbox</text>
</g>
<!-- node0&#45;&gt;node0 -->
<g id="edge8" class="edge">
<title>node0&#45;&gt;node0</title>
<path fill="none" stroke="black" d="M58.17,-429.04C55.5,-438.86 59.85,-448 71.23,-448 77.81,-448 82.04,-444.94 83.92,-440.47"/>
<polygon fill="black" stroke="black" points="87.42,-440.66 84.25,-430.55 80.42,-440.43 87.42,-440.66"/>
</g>
<!-- node1 -->
<g id="node10" class="node">
<title>node1</title>
<polygon fill="none" stroke="black" points="307.85,-417.56 247.54,-430 187.23,-417.56 210.27,-397.44 284.82,-397.44 307.85,-417.56"/>
<text xml:space="preserve" text-anchor="middle" x="247.54" y="-406.95" font-family="Times New Roman,serif" font-size="14.00">rtr_engine</text>
</g>
<!-- node0&#45;&gt;node1 -->
<g id="edge28" class="edge">
<title>node0&#45;&gt;node1</title>
<path fill="none" stroke="black" stroke-dasharray="1,5" d="M116.67,-412C136.33,-412 159.85,-412 181.44,-412"/>
<polygon fill="black" stroke="black" points="181.35,-415.5 191.35,-412 181.35,-408.5 181.35,-415.5"/>
</g>
<!-- node2 -->
<g id="node11" class="node">
<title>node2</title>
<polygon fill="none" stroke="black" points="556.42,-404.54 556.42,-419.46 527.43,-430 486.43,-430 457.44,-419.46 457.44,-404.54 486.43,-394 527.43,-394 556.42,-404.54"/>
<text xml:space="preserve" text-anchor="middle" x="506.93" y="-406.95" font-family="Times New Roman,serif" font-size="14.00">rtr_assets</text>
</g>
<!-- node1&#45;&gt;node2 -->
<g id="edge13" class="edge">
<title>node1&#45;&gt;node2</title>
<path fill="none" stroke="black" stroke-dasharray="5,2" d="M302.19,-412C344.11,-412 402.37,-412 445.86,-412"/>
<polygon fill="black" stroke="black" points="445.63,-415.5 455.63,-412 445.63,-408.5 445.63,-415.5"/>
</g>
<!-- node3 -->
<g id="node12" class="node">
<title>node3</title>
<polygon fill="none" stroke="black" points="766.9,-424.54 766.9,-439.46 741.48,-450 705.53,-450 680.11,-439.46 680.11,-424.54 705.53,-414 741.48,-414 766.9,-424.54"/>
<text xml:space="preserve" text-anchor="middle" x="723.51" y="-426.95" font-family="Times New Roman,serif" font-size="14.00">rtr_core</text>
</g>
<!-- node1&#45;&gt;node3 -->
<g id="edge14" class="edge">
<title>node1&#45;&gt;node3</title>
<path fill="none" stroke="black" stroke-dasharray="5,2" d="M292.63,-421.11C326.18,-427.55 373.59,-435.63 415.62,-439 500.07,-445.78 521.56,-441.55 606.24,-439 626.51,-438.39 648.73,-437.18 668.27,-435.94"/>
<polygon fill="black" stroke="black" points="668.48,-439.44 678.23,-435.29 668.02,-432.45 668.48,-439.44"/>
</g>
<!-- node7 -->
<g id="node16" class="node">
<title>node7</title>
<polygon fill="none" stroke="black" points="556.97,-350.54 556.97,-365.46 527.66,-376 486.2,-376 456.89,-365.46 456.89,-350.54 486.2,-340 527.66,-340 556.97,-350.54"/>
<text xml:space="preserve" text-anchor="middle" x="506.93" y="-352.95" font-family="Times New Roman,serif" font-size="14.00">rtr_imgui</text>
</g>
<!-- node1&#45;&gt;node7 -->
<g id="edge17" class="edge">
<title>node1&#45;&gt;node7</title>
<path fill="none" stroke="black" stroke-dasharray="5,2" d="M291.62,-402.96C335.08,-393.84 402.37,-379.73 449.94,-369.75"/>
<polygon fill="black" stroke="black" points="450.43,-373.22 459.5,-367.74 448.99,-366.37 450.43,-373.22"/>
</g>
<!-- node9 -->
<g id="node18" class="node">
<title>node9</title>
<polygon fill="none" stroke="black" points="566.39,-292.54 566.39,-307.46 531.56,-318 482.3,-318 447.47,-307.46 447.47,-292.54 482.3,-282 531.56,-282 566.39,-292.54"/>
<text xml:space="preserve" text-anchor="middle" x="506.93" y="-294.95" font-family="Times New Roman,serif" font-size="14.00">rtr_renderer</text>
</g>
<!-- node1&#45;&gt;node9 -->
<g id="edge24" class="edge">
<title>node1&#45;&gt;node9</title>
<path fill="none" stroke="black" stroke-dasharray="5,2" d="M276.74,-397.03C309.58,-379.91 365.7,-351.58 415.62,-331 427.83,-325.97 441.19,-321.06 453.79,-316.7"/>
<polygon fill="black" stroke="black" points="454.86,-320.03 463.2,-313.5 452.6,-313.41 454.86,-320.03"/>
</g>
<!-- node15 -->
<g id="node24" class="node">
<title>node15</title>
<polygon fill="none" stroke="black" points="555.31,-496.54 555.31,-511.46 526.97,-522 486.89,-522 458.55,-511.46 458.55,-496.54 486.89,-486 526.97,-486 555.31,-496.54"/>
<text xml:space="preserve" text-anchor="middle" x="506.93" y="-498.95" font-family="Times New Roman,serif" font-size="14.00">rtr_scene</text>
</g>
<!-- node1&#45;&gt;node15 -->
<g id="edge27" class="edge">
<title>node1&#45;&gt;node15</title>
<path fill="none" stroke="black" stroke-dasharray="5,2" d="M268.04,-426.28C287.69,-439.99 319.36,-460.3 349.62,-472 380.78,-484.04 417.27,-491.84 447.15,-496.72"/>
<polygon fill="black" stroke="black" points="446.34,-500.14 456.76,-498.22 447.42,-493.22 446.34,-500.14"/>
</g>
<!-- node2&#45;&gt;node3 -->
<g id="edge12" class="edge">
<title>node2&#45;&gt;node3</title>
<path fill="none" stroke="black" d="M556.89,-416.56C590.23,-419.67 634.36,-423.78 668.69,-426.98"/>
<polygon fill="black" stroke="black" points="668.13,-430.45 678.42,-427.89 668.78,-423.48 668.13,-430.45"/>
</g>
<!-- node4 -->
<g id="node13" class="node">
<title>node4</title>
<polygon fill="none" stroke="black" points="1034.03,-427.54 1034.03,-442.46 992.71,-453 934.27,-453 892.95,-442.46 892.95,-427.54 934.27,-417 992.71,-417 1034.03,-427.54"/>
<polygon fill="none" stroke="black" points="1038.03,-424.44 1038.03,-445.56 993.21,-457 933.77,-457 888.95,-445.56 888.95,-424.44 933.77,-413 993.21,-413 1038.03,-424.44"/>
<text xml:space="preserve" text-anchor="middle" x="963.49" y="-429.95" font-family="Times New Roman,serif" font-size="14.00">spdlog::spdlog</text>
</g>
<!-- node3&#45;&gt;node4 -->
<g id="edge11" class="edge">
<title>node3&#45;&gt;node4</title>
<path fill="none" stroke="black" d="M767.33,-432.54C797.89,-432.93 840.02,-433.46 877.31,-433.93"/>
<polygon fill="black" stroke="black" points="877.16,-437.42 887.2,-434.05 877.24,-430.43 877.16,-437.42"/>
</g>
<!-- node5 -->
<g id="node14" class="node">
<title>node5</title>
<polygon fill="none" stroke="black" points="1301.62,-469.56 1208.42,-482 1115.21,-469.56 1150.81,-449.44 1266.02,-449.44 1301.62,-469.56"/>
<text xml:space="preserve" text-anchor="middle" x="1208.42" y="-458.95" font-family="Times New Roman,serif" font-size="14.00">Threads::Threads</text>
</g>
<!-- node4&#45;&gt;node5 -->
<g id="edge9" class="edge">
<title>node4&#45;&gt;node5</title>
<path fill="none" stroke="black" stroke-dasharray="5,2" d="M1038.37,-443.82C1066.59,-447.19 1098.88,-451.04 1127.62,-454.47"/>
<polygon fill="black" stroke="black" points="1127.02,-457.93 1137.36,-455.64 1127.85,-450.98 1127.02,-457.93"/>
</g>
<!-- node6 -->
<g id="node15" class="node">
<title>node6</title>
<polygon fill="none" stroke="black" points="1254.58,-398.54 1254.58,-413.46 1227.54,-424 1189.29,-424 1162.25,-413.46 1162.25,-398.54 1189.29,-388 1227.54,-388 1254.58,-398.54"/>
<polygon fill="none" stroke="black" points="1258.58,-395.81 1258.58,-416.19 1228.29,-428 1188.54,-428 1158.25,-416.19 1158.25,-395.81 1188.54,-384 1228.29,-384 1258.58,-395.81"/>
<text xml:space="preserve" text-anchor="middle" x="1208.42" y="-400.95" font-family="Times New Roman,serif" font-size="14.00">fmt::fmt</text>
</g>
<!-- node4&#45;&gt;node6 -->
<g id="edge10" class="edge">
<title>node4&#45;&gt;node6</title>
<path fill="none" stroke="black" stroke-dasharray="5,2" d="M1038.37,-426.18C1073.08,-422.04 1113.95,-417.16 1146.81,-413.23"/>
<polygon fill="black" stroke="black" points="1147.06,-416.73 1156.57,-412.07 1146.23,-409.78 1147.06,-416.73"/>
</g>
<!-- node7&#45;&gt;node3 -->
<g id="edge16" class="edge">
<title>node7&#45;&gt;node3</title>
<path fill="none" stroke="black" d="M549.87,-368.37C567.43,-373.01 587.96,-378.82 606.24,-385 607.22,-385.33 648.05,-401.85 681.05,-415.21"/>
<polygon fill="black" stroke="black" points="679.44,-418.33 690.02,-418.84 682.07,-411.84 679.44,-418.33"/>
</g>
<!-- node8 -->
<g id="node17" class="node">
<title>node8</title>
<polygon fill="none" stroke="black" points="999.13,-369.54 999.13,-384.46 978.25,-395 948.73,-395 927.85,-384.46 927.85,-369.54 948.73,-359 978.25,-359 999.13,-369.54"/>
<text xml:space="preserve" text-anchor="middle" x="963.49" y="-371.95" font-family="Times New Roman,serif" font-size="14.00">imgui</text>
</g>
<!-- node7&#45;&gt;node8 -->
<g id="edge15" class="edge">
<title>node7&#45;&gt;node8</title>
<path fill="none" stroke="black" d="M557.44,-360.07C645.9,-363.77 829.86,-371.46 916.05,-375.06"/>
<polygon fill="black" stroke="black" points="915.89,-378.56 926.03,-375.48 916.19,-371.56 915.89,-378.56"/>
</g>
<!-- node9&#45;&gt;node3 -->
<g id="edge20" class="edge">
<title>node9&#45;&gt;node3</title>
<path fill="none" stroke="black" d="M556.31,-310.99C572.76,-315.82 590.86,-322.39 606.24,-331 606.87,-331.35 659.77,-377.37 693.99,-407.16"/>
<polygon fill="black" stroke="black" points="691.68,-409.8 701.52,-413.72 696.28,-404.52 691.68,-409.8"/>
</g>
<!-- node10 -->
<g id="node19" class="node">
<title>node10</title>
<polygon fill="none" stroke="black" points="773,-205.54 773,-220.46 744.01,-231 703.01,-231 674.02,-220.46 674.02,-205.54 703.01,-195 744.01,-195 773,-205.54"/>
<text xml:space="preserve" text-anchor="middle" x="723.51" y="-207.95" font-family="Times New Roman,serif" font-size="14.00">glm::glm</text>
</g>
<!-- node9&#45;&gt;node10 -->
<g id="edge19" class="edge">
<title>node9&#45;&gt;node10</title>
<path fill="none" stroke="black" d="M566.65,-292.69C580.22,-289.44 594.19,-284.76 606.24,-278 622.41,-268.93 619.85,-258.35 635.24,-248 646.78,-240.24 660.29,-233.78 673.2,-228.6"/>
<polygon fill="black" stroke="black" points="674.32,-231.91 682.42,-225.09 671.83,-225.37 674.32,-231.91"/>
</g>
<!-- node12 -->
<g id="node21" class="node">
<title>node12</title>
<polygon fill="none" stroke="black" points="784.63,-267.54 784.63,-282.46 748.82,-293 698.19,-293 662.39,-282.46 662.39,-267.54 698.19,-257 748.82,-257 784.63,-267.54"/>
<text xml:space="preserve" text-anchor="middle" x="723.51" y="-269.95" font-family="Times New Roman,serif" font-size="14.00">rtr_platform</text>
</g>
<!-- node9&#45;&gt;node12 -->
<g id="edge23" class="edge">
<title>node9&#45;&gt;node12</title>
<path fill="none" stroke="black" stroke-dasharray="1,5" d="M566.85,-293.14C592.91,-290.1 623.79,-286.5 651.14,-283.31"/>
<polygon fill="black" stroke="black" points="651.2,-286.83 660.72,-282.2 650.39,-279.88 651.2,-286.83"/>
</g>
<!-- node11 -->
<g id="node20" class="node">
<title>node11</title>
<polygon fill="none" stroke="black" points="1078.21,-212.56 963.49,-225 848.77,-212.56 892.59,-192.44 1034.39,-192.44 1078.21,-212.56"/>
<text xml:space="preserve" text-anchor="middle" x="963.49" y="-201.95" font-family="Times New Roman,serif" font-size="14.00">glm::glm&#45;header&#45;only</text>
</g>
<!-- node10&#45;&gt;node11 -->
<g id="edge18" class="edge">
<title>node10&#45;&gt;node11</title>
<path fill="none" stroke="black" stroke-dasharray="5,2" d="M773.24,-211.77C793.52,-211.26 818.05,-210.64 842.63,-210.02"/>
<polygon fill="black" stroke="black" points="842.49,-213.53 852.39,-209.78 842.31,-206.53 842.49,-213.53"/>
</g>
<!-- node13 -->
<g id="node22" class="node">
<title>node13</title>
<polygon fill="none" stroke="black" points="992.48,-315.54 992.48,-330.46 975.5,-341 951.48,-341 934.5,-330.46 934.5,-315.54 951.48,-305 975.5,-305 992.48,-315.54"/>
<text xml:space="preserve" text-anchor="middle" x="963.49" y="-317.95" font-family="Times New Roman,serif" font-size="14.00">glad</text>
</g>
<!-- node12&#45;&gt;node13 -->
<g id="edge21" class="edge">
<title>node12&#45;&gt;node13</title>
<path fill="none" stroke="black" stroke-dasharray="1,5" d="M776.15,-285.42C820.19,-294.3 882.6,-306.89 922.81,-315"/>
<polygon fill="black" stroke="black" points="922.05,-318.41 932.55,-316.96 923.44,-311.55 922.05,-318.41"/>
</g>
<!-- node14 -->
<g id="node23" class="node">
<title>node14</title>
<polygon fill="none" stroke="black" points="993.59,-257.54 993.59,-272.46 975.96,-283 951.02,-283 933.39,-272.46 933.39,-257.54 951.02,-247 975.96,-247 993.59,-257.54"/>
<polygon fill="none" stroke="black" points="997.59,-255.28 997.59,-274.72 977.06,-287 949.92,-287 929.39,-274.72 929.39,-255.28 949.92,-243 977.06,-243 997.59,-255.28"/>
<text xml:space="preserve" text-anchor="middle" x="963.49" y="-259.95" font-family="Times New Roman,serif" font-size="14.00">glfw</text>
</g>
<!-- node12&#45;&gt;node14 -->
<g id="edge22" class="edge">
<title>node12&#45;&gt;node14</title>
<path fill="none" stroke="black" stroke-dasharray="1,5" d="M785.13,-269.01C799.73,-267.79 815.3,-266.67 829.77,-266 859.02,-264.64 891.92,-264.39 917.65,-264.47"/>
<polygon fill="black" stroke="black" points="917.39,-267.97 927.41,-264.52 917.43,-260.97 917.39,-267.97"/>
</g>
<!-- node15&#45;&gt;node3 -->
<g id="edge26" class="edge">
<title>node15&#45;&gt;node3</title>
<path fill="none" stroke="black" d="M545.2,-492.35C566.37,-485.66 593.34,-477.02 617.24,-469 637.66,-462.14 660.19,-454.27 679.16,-447.54"/>
<polygon fill="black" stroke="black" points="680.19,-450.89 688.45,-444.24 677.85,-444.3 680.19,-450.89"/>
</g>
<!-- node16 -->
<g id="node25" class="node">
<title>node16</title>
<polygon fill="none" stroke="black" points="795.84,-513.56 723.51,-526 651.18,-513.56 678.8,-493.44 768.21,-493.44 795.84,-513.56"/>
<text xml:space="preserve" text-anchor="middle" x="723.51" y="-502.95" font-family="Times New Roman,serif" font-size="14.00">EnTT::EnTT</text>
</g>
<!-- node15&#45;&gt;node16 -->
<g id="edge25" class="edge">
<title>node15&#45;&gt;node16</title>
<path fill="none" stroke="black" stroke-dasharray="1,5" d="M555.55,-504.89C582.93,-505.4 617.92,-506.05 648.78,-506.63"/>
<polygon fill="black" stroke="black" points="648.37,-510.12 658.43,-506.81 648.5,-503.12 648.37,-510.12"/>
</g>
<!-- node17 -->
<g id="node26" class="node">
<title>node17</title>
<polygon fill="none" stroke="black" points="811.77,-321.54 811.77,-336.46 760.07,-347 686.95,-347 635.24,-336.46 635.24,-321.54 686.95,-311 760.07,-311 811.77,-321.54"/>
<text xml:space="preserve" text-anchor="middle" x="723.51" y="-323.95" font-family="Times New Roman,serif" font-size="14.00">rtr_imgui_backend</text>
</g>
<!-- node17&#45;&gt;node8 -->
<g id="edge31" class="edge">
<title>node17&#45;&gt;node8</title>
<path fill="none" stroke="black" d="M787.97,-341.8C828.53,-349.98 880.17,-360.4 916.73,-367.77"/>
<polygon fill="black" stroke="black" points="915.59,-371.11 926.08,-369.66 916.97,-364.25 915.59,-371.11"/>
</g>
<!-- node17&#45;&gt;node13 -->
<g id="edge29" class="edge">
<title>node17&#45;&gt;node13</title>
<path fill="none" stroke="black" stroke-dasharray="1,5" d="M812.11,-326.79C850.14,-325.83 892.77,-324.76 922.9,-324"/>
<polygon fill="black" stroke="black" points="922.78,-327.5 932.69,-323.75 922.6,-320.5 922.78,-327.5"/>
</g>
<!-- node17&#45;&gt;node14 -->
<g id="edge30" class="edge">
<title>node17&#45;&gt;node14</title>
<path fill="none" stroke="black" stroke-dasharray="1,5" d="M778.81,-314.4C820.88,-303.08 878.47,-287.6 917.88,-277"/>
<polygon fill="black" stroke="black" points="918.78,-280.38 927.52,-274.4 916.96,-273.62 918.78,-280.38"/>
</g>
<!-- node18 -->
<g id="node27" class="node">
<title>node18</title>
<polygon fill="none" stroke="black" points="98.23,-476.54 98.23,-491.46 82.41,-502 60.05,-502 44.23,-491.46 44.23,-476.54 60.05,-466 82.41,-466 98.23,-476.54"/>
<text xml:space="preserve" text-anchor="middle" x="71.23" y="-478.95" font-family="Times New Roman,serif" font-size="14.00">stb</text>
</g>
</g>
</svg>
