<?xml version="1.0" encoding="UTF-8" standalone="no"?>
<!DOCTYPE svg PUBLIC "-//W3C//DTD SVG 1.1//EN"
 "http://www.w3.org/Graphics/SVG/1.1/DTD/svg11.dtd">
<!-- Generated by graphviz version 14.1.5 (20260411.2331)
 -->
<!-- Title: RTR Engine Architecture Pages: 1 -->
<svg width="1322pt" height="747pt"
 viewBox="0.00 0.00 1322.00 747.00" xmlns="http://www.w3.org/2000/svg" xmlns:xlink="http://www.w3.org/1999/xlink">
<g id="graph0" class="graph" transform="scale(1 1) rotate(0) translate(4 743.22)">
<title>RTR Engine Architecture</title>
<polygon fill="white" stroke="none" points="-4,4 -4,-743.22 1318.42,-743.22 1318.42,4 -4,4"/>
<g id="clust1" class="cluster">
<title>clusterLegend</title>
<polygon fill="none" stroke="black" points="18.59,-8 18.59,-274 646.49,-274 646.49,-8 18.59,-8"/>
<text xml:space="preserve" text-anchor="middle" x="332.54" y="-256.7" font-family="Segoe UI" font-size="14.00">Legend</text>
</g>
<!-- legendNode0 -->
<g id="node1" class="node">
<title>legendNode0</title>
<polygon fill="none" stroke="black" points="86.93,-107.05 90.31,-107.15 93.66,-107.3 96.96,-107.49 100.2,-107.74 103.37,-108.03 106.44,-108.36 109.42,-108.75 112.28,-109.18 115.03,-109.65 117.64,-110.16 120.11,-110.71 122.43,-111.31 124.6,-111.94 126.61,-112.61 128.44,-113.31 130.11,-114.04 131.6,-114.8 132.91,-115.59 134.04,-116.41 134.99,-117.25 135.75,-118.11 136.34,-118.99 136.75,-119.89 136.99,-120.8 137.05,-121.72 136.95,-122.65 136.68,-123.59 136.25,-124.53 135.68,-125.47 134.96,-126.41 134.1,-127.35 133.11,-128.28 131.99,-129.2 130.76,-130.11 129.41,-131.01 127.97,-131.89 126.43,-132.75 124.8,-133.59 123.1,-134.41 121.32,-135.2 119.48,-135.96 117.57,-136.69 115.61,-137.39 113.61,-138.06 111.56,-138.69 109.48,-139.29 107.36,-139.84 105.22,-140.35 103.05,-140.82 100.86,-141.25 98.66,-141.64 96.44,-141.97 94.21,-142.26 91.97,-142.51 89.72,-142.7 87.47,-142.85 85.21,-142.95 82.95,-143 80.69,-143 78.43,-142.95 76.17,-142.85 73.92,-142.7 71.67,-142.51 69.43,-142.26 67.2,-141.97 64.98,-141.64 62.78,-141.25 60.59,-140.82 58.42,-140.35 56.28,-139.84 54.16,-139.29 52.08,-138.69 50.03,-138.06 48.03,-137.39 46.07,-136.69 44.16,-135.96 42.32,-135.2 40.54,-134.41 38.84,-133.59 37.21,-132.75 35.67,-131.89 34.23,-131.01 32.88,-130.11 31.65,-129.2 30.53,-128.28 29.54,-127.35 28.68,-126.41 27.96,-125.47 27.39,-124.53 26.96,-123.59 26.69,-122.65 26.59,-121.72 26.65,-120.8 26.89,-119.89 27.3,-118.99 27.89,-118.11 28.65,-117.25 29.6,-116.41 30.73,-115.59 32.04,-114.8 33.53,-114.04 35.2,-113.31 37.03,-112.61 39.04,-111.94 41.21,-111.31 43.53,-110.71 46,-110.16 48.61,-109.65 51.36,-109.18 54.22,-108.75 57.2,-108.36 60.28,-108.03 63.44,-107.74 66.68,-107.49 69.98,-107.3 73.33,-107.15 76.71,-107.05 80.11,-107 83.53,-107 86.93,-107.05"/>
<text xml:space="preserve" text-anchor="middle" x="81.82" y="-119.95" font-family="Times New Roman,serif" font-size="14.00">Executable</text>
</g>
<!-- legendNode1 -->
<g id="node2" class="node">
<title>legendNode1</title>
<polygon fill="none" stroke="black" points="353.47,-26.54 353.47,-41.46 314.1,-52 258.41,-52 219.04,-41.46 219.04,-26.54 258.41,-16 314.1,-16 353.47,-26.54"/>
<text xml:space="preserve" text-anchor="middle" x="286.26" y="-28.95" font-family="Times New Roman,serif" font-size="14.00">Static Library</text>
</g>
<!-- legendNode0&#45;&gt;legendNode1 -->
<g id="edge1" class="edge">
<title>legendNode0&#45;&gt;legendNode1</title>
<path fill="none" stroke="black" d="M109.71,-108.49C133.13,-94.58 168.31,-74.79 200.64,-61 209.31,-57.3 218.65,-53.83 227.87,-50.69"/>
<polygon fill="black" stroke="black" points="228.73,-54.09 237.13,-47.64 226.54,-47.44 228.73,-54.09"/>
</g>
<!-- legendNode2 -->
<g id="node3" class="node">
<title>legendNode2</title>
<polygon fill="none" stroke="black" points="358.46,-84.54 358.46,-99.46 316.16,-110 256.35,-110 214.05,-99.46 214.05,-84.54 256.35,-74 316.16,-74 358.46,-84.54"/>
<polygon fill="none" stroke="black" points="362.46,-81.42 362.46,-102.58 316.65,-114 255.86,-114 210.05,-102.58 210.05,-81.42 255.86,-70 316.65,-70 362.46,-81.42"/>
<text xml:space="preserve" text-anchor="middle" x="286.26" y="-86.95" font-family="Times New Roman,serif" font-size="14.00">Shared Library</text>
</g>
<!-- legendNode0&#45;&gt;legendNode2 -->
<g id="edge2" class="edge">
<title>legendNode0&#45;&gt;legendNode2</title>
<path fill="none" stroke="black" d="M134.69,-116.54C155.03,-113.23 178.9,-109.34 201.56,-105.64"/>
<polygon fill="black" stroke="black" points="202.11,-109.1 211.42,-104.04 200.99,-102.19 202.11,-109.1"/>
</g>
<!-- legendNode3 -->
<g id="node4" class="node">
<title>legendNode3</title>
<polygon fill="none" stroke="black" points="362.34,-150.54 362.34,-165.46 317.77,-176 254.74,-176 210.18,-165.46 210.18,-150.54 254.74,-140 317.77,-140 362.34,-150.54"/>
<polygon fill="none" stroke="black" points="366.34,-147.38 366.34,-168.62 318.24,-180 254.28,-180 206.18,-168.62 206.18,-147.38 254.28,-136 318.24,-136 366.34,-147.38"/>
<polygon fill="none" stroke="black" points="370.34,-144.22 370.34,-171.78 318.7,-184 253.81,-184 202.18,-171.78 202.18,-144.22 253.81,-132 318.7,-132 370.34,-144.22"/>
<text xml:space="preserve" text-anchor="middle" x="286.26" y="-152.95" font-family="Times New Roman,serif" font-size="14.00">Module Library</text>
</g>
<!-- legendNode0&#45;&gt;legendNode3 -->
<!-- legendNode7 -->
<g id="node8" class="node">
<title>legendNode7</title>
<polygon fill="none" stroke="black" points="334.38,-238 238.13,-238 238.13,-202 334.38,-202 334.38,-238"/>
<text xml:space="preserve" text-anchor="middle" x="286.26" y="-214.95" font-family="Times New Roman,serif" font-size="14.00">Custom Target</text>
</g>
<!-- legendNode0&#45;&gt;legendNode7 -->
<!-- legendNode4 -->
<g id="node5" class="node">
<title>legendNode4</title>
<polygon fill="none" stroke="black" points="638.49,-39.56 547.18,-52 455.87,-39.56 490.75,-19.44 603.61,-19.44 638.49,-39.56"/>
<text xml:space="preserve" text-anchor="middle" x="547.18" y="-28.95" font-family="Times New Roman,serif" font-size="14.00">Interface Library</text>
</g>
<!-- legendNode1&#45;&gt;legendNode4 -->
<g id="edge4" class="edge">
<title>legendNode1&#45;&gt;legendNode4</title>
<path fill="none" stroke="black" stroke-dasharray="5,2" d="M353.94,-34C384.23,-34 420.57,-34 453.46,-34"/>
<polygon fill="black" stroke="black" points="453.43,-37.5 463.43,-34 453.42,-30.5 453.43,-37.5"/>
<text xml:space="preserve" text-anchor="middle" x="413.87" y="-37.2" font-family="Times New Roman,serif" font-size="14.00">Interface</text>
</g>
<!-- legendNode5 -->
<g id="node6" class="node">
<title>legendNode5</title>
<polygon fill="none" stroke="black" points="623.02,-92 585.1,-110 509.26,-110 471.34,-92 509.26,-74 585.1,-74 623.02,-92"/>
<text xml:space="preserve" text-anchor="middle" x="547.18" y="-86.95" font-family="Times New Roman,serif" font-size="14.00">Object Library</text>
</g>
<!-- legendNode2&#45;&gt;legendNode5 -->
<g id="edge5" class="edge">
<title>legendNode2&#45;&gt;legendNode5</title>
<path fill="none" stroke="black" stroke-dasharray="1,5" d="M362.84,-92C393.02,-92 427.95,-92 459.18,-92"/>
<polygon fill="black" stroke="black" points="458.99,-95.5 468.99,-92 458.99,-88.5 458.99,-95.5"/>
<text xml:space="preserve" text-anchor="middle" x="413.87" y="-95.2" font-family="Times New Roman,serif" font-size="14.00">Private</text>
</g>
<!-- legendNode6 -->
<g id="node7" class="node">
<title>legendNode6</title>
<polygon fill="none" stroke="black" points="633.15,-153.99 616.12,-169.22 547.18,-176 478.24,-169.22 461.21,-153.99 508.92,-141.78 585.44,-141.78 633.15,-153.99"/>
<text xml:space="preserve" text-anchor="middle" x="547.18" y="-152.95" font-family="Times New Roman,serif" font-size="14.00">Unknown Library</text>
</g>
<!-- legendNode3&#45;&gt;legendNode6 -->
<g id="edge6" class="edge">
<title>legendNode3&#45;&gt;legendNode6</title>
<path fill="none" stroke="black" d="M370.61,-158C397.13,-158 426.61,-158 453.73,-158"/>
<polygon fill="black" stroke="black" points="453.68,-161.5 463.68,-158 453.68,-154.5 453.68,-161.5"/>
</g>
<!-- node0 -->
<g id="node9" class="node">
<title>node0</title>
<polygon fill="none" stroke="black" points="86.17,-619.05 89.06,-619.15 91.91,-619.3 94.72,-619.49 97.48,-619.74 100.18,-620.03 102.8,-620.36 105.33,-620.75 107.77,-621.18 110.11,-621.65 112.34,-622.16 114.44,-622.71 116.42,-623.31 118.27,-623.94 119.98,-624.61 121.54,-625.31 122.96,-626.04 124.23,-626.8 125.35,-627.59 126.31,-628.41 127.12,-629.25 127.77,-630.11 128.27,-630.99 128.62,-631.89 128.82,-632.8 128.88,-633.72 128.79,-634.65 128.56,-635.59 128.2,-636.53 127.71,-637.47 127.09,-638.41 126.36,-639.35 125.51,-640.28 124.56,-641.2 123.51,-642.11 122.37,-643.01 121.14,-643.89 119.83,-644.75 118.44,-645.59 116.99,-646.41 115.47,-647.2 113.9,-647.96 112.28,-648.69 110.61,-649.39 108.9,-650.06 107.16,-650.69 105.38,-651.29 103.58,-651.84 101.75,-652.35 99.91,-652.82 98.04,-653.25 96.16,-653.64 94.27,-653.97 92.37,-654.26 90.46,-654.51 88.55,-654.7 86.63,-654.85 84.71,-654.95 82.78,-655 80.86,-655 78.93,-654.95 77.01,-654.85 75.09,-654.7 73.18,-654.51 71.27,-654.26 69.37,-653.97 67.48,-653.64 65.6,-653.25 63.73,-652.82 61.89,-652.35 60.06,-651.84 58.26,-651.29 56.48,-650.69 54.74,-650.06 53.03,-649.39 51.36,-648.69 49.74,-647.96 48.17,-647.2 46.65,-646.41 45.2,-645.59 43.81,-644.75 42.5,-643.89 41.27,-643.01 40.13,-642.11 39.08,-641.2 38.13,-640.28 37.28,-639.35 36.55,-638.41 35.93,-637.47 35.44,-636.53 35.08,-635.59 34.85,-634.65 34.76,-633.72 34.82,-632.8 35.02,-631.89 35.37,-630.99 35.87,-630.11 36.52,-629.25 37.33,-628.41 38.29,-627.59 39.41,-626.8 40.68,-626.04 42.1,-625.31 43.66,-624.61 45.37,-623.94 47.22,-623.31 49.2,-622.71 51.3,-622.16 53.53,-621.65 55.87,-621.18 58.31,-620.75 60.84,-620.36 63.46,-620.03 66.16,-619.74 68.92,-619.49 71.73,-619.3 74.58,-619.15 77.47,-619.05 80.37,-619 83.27,-619 86.17,-619.05"/>
<text xml:space="preserve" text-anchor="middle" x="81.82" y="-631.95" font-family="Times New Roman,serif" font-size="14.00">Headless</text>
</g>
<!-- node0&#45;&gt;node0 -->
<g id="edge8" class="edge">
<title>node0&#45;&gt;node0</title>
<path fill="none" stroke="black" d="M64.34,-653.29C60.12,-663.39 65.95,-673 81.82,-673 91.24,-673 97.13,-669.61 99.47,-664.74"/>
<polygon fill="black" stroke="black" points="102.97,-664.75 99.32,-654.8 95.97,-664.85 102.97,-664.75"/>
</g>
<!-- node1 -->
<g id="node10" class="node">
<title>node1</title>
<polygon fill="none" stroke="black" points="371.87,-642.56 286.26,-655 200.64,-642.56 233.34,-622.44 339.17,-622.44 371.87,-642.56"/>
<text xml:space="preserve" text-anchor="middle" x="286.26" y="-631.95" font-family="Times New Roman,serif" font-size="14.00">rtr_engine_core</text>
</g>
<!-- node0&#45;&gt;node1 -->
<g id="edge22" class="edge">
<title>node0&#45;&gt;node1</title>
<path fill="none" stroke="black" stroke-dasharray="1,5" d="M128.5,-637C148.94,-637 173.75,-637 197.55,-637"/>
<polygon fill="black" stroke="black" points="197.24,-640.5 207.24,-637 197.24,-633.5 197.24,-640.5"/>
</g>
<!-- node2 -->
<g id="node11" class="node">
<title>node2</title>
<polygon fill="none" stroke="black" points="637.66,-626.54 637.66,-641.46 584.66,-652 509.7,-652 456.7,-641.46 456.7,-626.54 509.7,-616 584.66,-616 637.66,-626.54"/>
<text xml:space="preserve" text-anchor="middle" x="547.18" y="-628.95" font-family="Times New Roman,serif" font-size="14.00">rtr_assets_common</text>
</g>
<!-- node1&#45;&gt;node2 -->
<g id="edge13" class="edge">
<title>node1&#45;&gt;node2</title>
<path fill="none" stroke="black" stroke-dasharray="5,2" d="M362.15,-636.13C388.01,-635.83 417.42,-635.49 445.03,-635.17"/>
<polygon fill="black" stroke="black" points="444.86,-638.67 454.82,-635.06 444.78,-631.67 444.86,-638.67"/>
</g>
<!-- node3 -->
<g id="node12" class="node">
<title>node3</title>
<polygon fill="none" stroke="black" points="833.6,-557.54 833.6,-572.46 808.18,-583 772.23,-583 746.81,-572.46 746.81,-557.54 772.23,-547 808.18,-547 833.6,-557.54"/>
<text xml:space="preserve" text-anchor="middle" x="790.21" y="-559.95" font-family="Times New Roman,serif" font-size="14.00">rtr_core</text>
</g>
<!-- node1&#45;&gt;node3 -->
<g id="edge14" class="edge">
<title>node1&#45;&gt;node3</title>
<path fill="none" stroke="black" stroke-dasharray="5,2" d="M309.24,-651.93C368.21,-689.96 533.11,-782.81 646.49,-715 669.87,-701.02 658.33,-682.16 675.49,-661 699.05,-631.94 732.33,-605.05 756.81,-587.16"/>
<polygon fill="black" stroke="black" points="758.73,-590.09 764.81,-581.41 754.65,-584.4 758.73,-590.09"/>
</g>
<!-- node7 -->
<g id="node16" class="node">
<title>node7</title>
<polygon fill="none" stroke="black" points="608.3,-388.54 608.3,-403.46 572.5,-414 521.86,-414 486.06,-403.46 486.06,-388.54 521.86,-378 572.5,-378 608.3,-388.54"/>
<text xml:space="preserve" text-anchor="middle" x="547.18" y="-390.95" font-family="Times New Roman,serif" font-size="14.00">rtr_platform</text>
</g>
<!-- node1&#45;&gt;node7 -->
<g id="edge18" class="edge">
<title>node1&#45;&gt;node7</title>
<path fill="none" stroke="black" stroke-dasharray="5,2" d="M345.35,-625.66C354.98,-621.85 364.28,-616.78 371.87,-610 405.86,-579.66 421.61,-453.02 455.87,-423 462.7,-417.02 470.8,-412.36 479.31,-408.74"/>
<polygon fill="black" stroke="black" points="480.28,-412.11 488.42,-405.34 477.83,-405.56 480.28,-412.11"/>
</g>
<!-- node10 -->
<g id="node19" class="node">
<title>node10</title>
<polygon fill="none" stroke="black" points="595.56,-680.54 595.56,-695.46 567.22,-706 527.14,-706 498.8,-695.46 498.8,-680.54 527.14,-670 567.22,-670 595.56,-680.54"/>
<text xml:space="preserve" text-anchor="middle" x="547.18" y="-682.95" font-family="Times New Roman,serif" font-size="14.00">rtr_scene</text>
</g>
<!-- node1&#45;&gt;node10 -->
<g id="edge21" class="edge">
<title>node1&#45;&gt;node10</title>
<path fill="none" stroke="black" stroke-dasharray="5,2" d="M340.59,-647.51C384.31,-656.12 445.98,-668.26 490.36,-677.01"/>
<polygon fill="black" stroke="black" points="489.56,-680.42 500.05,-678.91 490.92,-673.55 489.56,-680.42"/>
</g>
<!-- node2&#45;&gt;node3 -->
<g id="edge12" class="edge">
<title>node2&#45;&gt;node3</title>
<path fill="none" stroke="black" d="M602.83,-619.18C617.06,-615.27 632.36,-611.02 646.49,-607 678.59,-597.87 714.64,-587.26 742.48,-578.99"/>
<polygon fill="black" stroke="black" points="743.45,-582.35 752.03,-576.14 741.45,-575.64 743.45,-582.35"/>
</g>
<!-- node4 -->
<g id="node13" class="node">
<title>node4</title>
<polygon fill="none" stroke="black" points="1087,-557.54 1087,-572.46 1045.68,-583 987.25,-583 945.92,-572.46 945.92,-557.54 987.25,-547 1045.68,-547 1087,-557.54"/>
<polygon fill="none" stroke="black" points="1091,-554.44 1091,-575.56 1046.19,-587 986.74,-587 941.92,-575.56 941.92,-554.44 986.74,-543 1046.19,-543 1091,-554.44"/>
<text xml:space="preserve" text-anchor="middle" x="1016.46" y="-559.95" font-family="Times New Roman,serif" font-size="14.00">spdlog::spdlog</text>
</g>
<!-- node3&#45;&gt;node4 -->
<g id="edge11" class="edge">
<title>node3&#45;&gt;node4</title>
<path fill="none" stroke="black" d="M833.92,-565C861.09,-565 897.22,-565 930.09,-565"/>
<polygon fill="black" stroke="black" points="930.05,-568.5 940.05,-565 930.05,-561.5 930.05,-568.5"/>
</g>
<!-- node5 -->
<g id="node14" class="node">
<title>node5</title>
<polygon fill="none" stroke="black" points="1314.42,-599.56 1221.21,-612 1128,-599.56 1163.61,-579.44 1278.82,-579.44 1314.42,-599.56"/>
<text xml:space="preserve" text-anchor="middle" x="1221.21" y="-588.95" font-family="Times New Roman,serif" font-size="14.00">Threads::Threads</text>
</g>
<!-- node4&#45;&gt;node5 -->
<g id="edge9" class="edge">
<title>node4&#45;&gt;node5</title>
<path fill="none" stroke="black" stroke-dasharray="5,2" d="M1091.23,-575.55C1108.05,-577.96 1125.95,-580.52 1142.91,-582.94"/>
<polygon fill="black" stroke="black" points="1142,-586.35 1152.39,-584.3 1142.99,-579.42 1142,-586.35"/>
</g>
<!-- node6 -->
<g id="node15" class="node">
<title>node6</title>
<polygon fill="none" stroke="black" points="1267.38,-528.54 1267.38,-543.46 1240.33,-554 1202.09,-554 1175.05,-543.46 1175.05,-528.54 1202.09,-518 1240.33,-518 1267.38,-528.54"/>
<polygon fill="none" stroke="black" points="1271.38,-525.81 1271.38,-546.19 1241.09,-558 1201.34,-558 1171.05,-546.19 1171.05,-525.81 1201.34,-514 1241.09,-514 1271.38,-525.81"/>
<text xml:space="preserve" text-anchor="middle" x="1221.21" y="-530.95" font-family="Times New Roman,serif" font-size="14.00">fmt::fmt</text>
</g>
<!-- node4&#45;&gt;node6 -->
<g id="edge10" class="edge">
<title>node4&#45;&gt;node6</title>
<path fill="none" stroke="black" stroke-dasharray="5,2" d="M1091.23,-554.45C1113.6,-551.25 1137.9,-547.77 1159.32,-544.71"/>
<polygon fill="black" stroke="black" points="1159.65,-548.2 1169.06,-543.32 1158.66,-541.27 1159.65,-548.2"/>
</g>
<!-- node7&#45;&gt;node3 -->
<g id="edge17" class="edge">
<title>node7&#45;&gt;node3</title>
<path fill="none" stroke="black" stroke-dasharray="1,5" d="M608.67,-403.42C622.32,-407.44 635.9,-413.6 646.49,-423 671.99,-445.62 653.53,-467.93 675.49,-494 695.09,-517.26 724.3,-535.27 748.22,-547.33"/>
<polygon fill="black" stroke="black" points="746.55,-550.41 757.07,-551.63 749.61,-544.12 746.55,-550.41"/>
</g>
<!-- node8 -->
<g id="node17" class="node">
<title>node8</title>
<polygon fill="none" stroke="black" points="819.2,-341.54 819.2,-356.46 802.22,-367 778.2,-367 761.22,-356.46 761.22,-341.54 778.2,-331 802.22,-331 819.2,-341.54"/>
<text xml:space="preserve" text-anchor="middle" x="790.21" y="-343.95" font-family="Times New Roman,serif" font-size="14.00">glad</text>
</g>
<!-- node7&#45;&gt;node8 -->
<g id="edge15" class="edge">
<title>node7&#45;&gt;node8</title>
<path fill="none" stroke="black" stroke-dasharray="1,5" d="M600.48,-385.8C645.31,-377.06 708.92,-364.66 749.63,-356.72"/>
<polygon fill="black" stroke="black" points="750.09,-360.19 759.23,-354.85 748.75,-353.32 750.09,-360.19"/>
</g>
<!-- node9 -->
<g id="node18" class="node">
<title>node9</title>
<polygon fill="none" stroke="black" points="820.31,-400.54 820.31,-415.46 802.68,-426 777.74,-426 760.11,-415.46 760.11,-400.54 777.74,-390 802.68,-390 820.31,-400.54"/>
<polygon fill="none" stroke="black" points="824.31,-398.28 824.31,-417.72 803.78,-430 776.64,-430 756.11,-417.72 756.11,-398.28 776.64,-386 803.78,-386 824.31,-398.28"/>
<text xml:space="preserve" text-anchor="middle" x="790.21" y="-402.95" font-family="Times New Roman,serif" font-size="14.00">glfw</text>
</g>
<!-- node7&#45;&gt;node9 -->
<g id="edge16" class="edge">
<title>node7&#45;&gt;node9</title>
<path fill="none" stroke="black" stroke-dasharray="1,5" d="M608.6,-400.19C624.2,-401.2 640.97,-402.21 656.49,-403 685.75,-404.5 718.65,-405.74 744.38,-406.61"/>
<polygon fill="black" stroke="black" points="744.03,-410.1 754.14,-406.93 744.26,-403.11 744.03,-410.1"/>
</g>
<!-- node10&#45;&gt;node3 -->
<g id="edge20" class="edge">
<title>node10&#45;&gt;node3</title>
<path fill="none" stroke="black" d="M592.81,-678.99C610.03,-674.68 629.6,-668.75 646.49,-661 688.68,-641.65 732.25,-610.41 759.97,-588.85"/>
<polygon fill="black" stroke="black" points="761.86,-591.81 767.55,-582.87 757.53,-586.31 761.86,-591.81"/>
</g>
<!-- node11 -->
<g id="node20" class="node">
<title>node11</title>
<polygon fill="none" stroke="black" points="862.54,-693.56 790.21,-706 717.88,-693.56 745.51,-673.44 834.91,-673.44 862.54,-693.56"/>
<text xml:space="preserve" text-anchor="middle" x="790.21" y="-682.95" font-family="Times New Roman,serif" font-size="14.00">EnTT::EnTT</text>
</g>
<!-- node10&#45;&gt;node11 -->
<g id="edge19" class="edge">
<title>node10&#45;&gt;node11</title>
<path fill="none" stroke="black" stroke-dasharray="1,5" d="M595.8,-688C629.39,-688 675.08,-688 713.62,-688"/>
<polygon fill="black" stroke="black" points="713.29,-691.5 723.29,-688 713.29,-684.5 713.29,-691.5"/>
</g>
<!-- node12 -->
<g id="node21" class="node">
<title>node12</title>
<polygon fill="none" stroke="black" points="825.85,-285.54 825.85,-300.46 804.97,-311 775.45,-311 754.57,-300.46 754.57,-285.54 775.45,-275 804.97,-275 825.85,-285.54"/>
<text xml:space="preserve" text-anchor="middle" x="790.21" y="-287.95" font-family="Times New Roman,serif" font-size="14.00">imgui</text>
</g>
<!-- node13 -->
<g id="node22" class="node">
<title>node13</title>
<polygon fill="none" stroke="black" points="362.89,-575.54 362.89,-590.46 318,-601 254.51,-601 209.62,-590.46 209.62,-575.54 254.51,-565 318,-565 362.89,-575.54"/>
<text xml:space="preserve" text-anchor="middle" x="286.26" y="-577.95" font-family="Times New Roman,serif" font-size="14.00">rtr_assets_client</text>
</g>
<!-- node13&#45;&gt;node2 -->
<g id="edge23" class="edge">
<title>node13&#45;&gt;node2</title>
<path fill="none" stroke="black" d="M346.66,-594.7C383.29,-601.92 430.63,-611.24 470.01,-619"/>
<polygon fill="black" stroke="black" points="469.18,-622.4 479.67,-620.9 470.53,-615.53 469.18,-622.4"/>
</g>
<!-- node14 -->
<g id="node23" class="node">
<title>node14</title>
<polygon fill="none" stroke="black" points="574.18,-572.54 574.18,-587.46 558.37,-598 536,-598 520.18,-587.46 520.18,-572.54 536,-562 558.37,-562 574.18,-572.54"/>
<text xml:space="preserve" text-anchor="middle" x="547.18" y="-574.95" font-family="Times New Roman,serif" font-size="14.00">stb</text>
</g>
<!-- node13&#45;&gt;node14 -->
<g id="edge24" class="edge">
<title>node13&#45;&gt;node14</title>
<path fill="none" stroke="black" stroke-dasharray="1,5" d="M363.19,-582.12C411.06,-581.57 470.79,-580.87 508.72,-580.43"/>
<polygon fill="black" stroke="black" points="508.28,-583.94 518.24,-580.32 508.2,-576.94 508.28,-583.94"/>
</g>
<!-- node15 -->
<g id="node24" class="node">
<title>node15</title>
<polygon fill="none" stroke="black" points="163.64,-530.56 81.82,-543 0,-530.56 31.25,-510.44 132.39,-510.44 163.64,-530.56"/>
<text xml:space="preserve" text-anchor="middle" x="81.82" y="-519.95" font-family="Times New Roman,serif" font-size="14.00">rtr_engine_full</text>
</g>
<!-- node15&#45;&gt;node1 -->
<g id="edge26" class="edge">
<title>node15&#45;&gt;node1</title>
<path fill="none" stroke="black" stroke-dasharray="5,2" d="M100.42,-540.47C122.5,-559.18 162.13,-590.59 200.64,-610 207.21,-613.31 214.27,-616.33 221.41,-619.04"/>
<polygon fill="black" stroke="black" points="219.85,-622.2 230.45,-622.29 222.22,-615.61 219.85,-622.2"/>
</g>
<!-- node15&#45;&gt;node13 -->
<g id="edge25" class="edge">
<title>node15&#45;&gt;node13</title>
<path fill="none" stroke="black" stroke-dasharray="5,2" d="M124.27,-536.88C153.37,-545.21 192.74,-556.49 225.26,-565.81"/>
<polygon fill="black" stroke="black" points="223.97,-569.08 234.55,-568.47 225.9,-562.35 223.97,-569.08"/>
</g>
<!-- node16 -->
<g id="node25" class="node">
<title>node16</title>
<polygon fill="none" stroke="black" points="336.3,-374.54 336.3,-389.46 306.98,-400 265.53,-400 236.21,-389.46 236.21,-374.54 265.53,-364 306.98,-364 336.3,-374.54"/>
<text xml:space="preserve" text-anchor="middle" x="286.26" y="-376.95" font-family="Times New Roman,serif" font-size="14.00">rtr_imgui</text>
</g>
<!-- node15&#45;&gt;node16 -->
<g id="edge33" class="edge">
<title>node15&#45;&gt;node16</title>
<path fill="none" stroke="black" stroke-dasharray="5,2" d="M102.19,-510.22C125.36,-492.66 165.43,-462.63 200.64,-438 216.74,-426.74 234.88,-414.65 250.22,-404.61"/>
<polygon fill="black" stroke="black" points="252.12,-407.55 258.58,-399.15 248.29,-401.69 252.12,-407.55"/>
</g>
<!-- node18 -->
<g id="node27" class="node">
<title>node18</title>
<polygon fill="none" stroke="black" points="345.72,-457.54 345.72,-472.46 310.89,-483 261.63,-483 226.8,-472.46 226.8,-457.54 261.63,-447 310.89,-447 345.72,-457.54"/>
<text xml:space="preserve" text-anchor="middle" x="286.26" y="-459.95" font-family="Times New Roman,serif" font-size="14.00">rtr_renderer</text>
</g>
<!-- node15&#45;&gt;node18 -->
<g id="edge38" class="edge">
<title>node15&#45;&gt;node18</title>
<path fill="none" stroke="black" stroke-dasharray="5,2" d="M132.86,-510.17C162.89,-501.27 201.08,-489.95 231.72,-480.87"/>
<polygon fill="black" stroke="black" points="232.59,-484.26 241.18,-478.06 230.6,-477.55 232.59,-484.26"/>
</g>
<!-- node16&#45;&gt;node3 -->
<g id="edge28" class="edge">
<title>node16&#45;&gt;node3</title>
<path fill="none" stroke="black" d="M311.55,-398.71C343.36,-419.87 401.47,-456.06 455.87,-477 536.92,-508.2 562.64,-497.37 646.49,-520 679.71,-528.97 716.74,-540.7 744.76,-549.93"/>
<polygon fill="black" stroke="black" points="743.39,-553.16 753.98,-552.99 745.59,-546.52 743.39,-553.16"/>
</g>
<!-- node16&#45;&gt;node12 -->
<g id="edge27" class="edge">
<title>node16&#45;&gt;node12</title>
<path fill="none" stroke="black" stroke-dasharray="1,5" d="M316.51,-367.11C349.45,-351.12 405.02,-326.48 455.87,-315 556.26,-292.33 677.64,-290.52 742.68,-291.54"/>
<polygon fill="black" stroke="black" points="742.57,-295.04 752.63,-291.73 742.7,-288.04 742.57,-295.04"/>
</g>
<!-- node17 -->
<g id="node26" class="node">
<title>node17</title>
<polygon fill="none" stroke="black" points="635.45,-334.54 635.45,-349.46 583.74,-360 510.62,-360 458.91,-349.46 458.91,-334.54 510.62,-324 583.74,-324 635.45,-334.54"/>
<text xml:space="preserve" text-anchor="middle" x="547.18" y="-336.95" font-family="Times New Roman,serif" font-size="14.00">rtr_imgui_backend</text>
</g>
<!-- node16&#45;&gt;node17 -->
<g id="edge32" class="edge">
<title>node16&#45;&gt;node17</title>
<path fill="none" stroke="black" stroke-dasharray="1,5" d="M336.57,-374.38C372.32,-368.86 421.52,-361.26 463.26,-354.81"/>
<polygon fill="black" stroke="black" points="463.7,-358.28 473.05,-353.3 462.63,-351.37 463.7,-358.28"/>
</g>
<!-- node17&#45;&gt;node8 -->
<g id="edge29" class="edge">
<title>node17&#45;&gt;node8</title>
<path fill="none" stroke="black" stroke-dasharray="1,5" d="M635.88,-344.55C674.91,-345.68 718.91,-346.96 749.73,-347.85"/>
<polygon fill="black" stroke="black" points="749.25,-351.34 759.35,-348.13 749.45,-344.34 749.25,-351.34"/>
</g>
<!-- node17&#45;&gt;node9 -->
<g id="edge30" class="edge">
<title>node17&#45;&gt;node9</title>
<path fill="none" stroke="black" stroke-dasharray="1,5" d="M601.97,-356.73C644.87,-368.48 704.24,-384.73 744.55,-395.77"/>
<polygon fill="black" stroke="black" points="743.6,-399.14 754.17,-398.41 745.45,-392.39 743.6,-399.14"/>
</g>
<!-- node17&#45;&gt;node12 -->
<g id="edge31" class="edge">
<title>node17&#45;&gt;node12</title>
<path fill="none" stroke="black" d="M611.19,-329.19C652.53,-320.79 705.65,-309.99 743.07,-302.38"/>
<polygon fill="black" stroke="black" points="743.56,-305.85 752.66,-300.43 742.16,-298.99 743.56,-305.85"/>
</g>
<!-- node18&#45;&gt;node3 -->
<g id="edge36" class="edge">
<title>node18&#45;&gt;node3</title>
<path fill="none" stroke="black" d="M317.87,-481.1C337.85,-490.92 364.78,-502.92 389.87,-510 453.72,-528.02 642.02,-549.52 735.42,-559.45"/>
<polygon fill="black" stroke="black" points="734.78,-562.91 745.09,-560.48 735.52,-555.95 734.78,-562.91"/>
</g>
<!-- node18&#45;&gt;node7 -->
<g id="edge37" class="edge">
<title>node18&#45;&gt;node7</title>
<path fill="none" stroke="black" stroke-dasharray="1,5" d="M332.36,-452.98C376.09,-441.33 442.56,-423.61 489.77,-411.03"/>
<polygon fill="black" stroke="black" points="490.5,-414.46 499.27,-408.5 488.7,-407.7 490.5,-414.46"/>
</g>
<!-- node19 -->
<g id="node28" class="node">
<title>node19</title>
<polygon fill="none" stroke="black" points="596.67,-442.54 596.67,-457.46 567.68,-468 526.68,-468 497.69,-457.46 497.69,-442.54 526.68,-432 567.68,-432 596.67,-442.54"/>
<text xml:space="preserve" text-anchor="middle" x="547.18" y="-444.95" font-family="Times New Roman,serif" font-size="14.00">glm::glm</text>
</g>
<!-- node18&#45;&gt;node19 -->
<g id="edge35" class="edge">
<title>node18&#45;&gt;node19</title>
<path fill="none" stroke="black" d="M346.01,-461.6C387.74,-459.18 443.62,-455.94 485.73,-453.5"/>
<polygon fill="black" stroke="black" points="485.93,-457 495.71,-452.92 485.52,-450.01 485.93,-457"/>
</g>
<!-- node20 -->
<g id="node29" class="node">
<title>node20</title>
<polygon fill="none" stroke="black" points="904.92,-472.56 790.21,-485 675.49,-472.56 719.31,-452.44 861.11,-452.44 904.92,-472.56"/>
<text xml:space="preserve" text-anchor="middle" x="790.21" y="-461.95" font-family="Times New Roman,serif" font-size="14.00">glm::glm&#45;header&#45;only</text>
</g>
<!-- node19&#45;&gt;node20 -->
<g id="edge34" class="edge">
<title>node19&#45;&gt;node20</title>
<path fill="none" stroke="black" stroke-dasharray="5,2" d="M596.96,-453.44C623.54,-455.31 657.43,-457.71 689.34,-459.96"/>
<polygon fill="black" stroke="black" points="688.8,-463.43 699.02,-460.64 689.29,-456.44 688.8,-463.43"/>
</g>
</g>
</svg>
